{"glyphs":{"0":{"ha":706,"x_min":56,"x_max":683,"o":"m 293 -14 q 161 22 214 -14 q 82 124 108 57 q 56 286 56 192 q 65 438 56 354 q 99 606 75 522 q 168 761 124 690 q 283 875 213 832 q 453 918 353 918 q 624 840 564 918 q 683 624 683 761 q 678 527 683 588 q 660 394 674 467 q 619 251 646 322 q 550 119 593 179 q 444 22 507 58 q 293 -14 381 -14 m 306 50 q 446 97 394 50 q 524 240 497 144 q 569 476 551 335 q 574 521 572 501 q 577 558 576 540 q 578 590 578 575 q 579 621 579 606 q 567 749 579 699 q 522 825 554 800 q 428 850 489 850 q 290 805 340 850 q 214 667 240 760 q 169 432 188 574 q 161 351 164 389 q 158 282 158 314 q 172 154 158 206 q 217 76 185 103 q 306 50 249 50 z "},"1":{"ha":521,"x_min":18,"x_max":458,"o":"m 18 0 l 24 53 l 190 71 l 293 808 l 85 808 l 85 863 l 351 906 l 399 906 l 281 71 l 458 51 l 453 0 l 18 0 z "},"2":{"ha":643,"x_min":3,"x_max":607,"o":"m 38 0 l 3 75 l 281 342 q 399 463 354 413 q 467 552 444 514 q 499 622 490 590 q 507 683 507 653 q 467 785 507 750 q 339 821 428 821 q 228 794 276 821 q 133 728 181 768 l 110 749 q 142 792 119 764 q 201 848 165 819 q 286 897 238 876 q 394 917 335 917 q 553 861 499 917 q 607 719 607 806 q 573 583 607 647 q 474 447 539 518 q 315 283 410 376 l 129 100 l 133 89 l 146 89 l 488 89 l 532 215 l 589 207 l 547 0 l 38 0 z "},"3":{"ha":607,"x_min":10,"x_max":567,"o":"m 244 -14 q 72 22 133 -14 q 10 121 10 57 q 16 151 10 133 q 32 183 22 168 q 52 209 42 199 q 71 219 63 219 l 99 219 l 108 93 q 165 61 125 74 q 249 49 206 49 q 401 97 347 49 q 454 233 454 144 q 404 391 454 340 q 247 442 354 442 l 215 442 l 201 474 l 201 510 l 260 510 q 369 535 321 510 q 445 603 417 560 q 474 700 474 646 q 434 793 474 758 q 325 828 394 828 q 220 806 264 828 q 126 732 176 785 l 100 746 q 167 835 126 797 q 256 895 207 874 q 354 917 306 917 q 508 863 449 917 q 567 722 567 808 q 544 626 567 674 q 482 543 522 579 q 388 489 442 507 l 388 486 q 508 410 463 467 q 553 283 553 353 q 514 130 553 197 q 406 24 475 63 q 244 -14 336 -14 z "},"4":{"ha":653,"x_min":-12,"x_max":617,"o":"m 349 0 l 382 263 l 8 263 l -12 329 l 501 950 l 558 921 l 483 339 l 617 339 l 607 263 l 475 263 l 440 0 l 349 0 m 88 339 l 392 339 l 447 779 l 450 796 l 449 797 l 435 782 l 83 350 l 88 339 z "},"5":{"ha":642,"x_min":11,"x_max":621,"o":"m 243 -14 q 74 19 136 -14 q 11 121 11 53 q 28 176 11 149 q 71 219 44 204 l 99 219 l 108 93 q 127 80 111 90 q 177 60 143 69 q 267 50 211 50 q 367 70 322 50 q 437 138 411 90 q 463 267 463 185 q 435 395 463 343 q 336 480 408 447 q 126 529 264 513 l 199 900 l 549 900 l 568 949 l 621 949 l 600 804 l 246 804 l 210 583 q 410 533 331 568 q 528 444 489 499 q 567 317 567 390 q 545 184 567 244 q 482 79 524 124 q 380 10 440 35 q 243 -14 319 -14 z "},"6":{"ha":675,"x_min":68,"x_max":664,"o":"m 344 -14 q 212 15 275 -14 q 108 114 149 43 q 68 308 68 185 q 116 533 68 428 q 247 719 164 639 q 435 849 329 800 q 658 903 542 897 l 664 858 q 456 791 553 846 q 293 651 360 736 q 204 463 226 567 q 231 485 208 467 q 296 522 253 504 q 403 539 339 539 q 513 517 463 539 q 595 444 564 494 q 626 311 626 394 q 601 173 626 233 q 533 71 575 113 q 441 8 490 29 q 344 -14 392 -14 m 344 49 q 438 70 399 49 q 498 139 476 92 q 519 261 519 186 q 506 378 519 335 q 458 442 493 422 q 358 461 424 461 q 262 447 303 461 q 190 408 221 432 q 183 353 186 389 q 179 279 179 317 q 219 111 179 174 q 344 49 258 49 z "},"7":{"ha":610,"x_min":85,"x_max":644,"o":"m 85 0 l 85 46 l 568 789 l 568 804 l 168 804 l 143 696 l 94 696 l 94 900 l 644 900 l 644 804 l 168 0 l 85 0 z "},"8":{"ha":643,"x_min":44,"x_max":599,"o":"m 271 -15 q 147 15 197 -15 q 70 88 96 44 q 44 174 44 132 q 77 290 44 235 q 164 392 110 346 q 281 467 218 438 q 168 586 204 528 q 132 713 132 644 q 152 791 132 754 q 207 856 172 828 q 286 901 242 885 q 378 917 331 917 q 541 869 483 917 q 599 754 599 821 q 572 640 599 690 q 501 552 544 590 q 406 485 457 514 q 504 399 469 436 q 553 324 539 361 q 568 236 568 286 q 552 160 568 203 q 501 77 536 117 q 410 11 467 38 q 271 -15 353 -15 m 304 50 q 433 93 388 50 q 478 221 478 136 q 460 292 478 260 q 406 358 442 324 q 318 439 371 393 q 212 359 249 401 q 161 274 175 317 q 147 192 147 232 q 160 123 147 156 q 208 70 174 90 q 304 50 242 50 m 369 513 q 467 602 426 544 q 508 732 508 660 q 481 821 508 788 q 372 854 454 854 q 261 828 301 854 q 221 732 221 801 q 235 667 221 697 q 281 601 249 636 q 369 513 314 565 z "},"9":{"ha":679,"x_min":65,"x_max":638,"o":"m 172 -12 q 113 -9 144 -12 q 65 -1 81 -6 l 71 39 q 129 35 103 35 q 313 79 235 35 q 441 208 392 124 q 508 413 490 293 l 506 414 q 501 408 504 411 q 496 403 499 406 q 440 364 472 379 q 377 342 408 349 q 321 335 346 335 q 198 366 250 335 q 118 453 146 397 q 90 582 90 508 q 114 709 90 649 q 177 816 138 769 q 269 890 217 863 q 376 917 321 917 q 569 829 500 917 q 638 592 638 742 q 602 351 638 461 q 503 160 567 242 q 356 33 440 78 q 172 -12 271 -12 m 363 401 q 438 419 393 401 q 517 471 482 436 q 522 510 521 489 q 524 561 524 532 q 525 629 525 590 q 489 799 525 749 q 364 850 453 850 q 240 782 283 850 q 196 594 196 714 q 215 494 196 538 q 272 426 235 450 q 363 401 310 401 z "},"A":{"ha":706,"x_min":-65,"x_max":678,"o":"m -65 0 l -61 44 l 15 65 l 400 907 l 444 907 l 600 63 l 678 44 l 674 0 l 400 0 l 404 44 l 506 65 l 471 267 l 176 267 l 88 67 l 189 44 l 185 0 l -65 0 m 208 338 l 457 338 l 392 690 l 385 732 l 382 732 l 365 690 l 208 338 z "},"Á":{"ha":706,"x_min":-65,"x_max":678,"o":"m -65 0 l -61 44 l 15 65 l 400 907 l 444 907 l 600 63 l 678 44 l 674 0 l 400 0 l 404 44 l 506 65 l 471 267 l 176 267 l 88 67 l 189 44 l 185 0 l -65 0 m 208 338 l 457 338 l 392 690 l 385 732 l 382 732 l 365 690 l 208 338 m 365 949 l 335 993 l 563 1160 q 597 1131 586 1150 q 608 1096 608 1111 q 589 1052 608 1068 q 538 1022 569 1036 l 365 949 z "},"Ă":{"ha":706,"x_min":-65,"x_max":678,"o":"m -65 0 l -61 44 l 15 65 l 400 907 l 444 907 l 600 63 l 678 44 l 674 0 l 400 0 l 404 44 l 506 65 l 471 267 l 176 267 l 88 67 l 189 44 l 185 0 l -65 0 m 208 338 l 457 338 l 392 690 l 385 732 l 382 732 l 365 690 l 208 338 m 410 971 q 318 992 353 971 q 267 1042 283 1014 q 251 1092 251 1071 q 272 1122 251 1107 q 311 1144 293 1136 q 326 1113 313 1136 q 366 1068 339 1089 q 436 1047 393 1047 q 527 1068 488 1047 q 592 1114 567 1089 q 628 1149 618 1139 l 654 1124 q 548 1012 614 1053 q 410 971 482 971 z "},"Ắ":{"ha":706,"x_min":-65,"x_max":678,"o":"m -65 0 l -61 44 l 15 65 l 400 907 l 444 907 l 600 63 l 678 44 l 674 0 l 400 0 l 404 44 l 506 65 l 471 267 l 176 267 l 88 67 l 189 44 l 185 0 l -65 0 m 208 338 l 457 338 l 392 690 l 385 732 l 382 732 l 365 690 l 208 338 m 390 1131 l 360 1175 l 588 1342 q 622 1313 611 1332 q 633 1278 633 1293 q 614 1234 633 1250 q 563 1204 594 1218 l 390 1131 m 410 971 q 318 992 353 971 q 267 1042 283 1014 q 251 1092 251 1071 q 272 1122 251 1107 q 311 1144 293 1136 q 326 1113 313 1136 q 366 1068 339 1089 q 436 1047 393 1047 q 527 1068 488 1047 q 592 1114 567 1089 q 628 1149 618 1139 l 654 1124 q 548 1012 614 1053 q 410 971 482 971 z "},"Ặ":{"ha":706,"x_min":-65,"x_max":678,"o":"m -65 0 l -61 44 l 15 65 l 400 907 l 444 907 l 600 63 l 678 44 l 674 0 l 400 0 l 404 44 l 506 65 l 471 267 l 176 267 l 88 67 l 189 44 l 185 0 l -65 0 m 208 338 l 457 338 l 392 690 l 385 732 l 382 732 l 365 690 l 208 338 m 293 -254 q 246 -235 264 -254 q 228 -187 228 -215 q 236 -149 228 -168 q 262 -117 244 -129 q 306 -104 279 -104 q 352 -122 333 -104 q 371 -172 371 -140 q 352 -228 371 -203 q 293 -254 333 -254 m 410 971 q 318 992 353 971 q 267 1042 283 1014 q 251 1092 251 1071 q 272 1122 251 1107 q 311 1144 293 1136 q 326 1113 313 1136 q 366 1068 339 1089 q 436 1047 393 1047 q 527 1068 488 1047 q 592 1114 567 1089 q 628 1149 618 1139 l 654 1124 q 548 1012 614 1053 q 410 971 482 971 z "},"Ằ":{"ha":706,"x_min":-65,"x_max":678,"o":"m -65 0 l -61 44 l 15 65 l 400 907 l 444 907 l 600 63 l 678 44 l 674 0 l 400 0 l 404 44 l 506 65 l 471 267 l 176 267 l 88 67 l 189 44 l 185 0 l -65 0 m 208 338 l 457 338 l 392 690 l 385 732 l 382 732 l 365 690 l 208 338 m 549 1128 l 376 1201 q 326 1231 346 1215 q 306 1275 306 1247 q 317 1310 306 1290 q 351 1339 329 1329 l 579 1172 l 549 1128 m 410 971 q 318 992 353 971 q 267 1042 283 1014 q 251 1092 251 1071 q 272 1122 251 1107 q 311 1144 293 1136 q 326 1113 313 1136 q 366 1068 339 1089 q 436 1047 393 1047 q 527 1068 488 1047 q 592 1114 567 1089 q 628 1149 618 1139 l 654 1124 q 548 1012 614 1053 q 410 971 482 971 z "},"Ẳ":{"ha":706,"x_min":-65,"x_max":678,"o":"m -65 0 l -61 44 l 15 65 l 400 907 l 444 907 l 600 63 l 678 44 l 674 0 l 400 0 l 404 44 l 506 65 l 471 267 l 176 267 l 88 67 l 189 44 l 185 0 l -65 0 m 208 338 l 457 338 l 392 690 l 385 732 l 382 732 l 365 690 l 208 338 m 397 1118 q 395 1128 396 1124 q 394 1139 394 1133 q 409 1169 394 1156 q 454 1193 424 1183 q 500 1219 488 1206 q 513 1246 513 1233 q 497 1263 513 1256 q 444 1271 482 1271 q 401 1268 426 1271 q 354 1260 376 1265 q 349 1281 350 1271 q 347 1297 347 1292 q 363 1326 347 1310 q 432 1342 379 1342 q 555 1321 510 1342 q 600 1258 600 1300 q 577 1195 600 1222 q 506 1154 554 1168 q 471 1136 478 1146 q 463 1118 464 1126 l 397 1118 m 410 971 q 318 992 353 971 q 267 1042 283 1014 q 251 1092 251 1071 q 272 1122 251 1107 q 311 1144 293 1136 q 326 1113 313 1136 q 366 1068 339 1089 q 436 1047 393 1047 q 527 1068 488 1047 q 592 1114 567 1089 q 628 1149 618 1139 l 654 1124 q 548 1012 614 1053 q 410 971 482 971 z "},"Ẵ":{"ha":706,"x_min":-65,"x_max":696,"o":"m 576 1163 q 526 1173 557 1163 q 468 1193 494 1183 l 361 1229 l 278 1169 l 247 1204 l 294 1271 q 327 1305 310 1292 q 368 1318 344 1318 q 418 1308 386 1318 q 476 1288 450 1297 l 581 1250 l 665 1311 l 696 1275 l 649 1208 q 617 1176 635 1189 q 576 1163 600 1163 m -65 0 l -61 44 l 15 65 l 400 907 l 444 907 l 600 63 l 678 44 l 674 0 l 400 0 l 404 44 l 506 65 l 471 267 l 176 267 l 88 67 l 189 44 l 185 0 l -65 0 m 208 338 l 457 338 l 392 690 l 385 732 l 382 732 l 365 690 l 208 338 m 417 971 q 325 992 360 971 q 274 1042 290 1014 q 258 1092 258 1071 q 279 1122 258 1107 q 318 1144 300 1136 q 333 1113 319 1136 q 373 1068 346 1089 q 443 1047 400 1047 q 534 1068 494 1047 q 599 1114 574 1089 q 635 1149 625 1139 l 661 1124 q 555 1012 621 1053 q 417 971 489 971 z "},"Ǎ":{"ha":706,"x_min":-65,"x_max":678,"o":"m -65 0 l -61 44 l 15 65 l 400 907 l 444 907 l 600 63 l 678 44 l 674 0 l 400 0 l 404 44 l 506 65 l 471 267 l 176 267 l 88 67 l 189 44 l 185 0 l -65 0 m 208 338 l 457 338 l 392 690 l 385 732 l 382 732 l 365 690 l 208 338 m 424 961 q 399 977 417 961 q 363 1010 381 993 q 340 1033 346 1028 l 274 1108 l 324 1158 l 442 1060 l 589 1164 l 621 1121 l 535 1040 q 474 987 496 1004 q 440 965 451 969 q 424 961 429 961 z "},"Â":{"ha":706,"x_min":-65,"x_max":678,"o":"m -65 0 l -61 44 l 15 65 l 400 907 l 444 907 l 600 63 l 678 44 l 674 0 l 400 0 l 404 44 l 506 65 l 471 267 l 176 267 l 88 67 l 189 44 l 185 0 l -65 0 m 208 338 l 457 338 l 392 690 l 385 732 l 382 732 l 365 690 l 208 338 m 565 961 l 425 1057 l 275 971 l 242 1015 l 340 1089 q 403 1135 383 1121 q 430 1153 422 1149 q 440 1157 438 1157 q 467 1141 447 1157 q 508 1108 488 1125 q 535 1085 529 1090 l 610 1017 l 565 961 z "},"Ấ":{"ha":706,"x_min":-65,"x_max":764,"o":"m -65 0 l -61 44 l 15 65 l 400 907 l 444 907 l 600 63 l 678 44 l 674 0 l 400 0 l 404 44 l 506 65 l 471 267 l 176 267 l 88 67 l 189 44 l 185 0 l -65 0 m 208 338 l 457 338 l 392 690 l 385 732 l 382 732 l 365 690 l 208 338 m 521 1121 l 490 1165 l 718 1332 q 753 1303 742 1322 q 764 1268 764 1283 q 744 1224 764 1240 q 693 1194 725 1208 l 521 1121 m 572 961 l 432 1057 l 282 971 l 249 1015 l 347 1089 q 410 1135 390 1121 q 437 1153 429 1149 q 447 1157 444 1157 q 474 1141 454 1157 q 515 1108 494 1125 q 542 1085 536 1090 l 617 1017 l 572 961 z "},"Ậ":{"ha":706,"x_min":-65,"x_max":678,"o":"m -65 0 l -61 44 l 15 65 l 400 907 l 444 907 l 600 63 l 678 44 l 674 0 l 400 0 l 404 44 l 506 65 l 471 267 l 176 267 l 88 67 l 189 44 l 185 0 l -65 0 m 208 338 l 457 338 l 392 690 l 385 732 l 382 732 l 365 690 l 208 338 m 293 -254 q 246 -235 264 -254 q 228 -187 228 -215 q 236 -149 228 -168 q 262 -117 244 -129 q 306 -104 279 -104 q 352 -122 333 -104 q 371 -172 371 -140 q 352 -228 371 -203 q 293 -254 333 -254 m 565 961 l 425 1057 l 275 971 l 242 1015 l 340 1089 q 403 1135 383 1121 q 430 1153 422 1149 q 440 1157 438 1157 q 467 1141 447 1157 q 508 1108 488 1125 q 535 1085 529 1090 l 610 1017 l 565 961 z "},"Ầ":{"ha":706,"x_min":-65,"x_max":678,"o":"m -65 0 l -61 44 l 15 65 l 400 907 l 444 907 l 600 63 l 678 44 l 674 0 l 400 0 l 404 44 l 506 65 l 471 267 l 176 267 l 88 67 l 189 44 l 185 0 l -65 0 m 208 338 l 457 338 l 392 690 l 385 732 l 382 732 l 365 690 l 208 338 m 643 1121 l 471 1194 q 420 1224 440 1208 q 400 1268 400 1240 q 412 1303 400 1283 q 446 1332 424 1322 l 674 1165 l 643 1121 m 572 961 l 432 1057 l 282 971 l 249 1015 l 347 1089 q 410 1135 390 1121 q 437 1153 429 1149 q 447 1157 444 1157 q 474 1141 454 1157 q 515 1108 494 1125 q 542 1085 536 1090 l 617 1017 l 572 961 z "},"Ẩ":{"ha":706,"x_min":-65,"x_max":768,"o":"m -65 0 l -61 44 l 15 65 l 400 907 l 444 907 l 600 63 l 678 44 l 674 0 l 400 0 l 404 44 l 506 65 l 471 267 l 176 267 l 88 67 l 189 44 l 185 0 l -65 0 m 208 338 l 457 338 l 392 690 l 385 732 l 382 732 l 365 690 l 208 338 m 565 1097 q 563 1108 564 1103 q 563 1118 563 1113 q 577 1149 563 1135 q 622 1172 592 1163 q 668 1199 656 1185 q 681 1225 681 1213 q 665 1242 681 1235 q 613 1250 650 1250 q 569 1247 594 1250 q 522 1239 544 1244 q 517 1260 518 1250 q 515 1276 515 1271 q 531 1305 515 1289 q 600 1321 547 1321 q 723 1300 678 1321 q 768 1238 768 1279 q 745 1174 768 1201 q 674 1133 722 1147 q 639 1115 646 1125 q 631 1097 632 1106 l 565 1097 m 572 961 l 432 1057 l 282 971 l 249 1015 l 347 1089 q 410 1135 390 1121 q 437 1153 429 1149 q 447 1157 444 1157 q 474 1141 454 1157 q 515 1108 494 1125 q 542 1085 536 1090 l 617 1017 l 572 961 z "},"Ẫ":{"ha":706,"x_min":-65,"x_max":699,"o":"m 579 1188 q 528 1198 560 1188 q 471 1218 497 1208 l 364 1254 l 281 1194 l 250 1229 l 297 1296 q 330 1330 313 1317 q 371 1343 347 1343 q 421 1333 389 1343 q 479 1313 453 1322 l 583 1275 l 668 1336 l 699 1300 l 651 1233 q 620 1201 638 1214 q 579 1188 603 1188 m -65 0 l -61 44 l 15 65 l 400 907 l 444 907 l 600 63 l 678 44 l 674 0 l 400 0 l 404 44 l 506 65 l 471 267 l 176 267 l 88 67 l 189 44 l 185 0 l -65 0 m 208 338 l 457 338 l 392 690 l 385 732 l 382 732 l 365 690 l 208 338 m 578 961 l 438 1057 l 288 971 l 254 1015 l 353 1089 q 415 1135 396 1121 q 442 1153 435 1149 q 453 1157 450 1157 q 480 1141 460 1157 q 521 1108 500 1125 q 547 1085 542 1090 l 622 1017 l 578 961 z "},"Ȁ":{"ha":706,"x_min":-65,"x_max":678,"o":"m 317 944 l 257 1013 q 220 1063 233 1040 q 213 1100 207 1085 q 222 1122 215 1111 q 244 1143 229 1133 q 289 1158 260 1153 l 361 975 l 317 944 m 518 944 l 458 1013 q 422 1063 435 1040 q 414 1100 408 1085 q 424 1122 417 1111 q 446 1143 431 1133 q 490 1158 461 1153 l 563 975 l 518 944 m -65 0 l -61 44 l 15 65 l 400 907 l 444 907 l 600 63 l 678 44 l 674 0 l 400 0 l 404 44 l 506 65 l 471 267 l 176 267 l 88 67 l 189 44 l 185 0 l -65 0 m 208 338 l 457 338 l 392 690 l 385 732 l 382 732 l 365 690 l 208 338 z "},"Ä":{"ha":706,"x_min":-65,"x_max":678,"o":"m -65 0 l -61 44 l 15 65 l 400 907 l 444 907 l 600 63 l 678 44 l 674 0 l 400 0 l 404 44 l 506 65 l 471 267 l 176 267 l 88 67 l 189 44 l 185 0 l -65 0 m 208 338 l 457 338 l 392 690 l 385 732 l 382 732 l 365 690 l 208 338 m 579 982 q 530 1002 549 982 q 511 1057 511 1022 q 520 1095 511 1078 q 546 1123 529 1113 q 582 1133 563 1133 q 631 1114 614 1133 q 649 1063 649 1094 q 630 1006 649 1029 q 579 982 611 982 m 289 982 q 240 1002 258 982 q 222 1057 222 1022 q 231 1095 222 1078 q 257 1123 240 1113 q 293 1133 274 1133 q 342 1114 325 1133 q 360 1063 360 1094 q 341 1006 360 1029 q 289 982 322 982 z "},"Ạ":{"ha":706,"x_min":-65,"x_max":678,"o":"m -65 0 l -61 44 l 15 65 l 400 907 l 444 907 l 600 63 l 678 44 l 674 0 l 400 0 l 404 44 l 506 65 l 471 267 l 176 267 l 88 67 l 189 44 l 185 0 l -65 0 m 208 338 l 457 338 l 392 690 l 385 732 l 382 732 l 365 690 l 208 338 m 293 -254 q 246 -235 264 -254 q 228 -187 228 -215 q 236 -149 228 -168 q 262 -117 244 -129 q 306 -104 279 -104 q 352 -122 333 -104 q 371 -172 371 -140 q 352 -228 371 -203 q 293 -254 333 -254 z "},"À":{"ha":706,"x_min":-65,"x_max":678,"o":"m -65 0 l -61 44 l 15 65 l 400 907 l 444 907 l 600 63 l 678 44 l 674 0 l 400 0 l 404 44 l 506 65 l 471 267 l 176 267 l 88 67 l 189 44 l 185 0 l -65 0 m 208 338 l 457 338 l 392 690 l 385 732 l 382 732 l 365 690 l 208 338 m 522 949 l 350 1022 q 299 1052 319 1036 q 279 1096 279 1068 q 291 1131 279 1111 q 325 1160 303 1150 l 553 993 l 522 949 z "},"Ả":{"ha":706,"x_min":-65,"x_max":678,"o":"m -65 0 l -61 44 l 15 65 l 400 907 l 444 907 l 600 63 l 678 44 l 674 0 l 400 0 l 404 44 l 506 65 l 471 267 l 176 267 l 88 67 l 189 44 l 185 0 l -65 0 m 208 338 l 457 338 l 392 690 l 385 732 l 382 732 l 365 690 l 208 338 m 397 939 q 395 949 396 944 q 394 960 394 954 q 409 990 394 976 q 454 1014 424 1004 q 500 1040 488 1026 q 513 1067 513 1054 q 497 1084 513 1076 q 444 1092 482 1092 q 401 1089 426 1092 q 354 1081 376 1086 q 349 1102 350 1092 q 347 1118 347 1113 q 363 1147 347 1131 q 432 1163 379 1163 q 555 1142 510 1163 q 600 1079 600 1121 q 577 1016 600 1043 q 506 975 554 989 q 471 957 478 967 q 463 939 464 947 l 397 939 z "},"Ȃ":{"ha":706,"x_min":-65,"x_max":678,"o":"m 490 1149 q 582 1127 547 1149 q 633 1077 617 1106 q 649 1028 649 1049 q 628 998 649 1013 q 589 975 607 983 q 574 1008 588 985 q 535 1051 561 1031 q 464 1072 508 1072 q 373 1051 413 1072 q 308 1006 333 1031 q 272 971 282 982 l 246 996 q 352 1108 286 1067 q 490 1149 418 1149 m -65 0 l -61 44 l 15 65 l 400 907 l 444 907 l 600 63 l 678 44 l 674 0 l 400 0 l 404 44 l 506 65 l 471 267 l 176 267 l 88 67 l 189 44 l 185 0 l -65 0 m 208 338 l 457 338 l 392 690 l 385 732 l 382 732 l 365 690 l 208 338 z "},"Ā":{"ha":706,"x_min":-65,"x_max":678,"o":"m -65 0 l -61 44 l 15 65 l 400 907 l 444 907 l 600 63 l 678 44 l 674 0 l 400 0 l 404 44 l 506 65 l 471 267 l 176 267 l 88 67 l 189 44 l 185 0 l -65 0 m 208 338 l 457 338 l 392 690 l 385 732 l 382 732 l 365 690 l 208 338 m 253 1000 l 264 1081 l 633 1081 l 624 1000 l 253 1000 z "},"Ą":{"ha":706,"x_min":-65,"x_max":678,"o":"m -65 0 l -61 44 l 15 65 l 400 907 l 444 907 l 600 63 l 678 44 l 674 0 l 400 0 l 404 44 l 506 65 l 471 267 l 176 267 l 88 67 l 189 44 l 185 0 l -65 0 m 208 338 l 457 338 l 392 690 l 385 732 l 382 732 l 365 690 l 208 338 m 524 -243 q 456 -226 485 -243 q 426 -158 426 -210 q 442 -91 426 -124 q 489 -30 458 -58 q 563 18 519 -1 l 610 18 q 576 -6 594 10 q 542 -40 558 -21 q 517 -83 526 -60 q 507 -129 507 -106 q 523 -167 507 -156 q 561 -178 539 -178 q 607 -169 583 -178 q 649 -150 631 -161 l 668 -179 q 646 -198 665 -182 q 594 -228 626 -214 q 524 -243 563 -243 z "},"Å":{"ha":706,"x_min":-65,"x_max":678,"o":"m -65 0 l -61 44 l 15 65 l 400 907 l 444 907 l 600 63 l 678 44 l 674 0 l 400 0 l 404 44 l 506 65 l 471 267 l 176 267 l 88 67 l 189 44 l 185 0 l -65 0 m 208 338 l 457 338 l 392 690 l 385 732 l 382 732 l 365 690 l 208 338 m 425 922 q 345 951 374 922 q 317 1018 317 979 q 331 1088 317 1057 q 375 1136 346 1118 q 444 1154 404 1154 q 527 1126 500 1154 q 554 1061 554 1099 q 539 992 554 1024 q 494 941 524 960 q 425 922 465 922 m 442 974 q 486 997 474 974 q 499 1057 499 1021 q 483 1093 499 1083 q 433 1103 468 1103 q 385 1082 399 1103 q 372 1025 372 1061 q 388 985 372 997 q 442 974 403 974 z "},"Ǻ":{"ha":706,"x_min":-65,"x_max":678,"o":"m -65 0 l -61 44 l 15 65 l 400 907 l 444 907 l 600 63 l 678 44 l 674 0 l 400 0 l 404 44 l 506 65 l 471 267 l 176 267 l 88 67 l 189 44 l 185 0 l -65 0 m 208 338 l 457 338 l 392 690 l 385 732 l 382 732 l 365 690 l 208 338 m 425 922 q 345 951 374 922 q 317 1018 317 979 q 331 1088 317 1057 q 375 1136 346 1118 q 444 1154 404 1154 q 527 1126 500 1154 q 554 1061 554 1099 q 539 992 554 1024 q 494 941 524 960 q 425 922 465 922 m 442 974 q 486 997 474 974 q 499 1057 499 1021 q 483 1093 499 1083 q 433 1103 468 1103 q 385 1082 399 1103 q 372 1025 372 1061 q 388 985 372 997 q 442 974 403 974 m 383 1194 l 353 1239 l 581 1406 q 615 1376 604 1396 q 626 1342 626 1357 q 607 1298 626 1314 q 556 1268 588 1282 l 383 1194 z "},"Ã":{"ha":706,"x_min":-65,"x_max":678,"o":"m -65 0 l -61 44 l 15 65 l 400 907 l 444 907 l 600 63 l 678 44 l 674 0 l 400 0 l 404 44 l 506 65 l 471 267 l 176 267 l 88 67 l 189 44 l 185 0 l -65 0 m 208 338 l 457 338 l 392 690 l 385 732 l 382 732 l 365 690 l 208 338 m 551 985 q 501 995 532 985 q 443 1014 469 1006 l 336 1049 l 253 992 l 222 1025 l 269 1089 q 302 1121 285 1108 q 343 1133 319 1133 q 393 1124 361 1133 q 451 1104 425 1114 l 556 1069 l 640 1128 l 671 1093 l 624 1029 q 592 998 610 1011 q 551 985 575 985 z "},"Æ":{"ha":933,"x_min":-147,"x_max":963,"o":"m -147 0 l -140 44 l -65 65 l 499 900 l 963 900 l 936 692 l 872 692 l 872 843 l 735 843 l 617 838 l 561 446 l 749 446 l 778 526 l 819 526 l 792 311 l 749 311 l 740 392 l 554 392 l 506 63 q 560 58 522 60 q 639 56 599 56 l 783 56 l 836 203 l 888 203 l 863 0 l 314 0 l 317 44 l 415 64 l 461 392 l 233 392 l 29 94 l 29 67 l 121 44 l 117 0 l -147 0 m 267 446 l 469 446 l 526 833 l 521 833 l 267 446 z "},"Ǽ":{"ha":933,"x_min":-147,"x_max":963,"o":"m -147 0 l -140 44 l -65 65 l 499 900 l 963 900 l 936 692 l 872 692 l 872 843 l 735 843 l 617 838 l 561 446 l 749 446 l 778 526 l 819 526 l 792 311 l 749 311 l 740 392 l 554 392 l 506 63 q 560 58 522 60 q 639 56 599 56 l 783 56 l 836 203 l 888 203 l 863 0 l 314 0 l 317 44 l 415 64 l 461 392 l 233 392 l 29 94 l 29 67 l 121 44 l 117 0 l -147 0 m 267 446 l 469 446 l 526 833 l 521 833 l 267 446 m 582 949 l 551 993 l 779 1160 q 814 1131 803 1150 q 825 1096 825 1111 q 806 1052 825 1068 q 754 1022 786 1036 l 582 949 z "},"B":{"ha":722,"x_min":38,"x_max":675,"o":"m 38 0 l 40 44 l 139 64 l 249 836 l 154 856 l 158 900 l 394 900 q 608 851 542 900 q 675 717 675 801 q 650 603 675 656 q 581 515 625 550 q 481 467 538 479 q 605 401 557 457 q 653 272 653 346 q 566 69 653 138 q 311 0 479 0 l 38 0 m 324 57 q 499 110 439 57 q 558 264 558 163 q 489 395 558 354 q 285 436 419 436 l 232 64 q 271 60 244 63 q 324 57 297 57 m 292 485 q 507 542 433 485 q 581 713 581 600 q 532 815 581 786 q 404 844 483 844 q 367 842 383 844 q 340 836 351 839 l 292 485 z "},"C":{"ha":747,"x_min":81,"x_max":733,"o":"m 404 -15 q 209 28 279 -15 q 110 152 139 72 q 81 339 81 232 q 115 571 81 465 q 208 754 149 676 q 349 874 268 832 q 524 917 431 917 q 654 906 601 917 q 733 889 707 896 l 704 694 l 656 694 l 644 826 q 590 842 631 833 q 510 850 550 850 q 335 790 407 850 q 226 618 264 731 q 189 347 189 506 q 237 128 189 207 q 411 50 285 50 q 522 67 485 50 q 572 93 560 85 l 614 219 l 664 219 l 644 44 q 553 7 615 29 q 404 -15 490 -15 z "},"Ć":{"ha":747,"x_min":81,"x_max":733,"o":"m 404 -15 q 209 28 279 -15 q 110 152 139 72 q 81 339 81 232 q 115 571 81 465 q 208 754 149 676 q 349 874 268 832 q 524 917 431 917 q 654 906 601 917 q 733 889 707 896 l 704 694 l 656 694 l 644 826 q 590 842 631 833 q 510 850 550 850 q 335 790 407 850 q 226 618 264 731 q 189 347 189 506 q 237 128 189 207 q 411 50 285 50 q 522 67 485 50 q 572 93 560 85 l 614 219 l 664 219 l 644 44 q 553 7 615 29 q 404 -15 490 -15 m 454 949 l 424 993 l 651 1160 q 686 1131 675 1150 q 697 1096 697 1111 q 678 1052 697 1068 q 626 1022 658 1036 l 454 949 z "},"Č":{"ha":747,"x_min":81,"x_max":733,"o":"m 404 -15 q 209 28 279 -15 q 110 152 139 72 q 81 339 81 232 q 115 571 81 465 q 208 754 149 676 q 349 874 268 832 q 524 917 431 917 q 654 906 601 917 q 733 889 707 896 l 704 694 l 656 694 l 644 826 q 590 842 631 833 q 510 850 550 850 q 335 790 407 850 q 226 618 264 731 q 189 347 189 506 q 237 128 189 207 q 411 50 285 50 q 522 67 485 50 q 572 93 560 85 l 614 219 l 664 219 l 644 44 q 553 7 615 29 q 404 -15 490 -15 m 513 961 q 488 977 506 961 q 452 1010 469 993 q 429 1033 435 1028 l 363 1108 l 413 1158 l 531 1060 l 678 1164 l 710 1121 l 624 1040 q 563 987 585 1004 q 529 965 540 969 q 513 961 518 961 z "},"Ç":{"ha":747,"x_min":81,"x_max":733,"o":"m 404 -15 q 209 28 279 -15 q 110 152 139 72 q 81 339 81 232 q 115 571 81 465 q 208 754 149 676 q 349 874 268 832 q 524 917 431 917 q 654 906 601 917 q 733 889 707 896 l 704 694 l 656 694 l 644 826 q 590 842 631 833 q 510 850 550 850 q 335 790 407 850 q 226 618 264 731 q 189 347 189 506 q 237 128 189 207 q 411 50 285 50 q 522 67 485 50 q 572 93 560 85 l 614 219 l 664 219 l 644 44 q 553 7 615 29 q 404 -15 490 -15 m 350 -257 q 274 -243 303 -257 q 231 -217 246 -229 l 257 -182 q 297 -200 272 -193 q 344 -207 322 -207 q 388 -197 369 -207 q 406 -165 406 -187 q 394 -140 406 -150 q 363 -121 383 -131 l 299 -87 l 299 -68 l 350 0 l 404 0 l 382 -46 l 418 -62 q 468 -97 450 -76 q 486 -146 486 -118 q 448 -226 486 -196 q 350 -257 410 -257 z "},"Ĉ":{"ha":747,"x_min":81,"x_max":733,"o":"m 404 -15 q 209 28 279 -15 q 110 152 139 72 q 81 339 81 232 q 115 571 81 465 q 208 754 149 676 q 349 874 268 832 q 524 917 431 917 q 654 906 601 917 q 733 889 707 896 l 704 694 l 656 694 l 644 826 q 590 842 631 833 q 510 850 550 850 q 335 790 407 850 q 226 618 264 731 q 189 347 189 506 q 237 128 189 207 q 411 50 285 50 q 522 67 485 50 q 572 93 560 85 l 614 219 l 664 219 l 644 44 q 553 7 615 29 q 404 -15 490 -15 m 654 961 l 514 1057 l 364 971 l 331 1015 l 429 1089 q 492 1135 472 1121 q 519 1153 511 1149 q 529 1157 526 1157 q 556 1141 536 1157 q 597 1108 576 1125 q 624 1085 618 1090 l 699 1017 l 654 961 z "},"Ċ":{"ha":747,"x_min":81,"x_max":733,"o":"m 404 -15 q 209 28 279 -15 q 110 152 139 72 q 81 339 81 232 q 115 571 81 465 q 208 754 149 676 q 349 874 268 832 q 524 917 431 917 q 654 906 601 917 q 733 889 707 896 l 704 694 l 656 694 l 644 826 q 590 842 631 833 q 510 850 550 850 q 335 790 407 850 q 226 618 264 731 q 189 347 189 506 q 237 128 189 207 q 411 50 285 50 q 522 67 485 50 q 572 93 560 85 l 614 219 l 664 219 l 644 44 q 553 7 615 29 q 404 -15 490 -15 m 528 976 q 479 997 497 976 q 461 1044 461 1017 q 469 1085 461 1065 q 495 1117 478 1104 q 539 1131 513 1131 q 588 1111 569 1131 q 607 1060 607 1092 q 588 1003 607 1029 q 528 976 568 976 z "},"D":{"ha":869,"x_min":36,"x_max":821,"o":"m 36 0 l 40 44 l 139 64 l 249 836 l 154 856 l 158 900 l 467 900 q 728 811 635 900 q 821 564 821 722 q 759 265 821 392 q 585 69 697 138 q 321 0 472 0 l 36 0 m 343 56 q 510 94 439 56 q 627 200 581 132 q 696 358 674 268 q 718 549 718 447 q 647 771 718 700 q 435 842 575 842 q 374 840 400 842 q 340 835 347 838 l 231 65 q 286 58 253 61 q 343 56 319 56 z "},"Ǳ":{"ha":1546,"x_min":36,"x_max":1558,"o":"m 36 0 l 40 44 l 139 64 l 249 836 l 154 856 l 158 900 l 467 900 q 728 811 635 900 q 821 564 821 722 q 759 265 821 392 q 585 69 697 138 q 321 0 472 0 l 36 0 m 343 56 q 510 94 439 56 q 627 200 581 132 q 696 358 674 268 q 718 549 718 447 q 647 771 718 700 q 435 842 575 842 q 374 840 400 842 q 340 835 347 838 l 231 65 q 286 58 253 61 q 343 56 319 56 m 885 0 l 863 57 l 1435 826 l 1428 840 l 1081 840 l 1025 697 l 969 697 l 999 900 l 1528 900 l 1558 847 l 979 69 l 986 56 l 1368 56 l 1425 197 l 1481 197 l 1454 0 l 885 0 z "},"Ǆ":{"ha":1538,"x_min":36,"x_max":1550,"o":"m 36 0 l 40 44 l 139 64 l 249 836 l 154 856 l 158 900 l 467 900 q 728 811 635 900 q 821 564 821 722 q 759 265 821 392 q 585 69 697 138 q 321 0 472 0 l 36 0 m 343 56 q 510 94 439 56 q 627 200 581 132 q 696 358 674 268 q 718 549 718 447 q 647 771 718 700 q 435 842 575 842 q 374 840 400 842 q 340 835 347 838 l 231 65 q 286 58 253 61 q 343 56 319 56 m 876 0 l 854 57 l 1426 826 l 1419 840 l 1072 840 l 1017 697 l 961 697 l 990 900 l 1519 900 l 1550 847 l 971 69 l 978 56 l 1360 56 l 1417 197 l 1472 197 l 1446 0 l 876 0 m 1268 961 q 1243 977 1261 961 q 1208 1010 1225 993 q 1185 1033 1190 1028 l 1118 1108 l 1168 1158 l 1286 1060 l 1433 1164 l 1465 1121 l 1379 1040 q 1318 987 1340 1004 q 1285 965 1296 969 q 1268 961 1274 961 z "},"Ð":{"ha":869,"x_min":36,"x_max":821,"o":"m 36 0 l 40 44 l 139 64 l 249 836 l 154 856 l 158 900 l 467 900 q 728 811 635 900 q 821 564 821 722 q 759 265 821 392 q 585 69 697 138 q 321 0 472 0 l 36 0 m 343 56 q 510 94 439 56 q 627 200 581 132 q 696 358 674 268 q 718 549 718 447 q 647 771 718 700 q 435 842 575 842 q 374 840 400 842 q 340 835 347 838 l 231 65 q 286 58 253 61 q 343 56 319 56 m 94 428 l 106 500 l 529 500 l 518 428 l 94 428 z "},"Ď":{"ha":869,"x_min":36,"x_max":821,"o":"m 36 0 l 40 44 l 139 64 l 249 836 l 154 856 l 158 900 l 467 900 q 728 811 635 900 q 821 564 821 722 q 759 265 821 392 q 585 69 697 138 q 321 0 472 0 l 36 0 m 343 56 q 510 94 439 56 q 627 200 581 132 q 696 358 674 268 q 718 549 718 447 q 647 771 718 700 q 435 842 575 842 q 374 840 400 842 q 340 835 347 838 l 231 65 q 286 58 253 61 q 343 56 319 56 m 517 961 q 492 977 510 961 q 456 1010 474 993 q 433 1033 439 1028 l 367 1108 l 417 1158 l 535 1060 l 682 1164 l 714 1121 l 628 1040 q 567 987 589 1004 q 533 965 544 969 q 517 961 522 961 z "},"Đ":{"ha":869,"x_min":36,"x_max":821,"o":"m 36 0 l 40 44 l 139 64 l 249 836 l 154 856 l 158 900 l 467 900 q 728 811 635 900 q 821 564 821 722 q 759 265 821 392 q 585 69 697 138 q 321 0 472 0 l 36 0 m 343 56 q 510 94 439 56 q 627 200 581 132 q 696 358 674 268 q 718 549 718 447 q 647 771 718 700 q 435 842 575 842 q 374 840 400 842 q 340 835 347 838 l 231 65 q 286 58 253 61 q 343 56 319 56 m 94 428 l 106 500 l 529 500 l 518 428 l 94 428 z "},"Ḍ":{"ha":869,"x_min":36,"x_max":821,"o":"m 36 0 l 40 44 l 139 64 l 249 836 l 154 856 l 158 900 l 467 900 q 728 811 635 900 q 821 564 821 722 q 759 265 821 392 q 585 69 697 138 q 321 0 472 0 l 36 0 m 343 56 q 510 94 439 56 q 627 200 581 132 q 696 358 674 268 q 718 549 718 447 q 647 771 718 700 q 435 842 575 842 q 374 840 400 842 q 340 835 347 838 l 231 65 q 286 58 253 61 q 343 56 319 56 m 381 -254 q 333 -235 351 -254 q 315 -187 315 -215 q 324 -149 315 -168 q 349 -117 332 -129 q 393 -104 367 -104 q 440 -122 421 -104 q 458 -172 458 -140 q 440 -228 458 -203 q 381 -254 421 -254 z "},"ǲ":{"ha":1417,"x_min":36,"x_max":1444,"o":"m 36 0 l 40 44 l 139 64 l 249 836 l 154 856 l 158 900 l 467 900 q 728 811 635 900 q 821 564 821 722 q 759 265 821 392 q 585 69 697 138 q 321 0 472 0 l 36 0 m 343 56 q 510 94 439 56 q 627 200 581 132 q 696 358 674 268 q 718 549 718 447 q 647 771 718 700 q 435 842 575 842 q 374 840 400 842 q 340 835 347 838 l 231 65 q 286 58 253 61 q 343 56 319 56 m 1251 -12 q 1207 -8 1235 -12 q 1154 1 1179 -4 q 1115 8 1129 6 l 950 40 l 879 -10 l 846 22 l 1263 572 l 1263 586 l 1043 654 l 1006 514 l 965 514 q 950 544 963 518 q 938 619 938 571 q 968 692 938 672 q 1043 713 999 713 q 1113 706 1079 713 q 1189 689 1146 700 l 1336 654 l 1413 711 l 1444 685 l 1019 121 l 1019 107 l 1260 47 l 1299 188 l 1339 188 q 1355 158 1342 183 q 1368 83 1368 132 q 1352 27 1368 49 q 1310 -3 1336 6 q 1251 -12 1283 -12 z "},"ǅ":{"ha":1417,"x_min":36,"x_max":1444,"o":"m 36 0 l 40 44 l 139 64 l 249 836 l 154 856 l 158 900 l 467 900 q 728 811 635 900 q 821 564 821 722 q 759 265 821 392 q 585 69 697 138 q 321 0 472 0 l 36 0 m 343 56 q 510 94 439 56 q 627 200 581 132 q 696 358 674 268 q 718 549 718 447 q 647 771 718 700 q 435 842 575 842 q 374 840 400 842 q 340 835 347 838 l 231 65 q 286 58 253 61 q 343 56 319 56 m 1251 -12 q 1207 -8 1235 -12 q 1154 1 1179 -4 q 1115 8 1129 6 l 950 40 l 879 -10 l 846 22 l 1263 572 l 1263 586 l 1043 654 l 1006 514 l 965 514 q 950 544 963 518 q 938 619 938 571 q 968 692 938 672 q 1043 713 999 713 q 1113 706 1079 713 q 1189 689 1146 700 l 1336 654 l 1413 711 l 1444 685 l 1019 121 l 1019 107 l 1260 47 l 1299 188 l 1339 188 q 1355 158 1342 183 q 1368 83 1368 132 q 1352 27 1368 49 q 1310 -3 1336 6 q 1251 -12 1283 -12 m 1215 758 q 1197 769 1207 758 q 1169 801 1186 781 l 1061 939 l 1099 972 l 1231 854 l 1399 972 l 1424 939 l 1283 810 q 1235 768 1249 778 q 1215 758 1222 758 z "},"E":{"ha":714,"x_min":38,"x_max":686,"o":"m 38 0 l 40 44 l 139 64 l 249 836 l 154 856 l 158 900 l 686 900 l 660 692 l 599 692 l 599 843 l 458 843 l 340 838 l 292 496 l 479 496 l 508 575 l 550 575 l 522 361 l 479 361 l 471 440 l 285 440 l 231 64 q 307 58 269 60 q 363 57 344 57 l 510 57 l 563 203 l 611 203 l 586 0 l 38 0 z "},"É":{"ha":714,"x_min":38,"x_max":686,"o":"m 38 0 l 40 44 l 139 64 l 249 836 l 154 856 l 158 900 l 686 900 l 660 692 l 599 692 l 599 843 l 458 843 l 340 838 l 292 496 l 479 496 l 508 575 l 550 575 l 522 361 l 479 361 l 471 440 l 285 440 l 231 64 q 307 58 269 60 q 363 57 344 57 l 510 57 l 563 203 l 611 203 l 586 0 l 38 0 m 394 949 l 364 993 l 592 1160 q 626 1131 615 1150 q 638 1096 638 1111 q 618 1052 638 1068 q 567 1022 599 1036 l 394 949 z "},"Ĕ":{"ha":714,"x_min":38,"x_max":686,"o":"m 38 0 l 40 44 l 139 64 l 249 836 l 154 856 l 158 900 l 686 900 l 660 692 l 599 692 l 599 843 l 458 843 l 340 838 l 292 496 l 479 496 l 508 575 l 550 575 l 522 361 l 479 361 l 471 440 l 285 440 l 231 64 q 307 58 269 60 q 363 57 344 57 l 510 57 l 563 203 l 611 203 l 586 0 l 38 0 m 439 971 q 347 992 382 971 q 297 1042 313 1014 q 281 1092 281 1071 q 301 1122 281 1107 q 340 1144 322 1136 q 355 1113 342 1136 q 395 1068 368 1089 q 465 1047 422 1047 q 556 1068 517 1047 q 622 1114 596 1089 q 657 1149 647 1139 l 683 1124 q 577 1012 643 1053 q 439 971 511 971 z "},"Ě":{"ha":714,"x_min":38,"x_max":686,"o":"m 38 0 l 40 44 l 139 64 l 249 836 l 154 856 l 158 900 l 686 900 l 660 692 l 599 692 l 599 843 l 458 843 l 340 838 l 292 496 l 479 496 l 508 575 l 550 575 l 522 361 l 479 361 l 471 440 l 285 440 l 231 64 q 307 58 269 60 q 363 57 344 57 l 510 57 l 563 203 l 611 203 l 586 0 l 38 0 m 453 961 q 428 977 446 961 q 392 1010 410 993 q 369 1033 375 1028 l 303 1108 l 353 1158 l 471 1060 l 618 1164 l 650 1121 l 564 1040 q 503 987 525 1004 q 469 965 481 969 q 453 961 458 961 z "},"Ê":{"ha":714,"x_min":38,"x_max":686,"o":"m 38 0 l 40 44 l 139 64 l 249 836 l 154 856 l 158 900 l 686 900 l 660 692 l 599 692 l 599 843 l 458 843 l 340 838 l 292 496 l 479 496 l 508 575 l 550 575 l 522 361 l 479 361 l 471 440 l 285 440 l 231 64 q 307 58 269 60 q 363 57 344 57 l 510 57 l 563 203 l 611 203 l 586 0 l 38 0 m 594 961 l 454 1057 l 304 971 l 271 1015 l 369 1089 q 432 1135 413 1121 q 459 1153 451 1149 q 469 1157 467 1157 q 497 1141 476 1157 q 538 1108 517 1125 q 564 1085 558 1090 l 639 1017 l 594 961 z "},"Ế":{"ha":714,"x_min":38,"x_max":793,"o":"m 38 0 l 40 44 l 139 64 l 249 836 l 154 856 l 158 900 l 686 900 l 660 692 l 599 692 l 599 843 l 458 843 l 340 838 l 292 496 l 479 496 l 508 575 l 550 575 l 522 361 l 479 361 l 471 440 l 285 440 l 231 64 q 307 58 269 60 q 363 57 344 57 l 510 57 l 563 203 l 611 203 l 586 0 l 38 0 m 550 1121 l 519 1165 l 747 1332 q 782 1303 771 1322 q 793 1268 793 1283 q 774 1224 793 1240 q 722 1194 754 1208 l 550 1121 m 601 961 l 461 1057 l 311 971 l 278 1015 l 376 1089 q 439 1135 419 1121 q 466 1153 458 1149 q 476 1157 474 1157 q 503 1141 483 1157 q 544 1108 524 1125 q 571 1085 565 1090 l 646 1017 l 601 961 z "},"Ệ":{"ha":714,"x_min":38,"x_max":686,"o":"m 38 0 l 40 44 l 139 64 l 249 836 l 154 856 l 158 900 l 686 900 l 660 692 l 599 692 l 599 843 l 458 843 l 340 838 l 292 496 l 479 496 l 508 575 l 550 575 l 522 361 l 479 361 l 471 440 l 285 440 l 231 64 q 307 58 269 60 q 363 57 344 57 l 510 57 l 563 203 l 611 203 l 586 0 l 38 0 m 335 -254 q 288 -235 306 -254 q 269 -187 269 -215 q 278 -149 269 -168 q 303 -117 286 -129 q 347 -104 321 -104 q 394 -122 375 -104 q 413 -172 413 -140 q 394 -228 413 -203 q 335 -254 375 -254 m 594 961 l 454 1057 l 304 971 l 271 1015 l 369 1089 q 432 1135 413 1121 q 459 1153 451 1149 q 469 1157 467 1157 q 497 1141 476 1157 q 538 1108 517 1125 q 564 1085 558 1090 l 639 1017 l 594 961 z "},"Ề":{"ha":714,"x_min":38,"x_max":703,"o":"m 38 0 l 40 44 l 139 64 l 249 836 l 154 856 l 158 900 l 686 900 l 660 692 l 599 692 l 599 843 l 458 843 l 340 838 l 292 496 l 479 496 l 508 575 l 550 575 l 522 361 l 479 361 l 471 440 l 285 440 l 231 64 q 307 58 269 60 q 363 57 344 57 l 510 57 l 563 203 l 611 203 l 586 0 l 38 0 m 672 1121 l 500 1194 q 449 1224 469 1208 q 429 1268 429 1240 q 441 1303 429 1283 q 475 1332 453 1322 l 703 1165 l 672 1121 m 601 961 l 461 1057 l 311 971 l 278 1015 l 376 1089 q 439 1135 419 1121 q 466 1153 458 1149 q 476 1157 474 1157 q 503 1141 483 1157 q 544 1108 524 1125 q 571 1085 565 1090 l 646 1017 l 601 961 z "},"Ể":{"ha":714,"x_min":38,"x_max":797,"o":"m 38 0 l 40 44 l 139 64 l 249 836 l 154 856 l 158 900 l 686 900 l 660 692 l 599 692 l 599 843 l 458 843 l 340 838 l 292 496 l 479 496 l 508 575 l 550 575 l 522 361 l 479 361 l 471 440 l 285 440 l 231 64 q 307 58 269 60 q 363 57 344 57 l 510 57 l 563 203 l 611 203 l 586 0 l 38 0 m 594 1097 q 592 1108 593 1103 q 592 1118 592 1113 q 606 1149 592 1135 q 651 1172 621 1163 q 697 1199 685 1185 q 710 1225 710 1213 q 694 1242 710 1235 q 642 1250 679 1250 q 599 1247 624 1250 q 551 1239 574 1244 q 546 1260 547 1250 q 544 1276 544 1271 q 560 1305 544 1289 q 629 1321 576 1321 q 752 1300 707 1321 q 797 1238 797 1279 q 774 1174 797 1201 q 703 1133 751 1147 q 668 1115 675 1125 q 660 1097 661 1106 l 594 1097 m 601 961 l 461 1057 l 311 971 l 278 1015 l 376 1089 q 439 1135 419 1121 q 466 1153 458 1149 q 476 1157 474 1157 q 503 1141 483 1157 q 544 1108 524 1125 q 571 1085 565 1090 l 646 1017 l 601 961 z "},"Ễ":{"ha":714,"x_min":38,"x_max":728,"o":"m 608 1188 q 558 1198 589 1188 q 500 1218 526 1208 l 393 1254 l 310 1194 l 279 1229 l 326 1296 q 359 1330 342 1317 q 400 1343 376 1343 q 450 1333 418 1343 q 508 1313 482 1322 l 613 1275 l 697 1336 l 728 1300 l 681 1233 q 649 1201 667 1214 q 608 1188 632 1188 m 38 0 l 40 44 l 139 64 l 249 836 l 154 856 l 158 900 l 686 900 l 660 692 l 599 692 l 599 843 l 458 843 l 340 838 l 292 496 l 479 496 l 508 575 l 550 575 l 522 361 l 479 361 l 471 440 l 285 440 l 231 64 q 307 58 269 60 q 363 57 344 57 l 510 57 l 563 203 l 611 203 l 586 0 l 38 0 m 607 961 l 467 1057 l 317 971 l 283 1015 l 382 1089 q 444 1135 425 1121 q 472 1153 464 1149 q 482 1157 479 1157 q 509 1141 489 1157 q 550 1108 529 1125 q 576 1085 571 1090 l 651 1017 l 607 961 z "},"Ȅ":{"ha":714,"x_min":38,"x_max":686,"o":"m 346 944 l 286 1013 q 249 1063 263 1040 q 242 1100 236 1085 q 251 1122 244 1111 q 274 1143 258 1133 q 318 1158 289 1153 l 390 975 l 346 944 m 547 944 l 488 1013 q 451 1063 464 1040 q 443 1100 438 1085 q 453 1122 446 1111 q 475 1143 460 1133 q 519 1158 490 1153 l 592 975 l 547 944 m 38 0 l 40 44 l 139 64 l 249 836 l 154 856 l 158 900 l 686 900 l 660 692 l 599 692 l 599 843 l 458 843 l 340 838 l 292 496 l 479 496 l 508 575 l 550 575 l 522 361 l 479 361 l 471 440 l 285 440 l 231 64 q 307 58 269 60 q 363 57 344 57 l 510 57 l 563 203 l 611 203 l 586 0 l 38 0 z "},"Ë":{"ha":714,"x_min":38,"x_max":686,"o":"m 38 0 l 40 44 l 139 64 l 249 836 l 154 856 l 158 900 l 686 900 l 660 692 l 599 692 l 599 843 l 458 843 l 340 838 l 292 496 l 479 496 l 508 575 l 550 575 l 522 361 l 479 361 l 471 440 l 285 440 l 231 64 q 307 58 269 60 q 363 57 344 57 l 510 57 l 563 203 l 611 203 l 586 0 l 38 0 m 608 982 q 559 1002 578 982 q 540 1057 540 1022 q 549 1095 540 1078 q 575 1123 558 1113 q 611 1133 592 1133 q 660 1114 643 1133 q 678 1063 678 1094 q 659 1006 678 1029 q 608 982 640 982 m 318 982 q 269 1002 288 982 q 251 1057 251 1022 q 260 1095 251 1078 q 286 1123 269 1113 q 322 1133 303 1133 q 372 1114 354 1133 q 389 1063 389 1094 q 370 1006 389 1029 q 318 982 351 982 z "},"Ė":{"ha":714,"x_min":38,"x_max":686,"o":"m 38 0 l 40 44 l 139 64 l 249 836 l 154 856 l 158 900 l 686 900 l 660 692 l 599 692 l 599 843 l 458 843 l 340 838 l 292 496 l 479 496 l 508 575 l 550 575 l 522 361 l 479 361 l 471 440 l 285 440 l 231 64 q 307 58 269 60 q 363 57 344 57 l 510 57 l 563 203 l 611 203 l 586 0 l 38 0 m 468 976 q 419 997 438 976 q 401 1044 401 1017 q 410 1085 401 1065 q 435 1117 418 1104 q 479 1131 453 1131 q 528 1111 510 1131 q 547 1060 547 1092 q 528 1003 547 1029 q 468 976 508 976 z "},"Ẹ":{"ha":714,"x_min":38,"x_max":686,"o":"m 38 0 l 40 44 l 139 64 l 249 836 l 154 856 l 158 900 l 686 900 l 660 692 l 599 692 l 599 843 l 458 843 l 340 838 l 292 496 l 479 496 l 508 575 l 550 575 l 522 361 l 479 361 l 471 440 l 285 440 l 231 64 q 307 58 269 60 q 363 57 344 57 l 510 57 l 563 203 l 611 203 l 586 0 l 38 0 m 335 -254 q 288 -235 306 -254 q 269 -187 269 -215 q 278 -149 269 -168 q 303 -117 286 -129 q 347 -104 321 -104 q 394 -122 375 -104 q 413 -172 413 -140 q 394 -228 413 -203 q 335 -254 375 -254 z "},"È":{"ha":714,"x_min":38,"x_max":686,"o":"m 38 0 l 40 44 l 139 64 l 249 836 l 154 856 l 158 900 l 686 900 l 660 692 l 599 692 l 599 843 l 458 843 l 340 838 l 292 496 l 479 496 l 508 575 l 550 575 l 522 361 l 479 361 l 471 440 l 285 440 l 231 64 q 307 58 269 60 q 363 57 344 57 l 510 57 l 563 203 l 611 203 l 586 0 l 38 0 m 551 949 l 379 1022 q 328 1052 349 1036 q 308 1096 308 1068 q 320 1131 308 1111 q 354 1160 332 1150 l 582 993 l 551 949 z "},"Ẻ":{"ha":714,"x_min":38,"x_max":686,"o":"m 38 0 l 40 44 l 139 64 l 249 836 l 154 856 l 158 900 l 686 900 l 660 692 l 599 692 l 599 843 l 458 843 l 340 838 l 292 496 l 479 496 l 508 575 l 550 575 l 522 361 l 479 361 l 471 440 l 285 440 l 231 64 q 307 58 269 60 q 363 57 344 57 l 510 57 l 563 203 l 611 203 l 586 0 l 38 0 m 426 939 q 424 949 425 944 q 424 960 424 954 q 438 990 424 976 q 483 1014 453 1004 q 529 1040 517 1026 q 542 1067 542 1054 q 526 1084 542 1076 q 474 1092 511 1092 q 431 1089 456 1092 q 383 1081 406 1086 q 378 1102 379 1092 q 376 1118 376 1113 q 392 1147 376 1131 q 461 1163 408 1163 q 584 1142 539 1163 q 629 1079 629 1121 q 606 1016 629 1043 q 535 975 583 989 q 500 957 507 967 q 492 939 493 947 l 426 939 z "},"Ȇ":{"ha":714,"x_min":38,"x_max":686,"o":"m 519 1149 q 611 1127 576 1149 q 662 1077 646 1106 q 678 1028 678 1049 q 657 998 678 1013 q 618 975 636 983 q 603 1008 617 985 q 564 1051 590 1031 q 493 1072 538 1072 q 402 1051 442 1072 q 337 1006 363 1031 q 301 971 311 982 l 275 996 q 381 1108 315 1067 q 519 1149 447 1149 m 38 0 l 40 44 l 139 64 l 249 836 l 154 856 l 158 900 l 686 900 l 660 692 l 599 692 l 599 843 l 458 843 l 340 838 l 292 496 l 479 496 l 508 575 l 550 575 l 522 361 l 479 361 l 471 440 l 285 440 l 231 64 q 307 58 269 60 q 363 57 344 57 l 510 57 l 563 203 l 611 203 l 586 0 l 38 0 z "},"Ē":{"ha":714,"x_min":38,"x_max":686,"o":"m 38 0 l 40 44 l 139 64 l 249 836 l 154 856 l 158 900 l 686 900 l 660 692 l 599 692 l 599 843 l 458 843 l 340 838 l 292 496 l 479 496 l 508 575 l 550 575 l 522 361 l 479 361 l 471 440 l 285 440 l 231 64 q 307 58 269 60 q 363 57 344 57 l 510 57 l 563 203 l 611 203 l 586 0 l 38 0 m 282 1000 l 293 1081 l 663 1081 l 653 1000 l 282 1000 z "},"Ę":{"ha":697,"x_min":38,"x_max":686,"o":"m 38 0 l 40 44 l 139 64 l 249 836 l 154 856 l 158 900 l 686 900 l 660 692 l 599 692 l 599 843 l 458 843 l 340 838 l 292 496 l 479 496 l 508 575 l 550 575 l 522 361 l 479 361 l 471 440 l 285 440 l 231 64 q 307 58 269 60 q 363 57 344 57 l 510 57 l 563 203 l 611 203 l 586 0 l 38 0 m 457 -243 q 389 -226 418 -243 q 360 -158 360 -210 q 376 -91 360 -124 q 422 -30 392 -58 q 496 18 453 -1 l 543 18 q 510 -6 528 10 q 476 -40 492 -21 q 450 -83 460 -60 q 440 -129 440 -106 q 456 -167 440 -156 q 494 -178 472 -178 q 540 -169 517 -178 q 582 -150 564 -161 l 601 -179 q 579 -198 599 -182 q 528 -228 560 -214 q 457 -243 496 -243 z "},"Ẽ":{"ha":714,"x_min":38,"x_max":700,"o":"m 38 0 l 40 44 l 139 64 l 249 836 l 154 856 l 158 900 l 686 900 l 660 692 l 599 692 l 599 843 l 458 843 l 340 838 l 292 496 l 479 496 l 508 575 l 550 575 l 522 361 l 479 361 l 471 440 l 285 440 l 231 64 q 307 58 269 60 q 363 57 344 57 l 510 57 l 563 203 l 611 203 l 586 0 l 38 0 m 581 985 q 530 995 561 985 q 472 1014 499 1006 l 365 1049 l 282 992 l 251 1025 l 299 1089 q 331 1121 314 1108 q 372 1133 349 1133 q 422 1124 390 1133 q 481 1104 454 1114 l 585 1069 l 669 1128 l 700 1093 l 653 1029 q 622 998 639 1011 q 581 985 604 985 z "},"F":{"ha":672,"x_min":38,"x_max":697,"o":"m 38 0 l 40 44 l 139 64 l 249 836 l 154 856 l 158 900 l 697 900 l 667 704 l 607 704 l 607 838 l 465 838 l 339 826 l 288 465 l 493 465 l 521 549 l 564 549 l 533 318 l 490 318 l 483 403 l 281 403 l 232 69 l 365 50 l 361 0 l 38 0 z "},"G":{"ha":782,"x_min":79,"x_max":731,"o":"m 365 -15 q 208 26 272 -15 q 112 144 144 67 q 79 335 79 222 q 107 549 79 444 q 190 735 135 653 q 327 867 246 818 q 514 917 408 917 q 630 908 568 917 q 731 886 692 900 l 707 690 l 657 690 l 649 813 q 592 835 633 821 q 499 850 551 850 q 353 809 413 850 q 256 698 293 768 q 203 539 219 628 q 186 354 186 450 q 213 170 186 236 q 287 78 239 104 q 396 51 335 51 q 490 65 451 51 q 565 97 528 78 l 601 361 l 467 386 l 474 442 l 701 442 l 642 0 l 611 0 l 582 39 l 574 39 q 506 6 557 28 q 365 -15 454 -15 z "},"Ğ":{"ha":782,"x_min":79,"x_max":735,"o":"m 365 -15 q 208 26 272 -15 q 112 144 144 67 q 79 335 79 222 q 107 549 79 444 q 190 735 135 653 q 327 867 246 818 q 514 917 408 917 q 630 908 568 917 q 731 886 692 900 l 707 690 l 657 690 l 649 813 q 592 835 633 821 q 499 850 551 850 q 353 809 413 850 q 256 698 293 768 q 203 539 219 628 q 186 354 186 450 q 213 170 186 236 q 287 78 239 104 q 396 51 335 51 q 490 65 451 51 q 565 97 528 78 l 601 361 l 467 386 l 474 442 l 701 442 l 642 0 l 611 0 l 582 39 l 574 39 q 506 6 557 28 q 365 -15 454 -15 m 490 971 q 399 992 433 971 q 348 1042 364 1014 q 332 1092 332 1071 q 353 1122 332 1107 q 392 1144 374 1136 q 406 1113 393 1136 q 447 1068 419 1089 q 517 1047 474 1047 q 608 1068 568 1047 q 673 1114 647 1089 q 708 1149 699 1139 l 735 1124 q 628 1012 694 1053 q 490 971 563 971 z "},"Ǧ":{"ha":782,"x_min":79,"x_max":731,"o":"m 365 -15 q 208 26 272 -15 q 112 144 144 67 q 79 335 79 222 q 107 549 79 444 q 190 735 135 653 q 327 867 246 818 q 514 917 408 917 q 630 908 568 917 q 731 886 692 900 l 707 690 l 657 690 l 649 813 q 592 835 633 821 q 499 850 551 850 q 353 809 413 850 q 256 698 293 768 q 203 539 219 628 q 186 354 186 450 q 213 170 186 236 q 287 78 239 104 q 396 51 335 51 q 490 65 451 51 q 565 97 528 78 l 601 361 l 467 386 l 474 442 l 701 442 l 642 0 l 611 0 l 582 39 l 574 39 q 506 6 557 28 q 365 -15 454 -15 m 504 961 q 479 977 497 961 q 444 1010 461 993 q 421 1033 426 1028 l 354 1108 l 404 1158 l 522 1060 l 669 1164 l 701 1121 l 615 1040 q 554 987 576 1004 q 521 965 532 969 q 504 961 510 961 z "},"Ĝ":{"ha":782,"x_min":79,"x_max":731,"o":"m 365 -15 q 208 26 272 -15 q 112 144 144 67 q 79 335 79 222 q 107 549 79 444 q 190 735 135 653 q 327 867 246 818 q 514 917 408 917 q 630 908 568 917 q 731 886 692 900 l 707 690 l 657 690 l 649 813 q 592 835 633 821 q 499 850 551 850 q 353 809 413 850 q 256 698 293 768 q 203 539 219 628 q 186 354 186 450 q 213 170 186 236 q 287 78 239 104 q 396 51 335 51 q 490 65 451 51 q 565 97 528 78 l 601 361 l 467 386 l 474 442 l 701 442 l 642 0 l 611 0 l 582 39 l 574 39 q 506 6 557 28 q 365 -15 454 -15 m 646 961 l 506 1057 l 356 971 l 322 1015 l 421 1089 q 483 1135 464 1121 q 510 1153 503 1149 q 521 1157 518 1157 q 548 1141 528 1157 q 589 1108 568 1125 q 615 1085 610 1090 l 690 1017 l 646 961 z "},"Ģ":{"ha":782,"x_min":79,"x_max":731,"o":"m 365 -15 q 208 26 272 -15 q 112 144 144 67 q 79 335 79 222 q 107 549 79 444 q 190 735 135 653 q 327 867 246 818 q 514 917 408 917 q 630 908 568 917 q 731 886 692 900 l 707 690 l 657 690 l 649 813 q 592 835 633 821 q 499 850 551 850 q 353 809 413 850 q 256 698 293 768 q 203 539 219 628 q 186 354 186 450 q 213 170 186 236 q 287 78 239 104 q 396 51 335 51 q 490 65 451 51 q 565 97 528 78 l 601 361 l 467 386 l 474 442 l 701 442 l 642 0 l 611 0 l 582 39 l 574 39 q 506 6 557 28 q 365 -15 454 -15 m 317 -251 q 343 -210 333 -235 q 353 -162 353 -185 q 347 -128 353 -144 q 325 -97 340 -111 q 359 -75 342 -81 q 388 -69 376 -69 q 428 -87 417 -69 q 440 -126 440 -106 q 417 -196 440 -160 q 363 -251 394 -232 l 317 -251 z "},"Ġ":{"ha":782,"x_min":79,"x_max":731,"o":"m 365 -15 q 208 26 272 -15 q 112 144 144 67 q 79 335 79 222 q 107 549 79 444 q 190 735 135 653 q 327 867 246 818 q 514 917 408 917 q 630 908 568 917 q 731 886 692 900 l 707 690 l 657 690 l 649 813 q 592 835 633 821 q 499 850 551 850 q 353 809 413 850 q 256 698 293 768 q 203 539 219 628 q 186 354 186 450 q 213 170 186 236 q 287 78 239 104 q 396 51 335 51 q 490 65 451 51 q 565 97 528 78 l 601 361 l 467 386 l 474 442 l 701 442 l 642 0 l 611 0 l 582 39 l 574 39 q 506 6 557 28 q 365 -15 454 -15 m 519 976 q 471 997 489 976 q 453 1044 453 1017 q 461 1085 453 1065 q 487 1117 469 1104 q 531 1131 504 1131 q 580 1111 561 1131 q 599 1060 599 1092 q 579 1003 599 1029 q 519 976 560 976 z "},"H":{"ha":925,"x_min":36,"x_max":915,"o":"m 36 0 l 40 44 l 139 64 l 249 836 l 154 856 l 158 900 l 443 900 l 439 856 l 340 836 l 294 499 l 674 499 l 721 836 l 626 856 l 631 900 l 915 900 l 911 856 l 813 836 l 704 64 l 799 44 l 796 0 l 510 0 l 514 44 l 613 64 l 664 429 l 283 429 l 232 64 l 325 44 l 322 0 l 36 0 z "},"Ħ":{"ha":925,"x_min":36,"x_max":915,"o":"m 132 635 l 142 699 l 885 699 l 876 635 l 132 635 m 36 0 l 40 44 l 139 64 l 249 836 l 154 856 l 158 900 l 443 900 l 439 856 l 340 836 l 294 499 l 674 499 l 721 836 l 626 856 l 631 900 l 915 900 l 911 856 l 813 836 l 704 64 l 799 44 l 796 0 l 510 0 l 514 44 l 613 64 l 664 429 l 283 429 l 232 64 l 325 44 l 322 0 l 36 0 z "},"Ĥ":{"ha":925,"x_min":36,"x_max":915,"o":"m 36 0 l 40 44 l 139 64 l 249 836 l 154 856 l 158 900 l 443 900 l 439 856 l 340 836 l 294 499 l 674 499 l 721 836 l 626 856 l 631 900 l 915 900 l 911 856 l 813 836 l 704 64 l 799 44 l 796 0 l 510 0 l 514 44 l 613 64 l 664 429 l 283 429 l 232 64 l 325 44 l 322 0 l 36 0 m 682 961 l 542 1057 l 392 971 l 358 1015 l 457 1089 q 519 1135 500 1121 q 547 1153 539 1149 q 557 1157 554 1157 q 584 1141 564 1157 q 625 1108 604 1125 q 651 1085 646 1090 l 726 1017 l 682 961 z "},"I":{"ha":451,"x_min":38,"x_max":443,"o":"m 38 0 l 40 44 l 140 64 l 249 836 l 154 856 l 158 900 l 443 900 l 439 856 l 340 836 l 232 64 l 325 44 l 322 0 l 38 0 z "},"Ĳ":{"ha":994,"x_min":38,"x_max":1003,"o":"m 38 0 l 40 44 l 140 64 l 249 836 l 154 856 l 158 900 l 443 900 l 439 856 l 340 836 l 232 64 l 325 44 l 322 0 l 38 0 m 594 -19 q 525 -15 561 -19 q 458 -1 489 -10 q 406 18 426 7 l 433 204 l 490 204 l 496 57 q 547 45 519 50 q 596 40 574 40 q 679 65 653 40 q 715 158 706 90 l 807 831 l 681 856 l 685 900 l 1003 900 l 997 856 l 899 836 l 807 163 q 772 53 799 93 q 701 -3 746 14 q 594 -19 657 -19 z "},"Í":{"ha":451,"x_min":38,"x_max":497,"o":"m 38 0 l 40 44 l 140 64 l 249 836 l 154 856 l 158 900 l 443 900 l 439 856 l 340 836 l 232 64 l 325 44 l 322 0 l 38 0 m 254 949 l 224 993 l 451 1160 q 486 1131 475 1150 q 497 1096 497 1111 q 478 1052 497 1068 q 426 1022 458 1036 l 254 949 z "},"Ĭ":{"ha":451,"x_min":38,"x_max":543,"o":"m 38 0 l 40 44 l 140 64 l 249 836 l 154 856 l 158 900 l 443 900 l 439 856 l 340 836 l 232 64 l 325 44 l 322 0 l 38 0 m 299 971 q 207 992 242 971 q 156 1042 172 1014 q 140 1092 140 1071 q 161 1122 140 1107 q 200 1144 182 1136 q 215 1113 201 1136 q 255 1068 228 1089 q 325 1047 282 1047 q 416 1068 376 1047 q 481 1114 456 1089 q 517 1149 507 1139 l 543 1124 q 437 1012 503 1053 q 299 971 371 971 z "},"Ǐ":{"ha":451,"x_min":38,"x_max":510,"o":"m 38 0 l 40 44 l 140 64 l 249 836 l 154 856 l 158 900 l 443 900 l 439 856 l 340 836 l 232 64 l 325 44 l 322 0 l 38 0 m 313 961 q 288 977 306 961 q 252 1010 269 993 q 229 1033 235 1028 l 163 1108 l 213 1158 l 331 1060 l 478 1164 l 510 1121 l 424 1040 q 363 987 385 1004 q 329 965 340 969 q 313 961 318 961 z "},"Î":{"ha":451,"x_min":38,"x_max":499,"o":"m 38 0 l 40 44 l 140 64 l 249 836 l 154 856 l 158 900 l 443 900 l 439 856 l 340 836 l 232 64 l 325 44 l 322 0 l 38 0 m 454 961 l 314 1057 l 164 971 l 131 1015 l 229 1089 q 292 1135 272 1121 q 319 1153 311 1149 q 329 1157 326 1157 q 356 1141 336 1157 q 397 1108 376 1125 q 424 1085 418 1090 l 499 1017 l 454 961 z "},"Ȉ":{"ha":451,"x_min":38,"x_max":451,"o":"m 206 944 l 146 1013 q 109 1063 122 1040 q 101 1100 96 1085 q 111 1122 104 1111 q 133 1143 118 1133 q 178 1158 149 1153 l 250 975 l 206 944 m 407 944 l 347 1013 q 310 1063 324 1040 q 303 1100 297 1085 q 313 1122 306 1111 q 335 1143 319 1133 q 379 1158 350 1153 l 451 975 l 407 944 m 38 0 l 40 44 l 140 64 l 249 836 l 154 856 l 158 900 l 443 900 l 439 856 l 340 836 l 232 64 l 325 44 l 322 0 l 38 0 z "},"Ï":{"ha":451,"x_min":38,"x_max":538,"o":"m 38 0 l 40 44 l 140 64 l 249 836 l 154 856 l 158 900 l 443 900 l 439 856 l 340 836 l 232 64 l 325 44 l 322 0 l 38 0 m 468 982 q 419 1002 438 982 q 400 1057 400 1022 q 409 1095 400 1078 q 435 1123 418 1113 q 471 1133 451 1133 q 520 1114 503 1133 q 538 1063 538 1094 q 519 1006 538 1029 q 468 982 500 982 m 178 982 q 129 1002 147 982 q 111 1057 111 1022 q 120 1095 111 1078 q 146 1123 129 1113 q 182 1133 163 1133 q 231 1114 214 1133 q 249 1063 249 1094 q 230 1006 249 1029 q 178 982 211 982 z "},"İ":{"ha":451,"x_min":38,"x_max":443,"o":"m 38 0 l 40 44 l 140 64 l 249 836 l 154 856 l 158 900 l 443 900 l 439 856 l 340 836 l 232 64 l 325 44 l 322 0 l 38 0 m 328 976 q 279 997 297 976 q 261 1044 261 1017 q 269 1085 261 1065 q 295 1117 278 1104 q 339 1131 313 1131 q 388 1111 369 1131 q 407 1060 407 1092 q 388 1003 407 1029 q 328 976 368 976 z "},"Ị":{"ha":451,"x_min":38,"x_max":443,"o":"m 38 0 l 40 44 l 140 64 l 249 836 l 154 856 l 158 900 l 443 900 l 439 856 l 340 836 l 232 64 l 325 44 l 322 0 l 38 0 m 168 -254 q 121 -235 139 -254 q 103 -187 103 -215 q 111 -149 103 -168 q 137 -117 119 -129 q 181 -104 154 -104 q 227 -122 208 -104 q 246 -172 246 -140 q 227 -228 246 -203 q 168 -254 208 -254 z "},"Ì":{"ha":451,"x_min":38,"x_max":443,"o":"m 38 0 l 40 44 l 140 64 l 249 836 l 154 856 l 158 900 l 443 900 l 439 856 l 340 836 l 232 64 l 325 44 l 322 0 l 38 0 m 411 949 l 239 1022 q 188 1052 208 1036 q 168 1096 168 1068 q 180 1131 168 1111 q 214 1160 192 1150 l 442 993 l 411 949 z "},"Ỉ":{"ha":451,"x_min":38,"x_max":489,"o":"m 38 0 l 40 44 l 140 64 l 249 836 l 154 856 l 158 900 l 443 900 l 439 856 l 340 836 l 232 64 l 325 44 l 322 0 l 38 0 m 286 939 q 284 949 285 944 q 283 960 283 954 q 298 990 283 976 q 343 1014 313 1004 q 389 1040 376 1026 q 401 1067 401 1054 q 386 1084 401 1076 q 333 1092 371 1092 q 290 1089 315 1092 q 243 1081 265 1086 q 238 1102 239 1092 q 236 1118 236 1113 q 252 1147 236 1131 q 321 1163 268 1163 q 444 1142 399 1163 q 489 1079 489 1121 q 466 1016 489 1043 q 394 975 443 989 q 360 957 367 967 q 351 939 353 947 l 286 939 z "},"Ȋ":{"ha":451,"x_min":38,"x_max":538,"o":"m 379 1149 q 471 1127 436 1149 q 522 1077 506 1106 q 538 1028 538 1049 q 517 998 538 1013 q 478 975 496 983 q 463 1008 476 985 q 424 1051 450 1031 q 353 1072 397 1072 q 262 1051 301 1072 q 197 1006 222 1031 q 161 971 171 982 l 135 996 q 241 1108 175 1067 q 379 1149 307 1149 m 38 0 l 40 44 l 140 64 l 249 836 l 154 856 l 158 900 l 443 900 l 439 856 l 340 836 l 232 64 l 325 44 l 322 0 l 38 0 z "},"Ī":{"ha":451,"x_min":38,"x_max":522,"o":"m 38 0 l 40 44 l 140 64 l 249 836 l 154 856 l 158 900 l 443 900 l 439 856 l 340 836 l 232 64 l 325 44 l 322 0 l 38 0 m 142 1000 l 153 1081 l 522 1081 l 513 1000 l 142 1000 z "},"Į":{"ha":451,"x_min":38,"x_max":443,"o":"m 38 0 l 40 44 l 140 64 l 249 836 l 154 856 l 158 900 l 443 900 l 439 856 l 340 836 l 232 64 l 325 44 l 322 0 l 38 0 m 194 -243 q 126 -226 156 -243 q 97 -158 97 -210 q 113 -91 97 -124 q 160 -30 129 -58 q 233 18 190 -1 l 281 18 q 247 -6 265 10 q 213 -40 229 -21 q 188 -83 197 -60 q 178 -129 178 -106 q 194 -167 178 -156 q 232 -178 210 -178 q 278 -169 254 -178 q 319 -150 301 -161 l 339 -179 q 317 -198 336 -182 q 265 -228 297 -214 q 194 -243 233 -243 z "},"Ĩ":{"ha":451,"x_min":38,"x_max":560,"o":"m 38 0 l 40 44 l 140 64 l 249 836 l 154 856 l 158 900 l 443 900 l 439 856 l 340 836 l 232 64 l 325 44 l 322 0 l 38 0 m 440 985 q 390 995 421 985 q 332 1014 358 1006 l 225 1049 l 142 992 l 111 1025 l 158 1089 q 191 1121 174 1108 q 232 1133 208 1133 q 282 1124 250 1133 q 340 1104 314 1114 l 444 1069 l 529 1128 l 560 1093 l 513 1029 q 481 998 499 1011 q 440 985 464 985 z "},"J":{"ha":543,"x_min":-46,"x_max":551,"o":"m 143 -19 q 74 -15 110 -19 q 6 -1 38 -10 q -46 18 -25 7 l -18 204 l 39 204 l 44 57 q 95 45 68 50 q 144 40 122 40 q 228 65 201 40 q 264 158 254 90 l 356 831 l 229 856 l 233 900 l 551 900 l 546 856 l 447 836 l 356 163 q 321 53 347 93 q 250 -3 294 14 q 143 -19 206 -19 z "},"Ĵ":{"ha":543,"x_min":-46,"x_max":597,"o":"m 143 -19 q 74 -15 110 -19 q 6 -1 38 -10 q -46 18 -25 7 l -18 204 l 39 204 l 44 57 q 95 45 68 50 q 144 40 122 40 q 228 65 201 40 q 264 158 254 90 l 356 831 l 229 856 l 233 900 l 551 900 l 546 856 l 447 836 l 356 163 q 321 53 347 93 q 250 -3 294 14 q 143 -19 206 -19 m 553 961 l 413 1057 l 263 971 l 229 1015 l 328 1089 q 390 1135 371 1121 q 417 1153 410 1149 q 428 1157 425 1157 q 455 1141 435 1157 q 496 1108 475 1125 q 522 1085 517 1090 l 597 1017 l 553 961 z "},"K":{"ha":718,"x_min":38,"x_max":793,"o":"m 38 0 l 40 44 l 139 64 l 249 836 l 154 856 l 158 900 l 443 900 l 439 856 l 340 836 l 293 494 l 351 494 l 628 821 l 628 835 l 551 856 l 558 900 l 793 900 l 789 856 l 725 836 l 424 481 l 633 68 l 718 44 l 715 0 l 618 0 q 575 6 590 0 q 547 35 560 11 l 350 433 l 285 433 l 232 64 l 325 44 l 324 0 l 38 0 z "},"Ķ":{"ha":718,"x_min":38,"x_max":793,"o":"m 38 0 l 40 44 l 139 64 l 249 836 l 154 856 l 158 900 l 443 900 l 439 856 l 340 836 l 293 494 l 351 494 l 628 821 l 628 835 l 551 856 l 558 900 l 793 900 l 789 856 l 725 836 l 424 481 l 633 68 l 718 44 l 715 0 l 618 0 q 575 6 590 0 q 547 35 560 11 l 350 433 l 285 433 l 232 64 l 325 44 l 324 0 l 38 0 m 294 -251 q 321 -210 311 -235 q 331 -162 331 -185 q 324 -128 331 -144 q 303 -97 318 -111 q 337 -75 319 -81 q 365 -69 354 -69 q 406 -87 394 -69 q 418 -126 418 -106 q 395 -196 418 -160 q 340 -251 372 -232 l 294 -251 z "},"L":{"ha":617,"x_min":36,"x_max":574,"o":"m 36 0 l 40 44 l 139 64 l 249 836 l 154 856 l 158 900 l 443 900 l 439 856 l 340 836 l 232 64 l 289 58 l 465 58 l 510 203 l 574 203 l 543 0 l 36 0 z "},"Ǉ":{"ha":1119,"x_min":36,"x_max":1128,"o":"m 36 0 l 40 44 l 139 64 l 249 836 l 154 856 l 158 900 l 443 900 l 439 856 l 340 836 l 232 64 l 289 58 l 438 58 l 488 203 l 549 203 l 515 0 l 36 0 m 719 -19 q 650 -15 686 -19 q 583 -1 614 -10 q 531 18 551 7 l 558 204 l 615 204 l 621 57 q 672 45 644 50 q 721 40 699 40 q 804 65 778 40 q 840 158 831 90 l 932 831 l 806 856 l 810 900 l 1128 900 l 1122 856 l 1024 836 l 932 163 q 897 53 924 93 q 826 -3 871 14 q 719 -19 782 -19 z "},"Ĺ":{"ha":617,"x_min":36,"x_max":574,"o":"m 36 0 l 40 44 l 139 64 l 249 836 l 154 856 l 158 900 l 443 900 l 439 856 l 340 836 l 232 64 l 289 58 l 465 58 l 510 203 l 574 203 l 543 0 l 36 0 m 246 949 l 215 993 l 443 1160 q 478 1131 467 1150 q 489 1096 489 1111 q 469 1052 489 1068 q 418 1022 450 1036 l 246 949 z "},"Ľ":{"ha":617,"x_min":36,"x_max":671,"o":"m 36 0 l 40 44 l 139 64 l 249 836 l 154 856 l 158 900 l 443 900 l 439 856 l 340 836 l 232 64 l 289 58 l 465 58 l 510 203 l 574 203 l 543 0 l 36 0 m 539 711 q 567 766 550 729 q 583 839 583 803 q 574 883 583 863 q 550 921 565 903 q 581 945 565 936 q 615 954 597 954 q 655 938 639 954 q 671 894 671 922 q 645 807 671 858 q 579 711 619 756 l 539 711 z "},"Ļ":{"ha":617,"x_min":36,"x_max":574,"o":"m 36 0 l 40 44 l 139 64 l 249 836 l 154 856 l 158 900 l 443 900 l 439 856 l 340 836 l 232 64 l 289 58 l 465 58 l 510 203 l 574 203 l 543 0 l 36 0 m 257 -251 q 283 -210 274 -235 q 293 -162 293 -185 q 287 -128 293 -144 q 265 -97 281 -111 q 299 -75 282 -81 q 328 -69 317 -69 q 369 -87 357 -69 q 381 -126 381 -106 q 358 -196 381 -160 q 303 -251 335 -232 l 257 -251 z "},"Ŀ":{"ha":619,"x_min":36,"x_max":619,"o":"m 36 0 l 40 44 l 139 64 l 249 836 l 154 856 l 158 900 l 443 900 l 439 856 l 340 836 l 232 64 l 289 58 l 465 58 l 510 203 l 574 203 l 543 0 l 36 0 m 529 415 q 485 433 503 415 q 468 476 468 450 q 493 546 468 515 q 556 576 518 576 q 603 560 586 576 q 619 515 619 543 q 597 447 619 479 q 529 415 574 415 z "},"ǈ":{"ha":985,"x_min":36,"x_max":943,"o":"m 36 0 l 40 44 l 139 64 l 249 836 l 154 856 l 158 900 l 443 900 l 439 856 l 340 836 l 232 64 l 289 58 l 465 58 l 510 203 l 574 203 l 543 0 l 36 0 m 522 -231 q 489 -222 500 -231 q 478 -186 478 -212 q 485 -150 478 -162 q 496 -132 492 -137 l 588 -132 q 640 -126 617 -132 q 671 -115 664 -121 q 695 -85 675 -112 q 724 -6 715 -57 l 821 621 l 710 646 l 710 689 l 906 715 l 906 624 l 819 50 q 759 -112 804 -50 q 651 -202 714 -174 q 522 -231 589 -231 m 865 829 q 818 849 836 829 q 800 896 800 868 q 808 935 800 915 q 834 967 817 954 q 878 979 851 979 q 924 961 906 979 q 943 911 943 943 q 924 855 943 881 q 865 829 906 829 z "},"Ł":{"ha":617,"x_min":36,"x_max":574,"o":"m 78 322 l 90 399 l 488 554 l 475 478 l 78 322 m 36 0 l 40 44 l 139 64 l 249 836 l 154 856 l 158 900 l 443 900 l 439 856 l 340 836 l 232 64 l 289 58 l 465 58 l 510 203 l 574 203 l 543 0 l 36 0 z "},"M":{"ha":1050,"x_min":36,"x_max":1042,"o":"m 36 0 l 40 44 l 136 64 l 244 836 l 154 856 l 158 900 l 378 900 l 478 213 l 483 143 l 489 143 l 514 210 l 821 900 l 1042 900 l 1038 856 l 940 836 l 831 64 l 924 44 l 921 0 l 639 0 l 643 44 l 746 64 l 840 738 l 849 806 l 842 806 l 482 0 l 422 0 l 306 807 l 299 807 l 293 756 l 196 64 l 289 44 l 286 0 l 36 0 z "},"N":{"ha":918,"x_min":36,"x_max":917,"o":"m 36 0 l 40 44 l 136 64 l 244 836 l 154 856 l 158 900 l 335 900 l 635 172 l 647 131 l 653 131 l 656 156 l 753 836 l 657 856 l 660 900 l 917 900 l 913 856 l 817 836 l 699 0 l 608 0 l 315 711 l 303 753 l 297 753 l 200 64 l 294 44 l 292 0 l 36 0 z "},"Ǌ":{"ha":1461,"x_min":36,"x_max":1469,"o":"m 36 0 l 40 44 l 136 64 l 244 836 l 154 856 l 158 900 l 335 900 l 635 172 l 647 131 l 653 131 l 656 156 l 753 836 l 657 856 l 660 900 l 917 900 l 913 856 l 817 836 l 699 0 l 608 0 l 315 711 l 303 753 l 297 753 l 200 64 l 294 44 l 292 0 l 36 0 m 1061 -19 q 992 -15 1028 -19 q 924 -1 956 -10 q 872 18 893 7 l 900 204 l 957 204 l 963 57 q 1013 45 986 50 q 1063 40 1040 40 q 1146 65 1119 40 q 1182 158 1172 90 l 1274 831 l 1147 856 l 1151 900 l 1469 900 l 1464 856 l 1365 836 l 1274 163 q 1239 53 1265 93 q 1168 -3 1213 14 q 1061 -19 1124 -19 z "},"Ń":{"ha":918,"x_min":36,"x_max":917,"o":"m 36 0 l 40 44 l 136 64 l 244 836 l 154 856 l 158 900 l 335 900 l 635 172 l 647 131 l 653 131 l 656 156 l 753 836 l 657 856 l 660 900 l 917 900 l 913 856 l 817 836 l 699 0 l 608 0 l 315 711 l 303 753 l 297 753 l 200 64 l 294 44 l 292 0 l 36 0 m 481 949 l 450 993 l 678 1160 q 713 1131 701 1150 q 724 1096 724 1111 q 704 1052 724 1068 q 653 1022 685 1036 l 481 949 z "},"Ň":{"ha":918,"x_min":36,"x_max":917,"o":"m 36 0 l 40 44 l 136 64 l 244 836 l 154 856 l 158 900 l 335 900 l 635 172 l 647 131 l 653 131 l 656 156 l 753 836 l 657 856 l 660 900 l 917 900 l 913 856 l 817 836 l 699 0 l 608 0 l 315 711 l 303 753 l 297 753 l 200 64 l 294 44 l 292 0 l 36 0 m 539 961 q 514 977 532 961 q 478 1010 496 993 q 456 1033 461 1028 l 389 1108 l 439 1158 l 557 1060 l 704 1164 l 736 1121 l 650 1040 q 589 987 611 1004 q 556 965 567 969 q 539 961 544 961 z "},"Ņ":{"ha":918,"x_min":36,"x_max":917,"o":"m 36 0 l 40 44 l 136 64 l 244 836 l 154 856 l 158 900 l 335 900 l 635 172 l 647 131 l 653 131 l 656 156 l 753 836 l 657 856 l 660 900 l 917 900 l 913 856 l 817 836 l 699 0 l 608 0 l 315 711 l 303 753 l 297 753 l 200 64 l 294 44 l 292 0 l 36 0 m 338 -251 q 364 -210 354 -235 q 374 -162 374 -185 q 367 -128 374 -144 q 346 -97 361 -111 q 380 -75 363 -81 q 408 -69 397 -69 q 449 -87 438 -69 q 461 -126 461 -106 q 438 -196 461 -160 q 383 -251 415 -232 l 338 -251 z "},"Ŋ":{"ha":918,"x_min":36,"x_max":917,"o":"m 404 -231 q 372 -222 383 -231 q 361 -186 361 -212 q 369 -146 361 -158 q 378 -132 376 -133 l 469 -132 q 522 -126 499 -132 q 553 -115 546 -121 q 576 -85 558 -112 q 603 -6 593 -58 l 310 725 l 304 739 l 296 739 l 201 64 l 294 44 l 292 0 l 36 0 l 40 44 l 136 64 l 244 836 l 154 856 l 158 900 l 344 900 l 640 158 l 646 144 l 653 144 l 656 160 l 751 836 l 657 856 l 660 900 l 917 900 l 913 856 l 817 836 l 706 50 q 645 -113 692 -51 q 535 -203 599 -175 q 404 -231 472 -231 z "},"Ɲ":{"ha":918,"x_min":-119,"x_max":917,"o":"m -71 -231 q -106 -223 -93 -231 q -119 -187 -119 -215 q -111 -148 -119 -162 q -101 -132 -103 -133 l -10 -132 q 40 -125 19 -132 q 74 -110 60 -118 q 108 -70 96 -96 q 126 -6 121 -44 l 244 836 l 151 856 l 156 900 l 344 900 l 628 189 l 646 144 l 654 144 l 660 183 l 751 836 l 657 856 l 660 900 l 917 900 l 913 856 l 817 836 l 697 0 l 600 0 l 313 714 l 301 739 l 294 739 l 200 50 q 144 -112 186 -50 q 44 -202 101 -174 q -71 -231 -12 -231 z "},"ǋ":{"ha":1288,"x_min":36,"x_max":1246,"o":"m 36 0 l 40 44 l 136 64 l 244 836 l 154 856 l 158 900 l 335 900 l 635 172 l 647 131 l 653 131 l 656 156 l 753 836 l 657 856 l 660 900 l 917 900 l 913 856 l 817 836 l 699 0 l 608 0 l 315 711 l 303 753 l 297 753 l 200 64 l 294 44 l 292 0 l 36 0 m 825 -231 q 792 -222 803 -231 q 781 -186 781 -212 q 788 -150 781 -162 q 799 -132 794 -137 l 890 -132 q 943 -126 919 -132 q 974 -115 967 -121 q 998 -85 978 -112 q 1026 -6 1018 -57 l 1124 621 l 1013 646 l 1013 689 l 1208 715 l 1208 624 l 1122 50 q 1062 -112 1107 -50 q 954 -202 1017 -174 q 825 -231 892 -231 m 1168 829 q 1121 849 1139 829 q 1103 896 1103 868 q 1111 935 1103 915 q 1137 967 1119 954 q 1181 979 1154 979 q 1227 961 1208 979 q 1246 911 1246 943 q 1227 855 1246 881 q 1168 829 1208 829 z "},"Ñ":{"ha":918,"x_min":36,"x_max":917,"o":"m 36 0 l 40 44 l 136 64 l 244 836 l 154 856 l 158 900 l 335 900 l 635 172 l 647 131 l 653 131 l 656 156 l 753 836 l 657 856 l 660 900 l 917 900 l 913 856 l 817 836 l 699 0 l 608 0 l 315 711 l 303 753 l 297 753 l 200 64 l 294 44 l 292 0 l 36 0 m 667 985 q 616 995 647 985 q 558 1014 585 1006 l 451 1049 l 368 992 l 338 1025 l 385 1089 q 417 1121 400 1108 q 458 1133 435 1133 q 508 1124 476 1133 q 567 1104 540 1114 l 671 1069 l 756 1128 l 786 1093 l 739 1029 q 708 998 725 1011 q 667 985 690 985 z "},"O":{"ha":901,"x_min":81,"x_max":851,"o":"m 394 -15 q 219 29 289 -15 q 115 154 150 74 q 81 344 81 235 q 108 558 81 456 q 192 741 136 660 q 332 869 249 822 q 526 917 415 917 q 665 894 604 917 q 767 826 725 871 q 830 715 808 782 q 851 558 851 647 q 825 343 851 446 q 743 159 799 240 q 601 31 688 78 q 394 -15 515 -15 m 422 51 q 574 89 514 51 q 671 192 635 126 q 724 342 707 257 q 743 525 740 428 q 724 710 747 639 q 649 816 701 782 q 508 850 596 850 q 363 812 424 850 q 264 707 303 774 q 207 553 225 640 q 189 368 189 467 q 210 190 189 260 q 283 85 232 119 q 422 51 335 51 z "},"Ó":{"ha":901,"x_min":81,"x_max":851,"o":"m 394 -15 q 219 29 289 -15 q 115 154 150 74 q 81 344 81 235 q 108 558 81 456 q 192 741 136 660 q 332 869 249 822 q 526 917 415 917 q 665 894 604 917 q 767 826 725 871 q 830 715 808 782 q 851 558 851 647 q 825 343 851 446 q 743 159 799 240 q 601 31 688 78 q 394 -15 515 -15 m 422 51 q 574 89 514 51 q 671 192 635 126 q 724 342 707 257 q 743 525 740 428 q 724 710 747 639 q 649 816 701 782 q 508 850 596 850 q 363 812 424 850 q 264 707 303 774 q 207 553 225 640 q 189 368 189 467 q 210 190 189 260 q 283 85 232 119 q 422 51 335 51 m 472 949 l 442 993 l 669 1160 q 704 1131 693 1150 q 715 1096 715 1111 q 696 1052 715 1068 q 644 1022 676 1036 l 472 949 z "},"Ŏ":{"ha":901,"x_min":81,"x_max":851,"o":"m 394 -15 q 219 29 289 -15 q 115 154 150 74 q 81 344 81 235 q 108 558 81 456 q 192 741 136 660 q 332 869 249 822 q 526 917 415 917 q 665 894 604 917 q 767 826 725 871 q 830 715 808 782 q 851 558 851 647 q 825 343 851 446 q 743 159 799 240 q 601 31 688 78 q 394 -15 515 -15 m 422 51 q 574 89 514 51 q 671 192 635 126 q 724 342 707 257 q 743 525 740 428 q 724 710 747 639 q 649 816 701 782 q 508 850 596 850 q 363 812 424 850 q 264 707 303 774 q 207 553 225 640 q 189 368 189 467 q 210 190 189 260 q 283 85 232 119 q 422 51 335 51 m 517 971 q 425 992 460 971 q 374 1042 390 1014 q 358 1092 358 1071 q 379 1122 358 1107 q 418 1144 400 1136 q 433 1113 419 1136 q 473 1068 446 1089 q 543 1047 500 1047 q 634 1068 594 1047 q 699 1114 674 1089 q 735 1149 725 1139 l 761 1124 q 655 1012 721 1053 q 517 971 589 971 z "},"Ǒ":{"ha":901,"x_min":81,"x_max":851,"o":"m 394 -15 q 219 29 289 -15 q 115 154 150 74 q 81 344 81 235 q 108 558 81 456 q 192 741 136 660 q 332 869 249 822 q 526 917 415 917 q 665 894 604 917 q 767 826 725 871 q 830 715 808 782 q 851 558 851 647 q 825 343 851 446 q 743 159 799 240 q 601 31 688 78 q 394 -15 515 -15 m 422 51 q 574 89 514 51 q 671 192 635 126 q 724 342 707 257 q 743 525 740 428 q 724 710 747 639 q 649 816 701 782 q 508 850 596 850 q 363 812 424 850 q 264 707 303 774 q 207 553 225 640 q 189 368 189 467 q 210 190 189 260 q 283 85 232 119 q 422 51 335 51 m 531 961 q 506 977 524 961 q 470 1010 488 993 q 447 1033 453 1028 l 381 1108 l 431 1158 l 549 1060 l 696 1164 l 728 1121 l 642 1040 q 581 987 603 1004 q 547 965 558 969 q 531 961 536 961 z "},"Ô":{"ha":901,"x_min":81,"x_max":851,"o":"m 394 -15 q 219 29 289 -15 q 115 154 150 74 q 81 344 81 235 q 108 558 81 456 q 192 741 136 660 q 332 869 249 822 q 526 917 415 917 q 665 894 604 917 q 767 826 725 871 q 830 715 808 782 q 851 558 851 647 q 825 343 851 446 q 743 159 799 240 q 601 31 688 78 q 394 -15 515 -15 m 422 51 q 574 89 514 51 q 671 192 635 126 q 724 342 707 257 q 743 525 740 428 q 724 710 747 639 q 649 816 701 782 q 508 850 596 850 q 363 812 424 850 q 264 707 303 774 q 207 553 225 640 q 189 368 189 467 q 210 190 189 260 q 283 85 232 119 q 422 51 335 51 m 672 961 l 532 1057 l 382 971 l 349 1015 l 447 1089 q 510 1135 490 1121 q 537 1153 529 1149 q 547 1157 544 1157 q 574 1141 554 1157 q 615 1108 594 1125 q 642 1085 636 1090 l 717 1017 l 672 961 z "},"Ố":{"ha":901,"x_min":81,"x_max":871,"o":"m 394 -15 q 219 29 289 -15 q 115 154 150 74 q 81 344 81 235 q 108 558 81 456 q 192 741 136 660 q 332 869 249 822 q 526 917 415 917 q 665 894 604 917 q 767 826 725 871 q 830 715 808 782 q 851 558 851 647 q 825 343 851 446 q 743 159 799 240 q 601 31 688 78 q 394 -15 515 -15 m 422 51 q 574 89 514 51 q 671 192 635 126 q 724 342 707 257 q 743 525 740 428 q 724 710 747 639 q 649 816 701 782 q 508 850 596 850 q 363 812 424 850 q 264 707 303 774 q 207 553 225 640 q 189 368 189 467 q 210 190 189 260 q 283 85 232 119 q 422 51 335 51 m 628 1121 l 597 1165 l 825 1332 q 860 1303 849 1322 q 871 1268 871 1283 q 851 1224 871 1240 q 800 1194 832 1208 l 628 1121 m 679 961 l 539 1057 l 389 971 l 356 1015 l 454 1089 q 517 1135 497 1121 q 544 1153 536 1149 q 554 1157 551 1157 q 581 1141 561 1157 q 622 1108 601 1125 q 649 1085 643 1090 l 724 1017 l 679 961 z "},"Ộ":{"ha":901,"x_min":81,"x_max":851,"o":"m 394 -15 q 219 29 289 -15 q 115 154 150 74 q 81 344 81 235 q 108 558 81 456 q 192 741 136 660 q 332 869 249 822 q 526 917 415 917 q 665 894 604 917 q 767 826 725 871 q 830 715 808 782 q 851 558 851 647 q 825 343 851 446 q 743 159 799 240 q 601 31 688 78 q 394 -15 515 -15 m 422 51 q 574 89 514 51 q 671 192 635 126 q 724 342 707 257 q 743 525 740 428 q 724 710 747 639 q 649 816 701 782 q 508 850 596 850 q 363 812 424 850 q 264 707 303 774 q 207 553 225 640 q 189 368 189 467 q 210 190 189 260 q 283 85 232 119 q 422 51 335 51 m 399 -254 q 351 -235 369 -254 q 333 -187 333 -215 q 342 -149 333 -168 q 367 -117 350 -129 q 411 -104 385 -104 q 458 -122 439 -104 q 476 -172 476 -140 q 458 -228 476 -203 q 399 -254 439 -254 m 672 961 l 532 1057 l 382 971 l 349 1015 l 447 1089 q 510 1135 490 1121 q 537 1153 529 1149 q 547 1157 544 1157 q 574 1141 554 1157 q 615 1108 594 1125 q 642 1085 636 1090 l 717 1017 l 672 961 z "},"Ồ":{"ha":901,"x_min":81,"x_max":851,"o":"m 394 -15 q 219 29 289 -15 q 115 154 150 74 q 81 344 81 235 q 108 558 81 456 q 192 741 136 660 q 332 869 249 822 q 526 917 415 917 q 665 894 604 917 q 767 826 725 871 q 830 715 808 782 q 851 558 851 647 q 825 343 851 446 q 743 159 799 240 q 601 31 688 78 q 394 -15 515 -15 m 422 51 q 574 89 514 51 q 671 192 635 126 q 724 342 707 257 q 743 525 740 428 q 724 710 747 639 q 649 816 701 782 q 508 850 596 850 q 363 812 424 850 q 264 707 303 774 q 207 553 225 640 q 189 368 189 467 q 210 190 189 260 q 283 85 232 119 q 422 51 335 51 m 750 1121 l 578 1194 q 527 1224 547 1208 q 507 1268 507 1240 q 519 1303 507 1283 q 553 1332 531 1322 l 781 1165 l 750 1121 m 679 961 l 539 1057 l 389 971 l 356 1015 l 454 1089 q 517 1135 497 1121 q 544 1153 536 1149 q 554 1157 551 1157 q 581 1141 561 1157 q 622 1108 601 1125 q 649 1085 643 1090 l 724 1017 l 679 961 z "},"Ổ":{"ha":901,"x_min":81,"x_max":875,"o":"m 394 -15 q 219 29 289 -15 q 115 154 150 74 q 81 344 81 235 q 108 558 81 456 q 192 741 136 660 q 332 869 249 822 q 526 917 415 917 q 665 894 604 917 q 767 826 725 871 q 830 715 808 782 q 851 558 851 647 q 825 343 851 446 q 743 159 799 240 q 601 31 688 78 q 394 -15 515 -15 m 422 51 q 574 89 514 51 q 671 192 635 126 q 724 342 707 257 q 743 525 740 428 q 724 710 747 639 q 649 816 701 782 q 508 850 596 850 q 363 812 424 850 q 264 707 303 774 q 207 553 225 640 q 189 368 189 467 q 210 190 189 260 q 283 85 232 119 q 422 51 335 51 m 672 1097 q 670 1108 671 1103 q 669 1118 669 1113 q 684 1149 669 1135 q 729 1172 699 1163 q 775 1199 763 1185 q 788 1225 788 1213 q 772 1242 788 1235 q 719 1250 757 1250 q 676 1247 701 1250 q 629 1239 651 1244 q 624 1260 625 1250 q 622 1276 622 1271 q 638 1305 622 1289 q 707 1321 654 1321 q 830 1300 785 1321 q 875 1238 875 1279 q 852 1174 875 1201 q 781 1133 829 1147 q 746 1115 753 1125 q 738 1097 739 1106 l 672 1097 m 679 961 l 539 1057 l 389 971 l 356 1015 l 454 1089 q 517 1135 497 1121 q 544 1153 536 1149 q 554 1157 551 1157 q 581 1141 561 1157 q 622 1108 601 1125 q 649 1085 643 1090 l 724 1017 l 679 961 z "},"Ỗ":{"ha":901,"x_min":81,"x_max":851,"o":"m 686 1188 q 635 1198 667 1188 q 578 1218 604 1208 l 471 1254 l 388 1194 l 357 1229 l 404 1296 q 437 1330 419 1317 q 478 1343 454 1343 q 528 1333 496 1343 q 586 1313 560 1322 l 690 1275 l 775 1336 l 806 1300 l 758 1233 q 727 1201 744 1214 q 686 1188 710 1188 m 394 -15 q 219 29 289 -15 q 115 154 150 74 q 81 344 81 235 q 108 558 81 456 q 192 741 136 660 q 332 869 249 822 q 526 917 415 917 q 665 894 604 917 q 767 826 725 871 q 830 715 808 782 q 851 558 851 647 q 825 343 851 446 q 743 159 799 240 q 601 31 688 78 q 394 -15 515 -15 m 422 51 q 574 89 514 51 q 671 192 635 126 q 724 342 707 257 q 743 525 740 428 q 724 710 747 639 q 649 816 701 782 q 508 850 596 850 q 363 812 424 850 q 264 707 303 774 q 207 553 225 640 q 189 368 189 467 q 210 190 189 260 q 283 85 232 119 q 422 51 335 51 m 685 961 l 544 1057 l 394 971 l 361 1015 l 460 1089 q 522 1135 503 1121 q 549 1153 542 1149 q 560 1157 557 1157 q 587 1141 567 1157 q 628 1108 607 1125 q 654 1085 649 1090 l 729 1017 l 685 961 z "},"Ȍ":{"ha":901,"x_min":81,"x_max":851,"o":"m 424 944 l 364 1013 q 327 1063 340 1040 q 319 1100 314 1085 q 329 1122 322 1111 q 351 1143 336 1133 q 396 1158 367 1153 l 468 975 l 424 944 m 625 944 l 565 1013 q 528 1063 542 1040 q 521 1100 515 1085 q 531 1122 524 1111 q 553 1143 538 1133 q 597 1158 568 1153 l 669 975 l 625 944 m 394 -15 q 219 29 289 -15 q 115 154 150 74 q 81 344 81 235 q 108 558 81 456 q 192 741 136 660 q 332 869 249 822 q 526 917 415 917 q 665 894 604 917 q 767 826 725 871 q 830 715 808 782 q 851 558 851 647 q 825 343 851 446 q 743 159 799 240 q 601 31 688 78 q 394 -15 515 -15 m 422 51 q 574 89 514 51 q 671 192 635 126 q 724 342 707 257 q 743 525 740 428 q 724 710 747 639 q 649 816 701 782 q 508 850 596 850 q 363 812 424 850 q 264 707 303 774 q 207 553 225 640 q 189 368 189 467 q 210 190 189 260 q 283 85 232 119 q 422 51 335 51 z "},"Ö":{"ha":901,"x_min":81,"x_max":851,"o":"m 394 -15 q 219 29 289 -15 q 115 154 150 74 q 81 344 81 235 q 108 558 81 456 q 192 741 136 660 q 332 869 249 822 q 526 917 415 917 q 665 894 604 917 q 767 826 725 871 q 830 715 808 782 q 851 558 851 647 q 825 343 851 446 q 743 159 799 240 q 601 31 688 78 q 394 -15 515 -15 m 422 51 q 574 89 514 51 q 671 192 635 126 q 724 342 707 257 q 743 525 740 428 q 724 710 747 639 q 649 816 701 782 q 508 850 596 850 q 363 812 424 850 q 264 707 303 774 q 207 553 225 640 q 189 368 189 467 q 210 190 189 260 q 283 85 232 119 q 422 51 335 51 m 686 982 q 637 1002 656 982 q 618 1057 618 1022 q 627 1095 618 1078 q 653 1123 636 1113 q 689 1133 669 1133 q 738 1114 721 1133 q 756 1063 756 1094 q 737 1006 756 1029 q 686 982 718 982 m 396 982 q 347 1002 365 982 q 329 1057 329 1022 q 338 1095 329 1078 q 364 1123 347 1113 q 400 1133 381 1133 q 449 1114 432 1133 q 467 1063 467 1094 q 448 1006 467 1029 q 396 982 429 982 z "},"Ȫ":{"ha":901,"x_min":81,"x_max":851,"o":"m 394 -15 q 219 29 289 -15 q 115 154 150 74 q 81 344 81 235 q 108 558 81 456 q 192 741 136 660 q 332 869 249 822 q 526 917 415 917 q 665 894 604 917 q 767 826 725 871 q 830 715 808 782 q 851 558 851 647 q 825 343 851 446 q 743 159 799 240 q 601 31 688 78 q 394 -15 515 -15 m 422 51 q 574 89 514 51 q 671 192 635 126 q 724 342 707 257 q 743 525 740 428 q 724 710 747 639 q 649 816 701 782 q 508 850 596 850 q 363 812 424 850 q 264 707 303 774 q 207 553 225 640 q 189 368 189 467 q 210 190 189 260 q 283 85 232 119 q 422 51 335 51 m 686 982 q 637 1002 656 982 q 618 1057 618 1022 q 627 1095 618 1078 q 653 1123 636 1113 q 689 1133 669 1133 q 738 1114 721 1133 q 756 1063 756 1094 q 737 1006 756 1029 q 686 982 718 982 m 396 982 q 347 1002 365 982 q 329 1057 329 1022 q 338 1095 329 1078 q 364 1123 347 1113 q 400 1133 381 1133 q 449 1114 432 1133 q 467 1063 467 1094 q 448 1006 467 1029 q 396 982 429 982 m 386 1233 l 397 1314 l 767 1314 l 757 1233 l 386 1233 z "},"Ȱ":{"ha":901,"x_min":81,"x_max":851,"o":"m 394 -15 q 219 29 289 -15 q 115 154 150 74 q 81 344 81 235 q 108 558 81 456 q 192 741 136 660 q 332 869 249 822 q 526 917 415 917 q 665 894 604 917 q 767 826 725 871 q 830 715 808 782 q 851 558 851 647 q 825 343 851 446 q 743 159 799 240 q 601 31 688 78 q 394 -15 515 -15 m 422 51 q 574 89 514 51 q 671 192 635 126 q 724 342 707 257 q 743 525 740 428 q 724 710 747 639 q 649 816 701 782 q 508 850 596 850 q 363 812 424 850 q 264 707 303 774 q 207 553 225 640 q 189 368 189 467 q 210 190 189 260 q 283 85 232 119 q 422 51 335 51 m 546 976 q 497 997 515 976 q 479 1044 479 1017 q 488 1085 479 1065 q 513 1117 496 1104 q 557 1131 531 1131 q 606 1111 588 1131 q 625 1060 625 1092 q 606 1003 625 1029 q 546 976 586 976 m 392 1231 l 403 1311 l 772 1311 l 763 1231 l 392 1231 z "},"Ọ":{"ha":901,"x_min":81,"x_max":851,"o":"m 394 -15 q 219 29 289 -15 q 115 154 150 74 q 81 344 81 235 q 108 558 81 456 q 192 741 136 660 q 332 869 249 822 q 526 917 415 917 q 665 894 604 917 q 767 826 725 871 q 830 715 808 782 q 851 558 851 647 q 825 343 851 446 q 743 159 799 240 q 601 31 688 78 q 394 -15 515 -15 m 422 51 q 574 89 514 51 q 671 192 635 126 q 724 342 707 257 q 743 525 740 428 q 724 710 747 639 q 649 816 701 782 q 508 850 596 850 q 363 812 424 850 q 264 707 303 774 q 207 553 225 640 q 189 368 189 467 q 210 190 189 260 q 283 85 232 119 q 422 51 335 51 m 399 -254 q 351 -235 369 -254 q 333 -187 333 -215 q 342 -149 333 -168 q 367 -117 350 -129 q 411 -104 385 -104 q 458 -122 439 -104 q 476 -172 476 -140 q 458 -228 476 -203 q 399 -254 439 -254 z "},"Ò":{"ha":901,"x_min":81,"x_max":851,"o":"m 394 -15 q 219 29 289 -15 q 115 154 150 74 q 81 344 81 235 q 108 558 81 456 q 192 741 136 660 q 332 869 249 822 q 526 917 415 917 q 665 894 604 917 q 767 826 725 871 q 830 715 808 782 q 851 558 851 647 q 825 343 851 446 q 743 159 799 240 q 601 31 688 78 q 394 -15 515 -15 m 422 51 q 574 89 514 51 q 671 192 635 126 q 724 342 707 257 q 743 525 740 428 q 724 710 747 639 q 649 816 701 782 q 508 850 596 850 q 363 812 424 850 q 264 707 303 774 q 207 553 225 640 q 189 368 189 467 q 210 190 189 260 q 283 85 232 119 q 422 51 335 51 m 629 949 l 457 1022 q 406 1052 426 1036 q 386 1096 386 1068 q 398 1131 386 1111 q 432 1160 410 1150 l 660 993 l 629 949 z "},"Ỏ":{"ha":901,"x_min":81,"x_max":851,"o":"m 394 -15 q 219 29 289 -15 q 115 154 150 74 q 81 344 81 235 q 108 558 81 456 q 192 741 136 660 q 332 869 249 822 q 526 917 415 917 q 665 894 604 917 q 767 826 725 871 q 830 715 808 782 q 851 558 851 647 q 825 343 851 446 q 743 159 799 240 q 601 31 688 78 q 394 -15 515 -15 m 422 51 q 574 89 514 51 q 671 192 635 126 q 724 342 707 257 q 743 525 740 428 q 724 710 747 639 q 649 816 701 782 q 508 850 596 850 q 363 812 424 850 q 264 707 303 774 q 207 553 225 640 q 189 368 189 467 q 210 190 189 260 q 283 85 232 119 q 422 51 335 51 m 504 939 q 502 949 503 944 q 501 960 501 954 q 516 990 501 976 q 561 1014 531 1004 q 607 1040 594 1026 q 619 1067 619 1054 q 604 1084 619 1076 q 551 1092 589 1092 q 508 1089 533 1092 q 461 1081 483 1086 q 456 1102 457 1092 q 454 1118 454 1113 q 470 1147 454 1131 q 539 1163 486 1163 q 662 1142 617 1163 q 707 1079 707 1121 q 684 1016 707 1043 q 613 975 661 989 q 578 957 585 967 q 569 939 571 947 l 504 939 z "},"Ơ":{"ha":901,"x_min":81,"x_max":864,"o":"m 394 -15 q 219 29 289 -15 q 115 154 150 74 q 81 344 81 235 q 108 558 81 456 q 192 741 136 660 q 332 869 249 822 q 526 917 415 917 q 665 894 604 917 q 767 826 725 871 q 830 715 808 782 q 851 558 851 647 q 825 343 851 446 q 743 159 799 240 q 601 31 688 78 q 394 -15 515 -15 m 422 51 q 574 89 514 51 q 671 192 635 126 q 724 342 707 257 q 743 525 740 428 q 724 710 747 639 q 649 816 701 782 q 508 850 596 850 q 363 812 424 850 q 264 707 303 774 q 207 553 225 640 q 189 368 189 467 q 210 190 189 260 q 283 85 232 119 q 422 51 335 51 m 639 849 l 646 900 q 739 906 708 900 q 779 925 769 913 q 789 957 789 938 q 778 985 789 974 q 749 1003 767 996 l 749 1024 l 819 1075 q 851 1047 838 1065 q 864 989 864 1028 q 853 952 864 975 q 817 906 843 929 q 748 865 792 882 q 639 849 704 849 z "},"Ớ":{"ha":901,"x_min":81,"x_max":864,"o":"m 394 -15 q 219 29 289 -15 q 115 154 150 74 q 81 344 81 235 q 108 558 81 456 q 192 741 136 660 q 332 869 249 822 q 526 917 415 917 q 665 894 604 917 q 767 826 725 871 q 830 715 808 782 q 851 558 851 647 q 825 343 851 446 q 743 159 799 240 q 601 31 688 78 q 394 -15 515 -15 m 422 51 q 574 89 514 51 q 671 192 635 126 q 724 342 707 257 q 743 525 740 428 q 724 710 747 639 q 649 816 701 782 q 508 850 596 850 q 363 812 424 850 q 264 707 303 774 q 207 553 225 640 q 189 368 189 467 q 210 190 189 260 q 283 85 232 119 q 422 51 335 51 m 639 849 l 646 900 q 739 906 708 900 q 779 925 769 913 q 789 957 789 938 q 778 985 789 974 q 749 1003 767 996 l 749 1024 l 819 1075 q 851 1047 838 1065 q 864 989 864 1028 q 853 952 864 975 q 817 906 843 929 q 748 865 792 882 q 639 849 704 849 m 472 949 l 442 993 l 669 1160 q 704 1131 693 1150 q 715 1096 715 1111 q 696 1052 715 1068 q 644 1022 676 1036 l 472 949 z "},"Ợ":{"ha":901,"x_min":81,"x_max":864,"o":"m 394 -15 q 219 29 289 -15 q 115 154 150 74 q 81 344 81 235 q 108 558 81 456 q 192 741 136 660 q 332 869 249 822 q 526 917 415 917 q 665 894 604 917 q 767 826 725 871 q 830 715 808 782 q 851 558 851 647 q 825 343 851 446 q 743 159 799 240 q 601 31 688 78 q 394 -15 515 -15 m 422 51 q 574 89 514 51 q 671 192 635 126 q 724 342 707 257 q 743 525 740 428 q 724 710 747 639 q 649 816 701 782 q 508 850 596 850 q 363 812 424 850 q 264 707 303 774 q 207 553 225 640 q 189 368 189 467 q 210 190 189 260 q 283 85 232 119 q 422 51 335 51 m 639 849 l 646 900 q 739 906 708 900 q 779 925 769 913 q 789 957 789 938 q 778 985 789 974 q 749 1003 767 996 l 749 1024 l 819 1075 q 851 1047 838 1065 q 864 989 864 1028 q 853 952 864 975 q 817 906 843 929 q 748 865 792 882 q 639 849 704 849 m 392 -254 q 344 -235 363 -254 q 326 -187 326 -215 q 335 -149 326 -168 q 360 -117 343 -129 q 404 -104 378 -104 q 451 -122 432 -104 q 469 -172 469 -140 q 451 -228 469 -203 q 392 -254 432 -254 z "},"Ờ":{"ha":901,"x_min":81,"x_max":864,"o":"m 394 -15 q 219 29 289 -15 q 115 154 150 74 q 81 344 81 235 q 108 558 81 456 q 192 741 136 660 q 332 869 249 822 q 526 917 415 917 q 665 894 604 917 q 767 826 725 871 q 830 715 808 782 q 851 558 851 647 q 825 343 851 446 q 743 159 799 240 q 601 31 688 78 q 394 -15 515 -15 m 422 51 q 574 89 514 51 q 671 192 635 126 q 724 342 707 257 q 743 525 740 428 q 724 710 747 639 q 649 816 701 782 q 508 850 596 850 q 363 812 424 850 q 264 707 303 774 q 207 553 225 640 q 189 368 189 467 q 210 190 189 260 q 283 85 232 119 q 422 51 335 51 m 639 849 l 646 900 q 739 906 708 900 q 779 925 769 913 q 789 957 789 938 q 778 985 789 974 q 749 1003 767 996 l 749 1024 l 819 1075 q 851 1047 838 1065 q 864 989 864 1028 q 853 952 864 975 q 817 906 843 929 q 748 865 792 882 q 639 849 704 849 m 629 949 l 457 1022 q 406 1052 426 1036 q 386 1096 386 1068 q 398 1131 386 1111 q 432 1160 410 1150 l 660 993 l 629 949 z "},"Ở":{"ha":901,"x_min":81,"x_max":864,"o":"m 394 -15 q 219 29 289 -15 q 115 154 150 74 q 81 344 81 235 q 108 558 81 456 q 192 741 136 660 q 332 869 249 822 q 526 917 415 917 q 665 894 604 917 q 767 826 725 871 q 830 715 808 782 q 851 558 851 647 q 825 343 851 446 q 743 159 799 240 q 601 31 688 78 q 394 -15 515 -15 m 422 51 q 574 89 514 51 q 671 192 635 126 q 724 342 707 257 q 743 525 740 428 q 724 710 747 639 q 649 816 701 782 q 508 850 596 850 q 363 812 424 850 q 264 707 303 774 q 207 553 225 640 q 189 368 189 467 q 210 190 189 260 q 283 85 232 119 q 422 51 335 51 m 639 849 l 646 900 q 739 906 708 900 q 779 925 769 913 q 789 957 789 938 q 778 985 789 974 q 749 1003 767 996 l 749 1024 l 819 1075 q 851 1047 838 1065 q 864 989 864 1028 q 853 952 864 975 q 817 906 843 929 q 748 865 792 882 q 639 849 704 849 m 504 939 q 502 949 503 944 q 501 960 501 954 q 516 990 501 976 q 561 1014 531 1004 q 607 1040 594 1026 q 619 1067 619 1054 q 604 1084 619 1076 q 551 1092 589 1092 q 508 1089 533 1092 q 461 1081 483 1086 q 456 1102 457 1092 q 454 1118 454 1113 q 470 1147 454 1131 q 539 1163 486 1163 q 662 1142 617 1163 q 707 1079 707 1121 q 684 1016 707 1043 q 613 975 661 989 q 578 957 585 967 q 569 939 571 947 l 504 939 z "},"Ỡ":{"ha":901,"x_min":81,"x_max":864,"o":"m 632 985 q 590 995 615 985 q 544 1014 565 1006 l 460 1049 l 393 992 l 368 1025 l 406 1089 q 432 1121 418 1108 q 465 1133 446 1133 q 505 1124 479 1133 q 551 1104 531 1114 l 635 1069 l 703 1128 l 728 1093 l 689 1029 q 664 998 678 1011 q 632 985 650 985 m 394 -15 q 219 29 289 -15 q 115 154 150 74 q 81 344 81 235 q 108 558 81 456 q 192 741 136 660 q 332 869 249 822 q 526 917 415 917 q 665 894 604 917 q 767 826 725 871 q 830 715 808 782 q 851 558 851 647 q 825 343 851 446 q 743 159 799 240 q 601 31 688 78 q 394 -15 515 -15 m 422 51 q 574 89 514 51 q 671 192 635 126 q 724 342 707 257 q 743 525 740 428 q 724 710 747 639 q 649 816 701 782 q 508 850 596 850 q 363 812 424 850 q 264 707 303 774 q 207 553 225 640 q 189 368 189 467 q 210 190 189 260 q 283 85 232 119 q 422 51 335 51 m 639 849 l 646 900 q 739 906 708 900 q 779 925 769 913 q 789 957 789 938 q 778 985 789 974 q 749 1003 767 996 l 749 1024 l 819 1075 q 851 1047 838 1065 q 864 989 864 1028 q 853 952 864 975 q 817 906 843 929 q 748 865 792 882 q 639 849 704 849 z "},"Ő":{"ha":901,"x_min":81,"x_max":851,"o":"m 394 -15 q 219 29 289 -15 q 115 154 150 74 q 81 344 81 235 q 108 558 81 456 q 192 741 136 660 q 332 869 249 822 q 526 917 415 917 q 665 894 604 917 q 767 826 725 871 q 830 715 808 782 q 851 558 851 647 q 825 343 851 446 q 743 159 799 240 q 601 31 688 78 q 394 -15 515 -15 m 422 51 q 574 89 514 51 q 671 192 635 126 q 724 342 707 257 q 743 525 740 428 q 724 710 747 639 q 649 816 701 782 q 508 850 596 850 q 363 812 424 850 q 264 707 303 774 q 207 553 225 640 q 189 368 189 467 q 210 190 189 260 q 283 85 232 119 q 422 51 335 51 m 622 944 l 586 975 l 710 1158 q 751 1143 738 1153 q 767 1122 764 1133 q 771 1100 771 1111 q 752 1063 771 1085 q 701 1013 733 1040 l 622 944 m 421 944 l 385 975 l 508 1158 q 549 1143 536 1153 q 566 1122 563 1133 q 569 1100 569 1111 q 551 1063 569 1085 q 500 1013 532 1040 l 421 944 z "},"Ȏ":{"ha":901,"x_min":81,"x_max":851,"o":"m 597 1149 q 689 1127 654 1149 q 740 1077 724 1106 q 756 1028 756 1049 q 735 998 756 1013 q 696 975 714 983 q 681 1008 694 985 q 642 1051 668 1031 q 571 1072 615 1072 q 480 1051 519 1072 q 415 1006 440 1031 q 379 971 389 982 l 353 996 q 459 1108 393 1067 q 597 1149 525 1149 m 394 -15 q 219 29 289 -15 q 115 154 150 74 q 81 344 81 235 q 108 558 81 456 q 192 741 136 660 q 332 869 249 822 q 526 917 415 917 q 665 894 604 917 q 767 826 725 871 q 830 715 808 782 q 851 558 851 647 q 825 343 851 446 q 743 159 799 240 q 601 31 688 78 q 394 -15 515 -15 m 422 51 q 574 89 514 51 q 671 192 635 126 q 724 342 707 257 q 743 525 740 428 q 724 710 747 639 q 649 816 701 782 q 508 850 596 850 q 363 812 424 850 q 264 707 303 774 q 207 553 225 640 q 189 368 189 467 q 210 190 189 260 q 283 85 232 119 q 422 51 335 51 z "},"Ō":{"ha":901,"x_min":81,"x_max":851,"o":"m 394 -15 q 219 29 289 -15 q 115 154 150 74 q 81 344 81 235 q 108 558 81 456 q 192 741 136 660 q 332 869 249 822 q 526 917 415 917 q 665 894 604 917 q 767 826 725 871 q 830 715 808 782 q 851 558 851 647 q 825 343 851 446 q 743 159 799 240 q 601 31 688 78 q 394 -15 515 -15 m 422 51 q 574 89 514 51 q 671 192 635 126 q 724 342 707 257 q 743 525 740 428 q 724 710 747 639 q 649 816 701 782 q 508 850 596 850 q 363 812 424 850 q 264 707 303 774 q 207 553 225 640 q 189 368 189 467 q 210 190 189 260 q 283 85 232 119 q 422 51 335 51 m 360 1000 l 371 1081 l 740 1081 l 731 1000 l 360 1000 z "},"Ǫ":{"ha":901,"x_min":81,"x_max":851,"o":"m 394 -15 q 219 29 289 -15 q 115 154 150 74 q 81 344 81 235 q 108 558 81 456 q 192 741 136 660 q 332 869 249 822 q 526 917 415 917 q 665 894 604 917 q 767 826 725 871 q 830 715 808 782 q 851 558 851 647 q 825 343 851 446 q 743 159 799 240 q 601 31 688 78 q 394 -15 515 -15 m 422 51 q 574 89 514 51 q 671 192 635 126 q 724 342 707 257 q 743 525 740 428 q 724 710 747 639 q 649 816 701 782 q 508 850 596 850 q 363 812 424 850 q 264 707 303 774 q 207 553 225 640 q 189 368 189 467 q 210 190 189 260 q 283 85 232 119 q 422 51 335 51 m 465 -243 q 397 -226 426 -243 q 368 -158 368 -210 q 384 -91 368 -124 q 431 -30 400 -58 q 504 18 461 -1 l 551 18 q 518 -6 536 10 q 484 -40 500 -21 q 458 -83 468 -60 q 449 -129 449 -106 q 465 -167 449 -156 q 503 -178 481 -178 q 549 -169 525 -178 q 590 -150 572 -161 l 610 -179 q 588 -198 607 -182 q 536 -228 568 -214 q 465 -243 504 -243 z "},"Ø":{"ha":900,"x_min":81,"x_max":851,"o":"m 254 -125 l 189 -93 l 239 18 q 121 143 161 58 q 81 344 81 228 q 108 551 81 450 q 192 735 136 653 q 332 867 249 818 q 526 917 415 917 q 589 913 558 917 q 646 900 619 908 l 696 1010 l 758 981 l 708 874 q 786 801 754 846 q 835 697 818 757 q 851 558 851 636 q 824 352 851 454 q 742 167 797 250 q 600 34 686 83 q 394 -15 514 -15 q 350 -12 372 -15 q 307 -6 328 -10 l 254 -125 m 271 88 l 613 831 q 494 850 563 850 q 319 789 388 850 q 220 624 251 728 q 189 390 189 519 q 207 203 189 278 q 271 88 225 129 m 436 51 q 619 117 551 51 q 715 292 686 182 q 743 539 743 403 q 727 694 743 631 q 674 796 711 758 l 338 61 q 383 53 360 56 q 436 51 407 51 z "},"Ǿ":{"ha":900,"x_min":81,"x_max":851,"o":"m 254 -125 l 189 -93 l 239 18 q 121 143 161 58 q 81 344 81 228 q 108 551 81 450 q 192 735 136 653 q 332 867 249 818 q 526 917 415 917 q 589 913 558 917 q 646 900 619 908 l 696 1010 l 758 981 l 708 874 q 786 801 754 846 q 835 697 818 757 q 851 558 851 636 q 824 352 851 454 q 742 167 797 250 q 600 34 686 83 q 394 -15 514 -15 q 350 -12 372 -15 q 307 -6 328 -10 l 254 -125 m 271 88 l 613 831 q 494 850 563 850 q 319 789 388 850 q 220 624 251 728 q 189 390 189 519 q 207 203 189 278 q 271 88 225 129 m 436 51 q 619 117 551 51 q 715 292 686 182 q 743 539 743 403 q 727 694 743 631 q 674 796 711 758 l 338 61 q 383 53 360 56 q 436 51 407 51 m 424 949 l 393 993 l 621 1160 q 656 1131 644 1150 q 667 1096 667 1111 q 647 1052 667 1068 q 596 1022 628 1036 l 424 949 z "},"Õ":{"ha":901,"x_min":81,"x_max":851,"o":"m 394 -15 q 219 29 289 -15 q 115 154 150 74 q 81 344 81 235 q 108 558 81 456 q 192 741 136 660 q 332 869 249 822 q 526 917 415 917 q 665 894 604 917 q 767 826 725 871 q 830 715 808 782 q 851 558 851 647 q 825 343 851 446 q 743 159 799 240 q 601 31 688 78 q 394 -15 515 -15 m 422 51 q 574 89 514 51 q 671 192 635 126 q 724 342 707 257 q 743 525 740 428 q 724 710 747 639 q 649 816 701 782 q 508 850 596 850 q 363 812 424 850 q 264 707 303 774 q 207 553 225 640 q 189 368 189 467 q 210 190 189 260 q 283 85 232 119 q 422 51 335 51 m 658 985 q 608 995 639 985 q 550 1014 576 1006 l 443 1049 l 360 992 l 329 1025 l 376 1089 q 409 1121 392 1108 q 450 1133 426 1133 q 500 1124 468 1133 q 558 1104 532 1114 l 663 1069 l 747 1128 l 778 1093 l 731 1029 q 699 998 717 1011 q 658 985 682 985 z "},"Ȭ":{"ha":901,"x_min":81,"x_max":851,"o":"m 394 -15 q 219 29 289 -15 q 115 154 150 74 q 81 344 81 235 q 108 558 81 456 q 192 741 136 660 q 332 869 249 822 q 526 917 415 917 q 665 894 604 917 q 767 826 725 871 q 830 715 808 782 q 851 558 851 647 q 825 343 851 446 q 743 159 799 240 q 601 31 688 78 q 394 -15 515 -15 m 422 51 q 574 89 514 51 q 671 192 635 126 q 724 342 707 257 q 743 525 740 428 q 724 710 747 639 q 649 816 701 782 q 508 850 596 850 q 363 812 424 850 q 264 707 303 774 q 207 553 225 640 q 189 368 189 467 q 210 190 189 260 q 283 85 232 119 q 422 51 335 51 m 658 985 q 608 995 639 985 q 550 1014 576 1006 l 443 1049 l 360 992 l 329 1025 l 376 1089 q 409 1121 392 1108 q 450 1133 426 1133 q 500 1124 468 1133 q 558 1104 532 1114 l 663 1069 l 747 1128 l 778 1093 l 731 1029 q 699 998 717 1011 q 658 985 682 985 m 392 1233 l 403 1314 l 772 1314 l 763 1233 l 392 1233 z "},"Œ":{"ha":1110,"x_min":81,"x_max":1082,"o":"m 404 0 q 226 40 299 0 q 117 158 154 81 q 81 344 81 235 q 110 551 81 451 q 197 729 139 650 q 340 854 254 808 q 538 900 425 900 l 1082 900 l 1056 692 l 993 692 l 993 843 l 854 843 l 736 838 l 688 494 l 875 494 l 904 575 l 946 575 l 919 361 l 876 361 l 868 440 l 681 440 l 625 63 q 680 58 642 60 q 758 56 718 56 l 903 56 l 956 203 l 1008 203 l 982 0 l 404 0 m 442 60 q 496 60 474 60 q 536 64 518 61 l 643 832 q 581 842 613 839 q 513 846 550 846 q 366 811 428 846 q 265 715 304 776 q 208 570 226 653 q 189 390 189 488 q 202 230 189 294 q 245 128 215 165 q 324 76 275 92 q 442 60 372 60 z "},"P":{"ha":694,"x_min":35,"x_max":703,"o":"m 35 0 l 39 44 l 138 64 l 247 836 l 156 856 l 160 900 l 424 900 q 633 843 563 900 q 703 671 703 786 q 666 519 703 588 q 559 411 629 451 q 388 371 489 371 q 358 372 374 371 q 326 375 342 374 l 326 417 q 604 661 604 417 q 585 764 604 724 q 526 823 565 804 q 422 842 486 842 q 339 832 378 842 l 231 64 l 340 44 l 338 0 l 35 0 z "},"Þ":{"ha":671,"x_min":36,"x_max":653,"o":"m 36 0 l 40 44 l 139 64 l 247 836 l 154 856 l 158 900 l 443 900 l 439 856 l 340 836 l 321 696 l 410 696 q 535 675 481 696 q 622 607 590 654 q 653 481 653 560 q 624 359 653 408 q 551 280 596 310 q 458 237 507 250 q 367 224 408 224 q 301 226 328 224 q 256 235 274 229 l 231 64 l 325 44 l 322 0 l 36 0 m 331 274 q 457 298 408 274 q 528 369 506 322 q 551 482 551 415 q 528 583 551 550 q 466 627 504 617 q 385 638 428 638 q 344 635 363 638 q 310 629 325 633 l 261 282 q 292 276 275 278 q 331 274 308 274 z "},"Q":{"ha":901,"x_min":81,"x_max":851,"o":"m 689 -221 q 646 -215 671 -221 q 593 -203 621 -208 l 358 -150 l 282 -185 l 257 -156 l 397 -4 l 460 -1 l 390 -74 q 424 -79 406 -75 q 460 -87 442 -83 l 694 -140 l 778 -101 l 806 -132 l 754 -199 q 723 -218 742 -215 q 689 -221 704 -221 m 394 -15 q 219 29 289 -15 q 115 154 150 74 q 81 344 81 235 q 108 558 81 456 q 192 741 136 660 q 332 869 249 822 q 526 917 415 917 q 665 894 604 917 q 767 826 725 871 q 830 715 808 782 q 851 558 851 647 q 825 343 851 446 q 743 159 799 240 q 601 31 688 78 q 394 -15 515 -15 m 422 51 q 574 89 514 51 q 671 192 635 126 q 724 342 707 257 q 743 525 740 428 q 724 710 747 639 q 649 816 701 782 q 508 850 596 850 q 363 812 424 850 q 264 707 303 774 q 207 553 225 640 q 189 368 189 467 q 210 190 189 260 q 283 85 232 119 q 422 51 335 51 z "},"R":{"ha":724,"x_min":36,"x_max":708,"o":"m 36 0 l 39 44 l 138 64 l 247 836 l 156 856 l 160 900 l 439 900 q 578 876 524 900 q 660 806 633 851 q 686 699 686 761 q 651 559 686 621 q 553 459 615 497 q 410 414 492 421 q 463 376 440 400 q 507 299 485 351 l 600 88 l 708 47 l 706 0 l 593 0 q 548 12 564 0 q 518 54 532 24 l 403 313 q 353 382 381 364 q 275 400 326 400 l 231 67 l 328 47 l 324 0 l 36 0 m 283 453 q 509 507 431 453 q 588 688 588 561 q 547 805 588 768 q 417 842 506 842 q 366 839 386 842 q 339 833 346 836 l 283 453 z "},"Ŕ":{"ha":724,"x_min":36,"x_max":708,"o":"m 36 0 l 39 44 l 138 64 l 247 836 l 156 856 l 160 900 l 439 900 q 578 876 524 900 q 660 806 633 851 q 686 699 686 761 q 651 559 686 621 q 553 459 615 497 q 410 414 492 421 q 463 376 440 400 q 507 299 485 351 l 600 88 l 708 47 l 706 0 l 593 0 q 548 12 564 0 q 518 54 532 24 l 403 313 q 353 382 381 364 q 275 400 326 400 l 231 67 l 328 47 l 324 0 l 36 0 m 283 453 q 509 507 431 453 q 588 688 588 561 q 547 805 588 768 q 417 842 506 842 q 366 839 386 842 q 339 833 346 836 l 283 453 m 392 949 l 361 993 l 589 1160 q 624 1131 613 1150 q 635 1096 635 1111 q 615 1052 635 1068 q 564 1022 596 1036 l 392 949 z "},"Ř":{"ha":724,"x_min":36,"x_max":708,"o":"m 36 0 l 39 44 l 138 64 l 247 836 l 156 856 l 160 900 l 439 900 q 578 876 524 900 q 660 806 633 851 q 686 699 686 761 q 651 559 686 621 q 553 459 615 497 q 410 414 492 421 q 463 376 440 400 q 507 299 485 351 l 600 88 l 708 47 l 706 0 l 593 0 q 548 12 564 0 q 518 54 532 24 l 403 313 q 353 382 381 364 q 275 400 326 400 l 231 67 l 328 47 l 324 0 l 36 0 m 283 453 q 509 507 431 453 q 588 688 588 561 q 547 805 588 768 q 417 842 506 842 q 366 839 386 842 q 339 833 346 836 l 283 453 m 450 961 q 425 977 443 961 q 390 1010 407 993 q 367 1033 372 1028 l 300 1108 l 350 1158 l 468 1060 l 615 1164 l 647 1121 l 561 1040 q 500 987 522 1004 q 467 965 478 969 q 450 961 456 961 z "},"Ŗ":{"ha":724,"x_min":36,"x_max":708,"o":"m 36 0 l 39 44 l 138 64 l 247 836 l 156 856 l 160 900 l 439 900 q 578 876 524 900 q 660 806 633 851 q 686 699 686 761 q 651 559 686 621 q 553 459 615 497 q 410 414 492 421 q 463 376 440 400 q 507 299 485 351 l 600 88 l 708 47 l 706 0 l 593 0 q 548 12 564 0 q 518 54 532 24 l 403 313 q 353 382 381 364 q 275 400 326 400 l 231 67 l 328 47 l 324 0 l 36 0 m 283 453 q 509 507 431 453 q 588 688 588 561 q 547 805 588 768 q 417 842 506 842 q 366 839 386 842 q 339 833 346 836 l 283 453 m 293 -251 q 319 -210 310 -235 q 329 -162 329 -185 q 323 -128 329 -144 q 301 -97 317 -111 q 335 -75 318 -81 q 364 -69 353 -69 q 405 -87 393 -69 q 417 -126 417 -106 q 394 -196 417 -160 q 339 -251 371 -232 l 293 -251 z "},"Ȑ":{"ha":724,"x_min":36,"x_max":708,"o":"m 343 944 l 283 1013 q 247 1063 260 1040 q 239 1100 233 1085 q 249 1122 242 1111 q 271 1143 256 1133 q 315 1158 286 1153 l 388 975 l 343 944 m 544 944 l 485 1013 q 448 1063 461 1040 q 440 1100 435 1085 q 450 1122 443 1111 q 472 1143 457 1133 q 517 1158 488 1153 l 589 975 l 544 944 m 36 0 l 39 44 l 138 64 l 247 836 l 156 856 l 160 900 l 439 900 q 578 876 524 900 q 660 806 633 851 q 686 699 686 761 q 651 559 686 621 q 553 459 615 497 q 410 414 492 421 q 463 376 440 400 q 507 299 485 351 l 600 88 l 708 47 l 706 0 l 593 0 q 548 12 564 0 q 518 54 532 24 l 403 313 q 353 382 381 364 q 275 400 326 400 l 231 67 l 328 47 l 324 0 l 36 0 m 283 453 q 509 507 431 453 q 588 688 588 561 q 547 805 588 768 q 417 842 506 842 q 366 839 386 842 q 339 833 346 836 l 283 453 z "},"Ȓ":{"ha":724,"x_min":36,"x_max":708,"o":"m 517 1149 q 608 1127 574 1149 q 659 1077 643 1106 q 675 1028 675 1049 q 654 998 675 1013 q 615 975 633 983 q 601 1008 614 985 q 561 1051 588 1031 q 490 1072 535 1072 q 399 1051 439 1072 q 334 1006 360 1031 q 299 971 308 982 l 272 996 q 378 1108 313 1067 q 517 1149 444 1149 m 36 0 l 39 44 l 138 64 l 247 836 l 156 856 l 160 900 l 439 900 q 578 876 524 900 q 660 806 633 851 q 686 699 686 761 q 651 559 686 621 q 553 459 615 497 q 410 414 492 421 q 463 376 440 400 q 507 299 485 351 l 600 88 l 708 47 l 706 0 l 593 0 q 548 12 564 0 q 518 54 532 24 l 403 313 q 353 382 381 364 q 275 400 326 400 l 231 67 l 328 47 l 324 0 l 36 0 m 283 453 q 509 507 431 453 q 588 688 588 561 q 547 805 588 768 q 417 842 506 842 q 366 839 386 842 q 339 833 346 836 l 283 453 z "},"S":{"ha":626,"x_min":29,"x_max":608,"o":"m 236 -15 q 153 -4 196 -15 q 76 23 110 7 q 29 53 43 39 l 51 236 l 111 236 l 126 85 q 173 60 142 69 q 250 50 204 50 q 410 95 364 50 q 456 224 456 140 q 432 306 456 268 q 371 377 408 343 q 292 444 333 411 q 229 498 260 471 q 174 554 199 525 q 134 618 149 583 q 119 693 119 653 q 158 822 119 774 q 260 894 196 871 q 404 917 325 917 q 517 906 461 917 q 608 882 574 896 l 585 683 l 531 683 l 521 826 q 458 844 496 838 q 389 850 421 850 q 256 817 300 850 q 213 722 213 785 q 235 646 213 682 q 293 576 257 610 q 369 510 329 543 q 455 434 414 474 q 522 349 496 394 q 549 249 549 304 q 513 109 549 168 q 407 17 476 50 q 236 -15 338 -15 z "},"Ś":{"ha":626,"x_min":29,"x_max":608,"o":"m 236 -15 q 153 -4 196 -15 q 76 23 110 7 q 29 53 43 39 l 51 236 l 111 236 l 126 85 q 173 60 142 69 q 250 50 204 50 q 410 95 364 50 q 456 224 456 140 q 432 306 456 268 q 371 377 408 343 q 292 444 333 411 q 229 498 260 471 q 174 554 199 525 q 134 618 149 583 q 119 693 119 653 q 158 822 119 774 q 260 894 196 871 q 404 917 325 917 q 517 906 461 917 q 608 882 574 896 l 585 683 l 531 683 l 521 826 q 458 844 496 838 q 389 850 421 850 q 256 817 300 850 q 213 722 213 785 q 235 646 213 682 q 293 576 257 610 q 369 510 329 543 q 455 434 414 474 q 522 349 496 394 q 549 249 549 304 q 513 109 549 168 q 407 17 476 50 q 236 -15 338 -15 m 344 949 l 314 993 l 542 1160 q 576 1131 565 1150 q 588 1096 588 1111 q 568 1052 588 1068 q 517 1022 549 1036 l 344 949 z "},"Ꞌ":{"ha":167,"x_min":49,"x_max":217,"o":"m 49 494 l 106 899 q 147 912 129 908 q 179 915 165 915 q 210 903 204 915 q 217 879 217 890 q 211 844 217 867 q 199 795 206 821 q 185 750 192 769 l 100 494 l 49 494 z "},"Š":{"ha":626,"x_min":29,"x_max":608,"o":"m 236 -15 q 153 -4 196 -15 q 76 23 110 7 q 29 53 43 39 l 51 236 l 111 236 l 126 85 q 173 60 142 69 q 250 50 204 50 q 410 95 364 50 q 456 224 456 140 q 432 306 456 268 q 371 377 408 343 q 292 444 333 411 q 229 498 260 471 q 174 554 199 525 q 134 618 149 583 q 119 693 119 653 q 158 822 119 774 q 260 894 196 871 q 404 917 325 917 q 517 906 461 917 q 608 882 574 896 l 585 683 l 531 683 l 521 826 q 458 844 496 838 q 389 850 421 850 q 256 817 300 850 q 213 722 213 785 q 235 646 213 682 q 293 576 257 610 q 369 510 329 543 q 455 434 414 474 q 522 349 496 394 q 549 249 549 304 q 513 109 549 168 q 407 17 476 50 q 236 -15 338 -15 m 403 961 q 378 977 396 961 q 342 1010 360 993 q 319 1033 325 1028 l 253 1108 l 303 1158 l 421 1060 l 568 1164 l 600 1121 l 514 1040 q 453 987 475 1004 q 419 965 431 969 q 403 961 408 961 z "},"Ş":{"ha":626,"x_min":17,"x_max":596,"o":"m 200 -257 q 137 -243 164 -257 q 94 -217 110 -229 l 121 -182 q 149 -198 133 -192 q 199 -204 165 -204 q 251 -196 235 -204 q 268 -169 268 -187 q 258 -149 268 -158 q 236 -132 247 -139 l 163 -93 l 163 -68 l 201 -14 q 90 11 143 -11 q 17 53 36 33 l 39 236 l 99 236 l 114 85 q 159 60 129 69 q 224 50 189 50 q 395 95 347 50 q 443 224 443 140 q 420 297 443 261 q 363 365 397 332 q 297 424 329 397 q 235 476 268 447 q 173 537 201 504 q 126 606 144 569 q 107 682 107 643 q 145 819 107 768 q 248 894 183 871 q 392 917 313 917 q 505 906 449 917 q 596 882 561 896 l 572 683 l 518 683 l 508 826 q 446 844 483 838 q 376 850 408 850 q 244 817 288 850 q 200 722 200 785 q 224 647 200 683 q 286 574 247 610 q 371 499 325 538 q 450 426 413 464 q 512 344 488 388 q 536 253 536 301 q 506 119 536 176 q 415 28 475 63 q 268 -14 356 -6 l 268 -40 l 315 -71 q 342 -97 332 -81 q 353 -132 353 -112 q 328 -213 353 -186 q 267 -249 303 -240 q 200 -257 232 -257 z "},"Ŝ":{"ha":626,"x_min":29,"x_max":608,"o":"m 236 -15 q 153 -4 196 -15 q 76 23 110 7 q 29 53 43 39 l 51 236 l 111 236 l 126 85 q 173 60 142 69 q 250 50 204 50 q 410 95 364 50 q 456 224 456 140 q 432 306 456 268 q 371 377 408 343 q 292 444 333 411 q 229 498 260 471 q 174 554 199 525 q 134 618 149 583 q 119 693 119 653 q 158 822 119 774 q 260 894 196 871 q 404 917 325 917 q 517 906 461 917 q 608 882 574 896 l 585 683 l 531 683 l 521 826 q 458 844 496 838 q 389 850 421 850 q 256 817 300 850 q 213 722 213 785 q 235 646 213 682 q 293 576 257 610 q 369 510 329 543 q 455 434 414 474 q 522 349 496 394 q 549 249 549 304 q 513 109 549 168 q 407 17 476 50 q 236 -15 338 -15 m 544 961 l 404 1057 l 254 971 l 221 1015 l 319 1089 q 382 1135 363 1121 q 409 1153 401 1149 q 419 1157 417 1157 q 447 1141 426 1157 q 488 1108 467 1125 q 514 1085 508 1090 l 589 1017 l 544 961 z "},"Ș":{"ha":626,"x_min":29,"x_max":608,"o":"m 236 -15 q 153 -4 196 -15 q 76 23 110 7 q 29 53 43 39 l 51 236 l 111 236 l 126 85 q 173 60 142 69 q 250 50 204 50 q 410 95 364 50 q 456 224 456 140 q 432 306 456 268 q 371 377 408 343 q 292 444 333 411 q 229 498 260 471 q 174 554 199 525 q 134 618 149 583 q 119 693 119 653 q 158 822 119 774 q 260 894 196 871 q 404 917 325 917 q 517 906 461 917 q 608 882 574 896 l 585 683 l 531 683 l 521 826 q 458 844 496 838 q 389 850 421 850 q 256 817 300 850 q 213 722 213 785 q 235 646 213 682 q 293 576 257 610 q 369 510 329 543 q 455 434 414 474 q 522 349 496 394 q 549 249 549 304 q 513 109 549 168 q 407 17 476 50 q 236 -15 338 -15 m 182 -251 q 208 -210 199 -235 q 218 -162 218 -185 q 212 -128 218 -144 q 190 -97 206 -111 q 224 -75 207 -81 q 253 -69 242 -69 q 294 -87 282 -69 q 306 -126 306 -106 q 283 -196 306 -160 q 228 -251 260 -232 l 182 -251 z "},"ẞ":{"ha":919,"x_min":-4,"x_max":878,"o":"m 586 -15 q 499 -4 543 -15 q 422 23 456 7 q 374 53 388 39 l 394 236 l 456 236 l 471 85 q 514 60 483 71 q 588 50 544 50 q 738 94 694 50 q 781 222 781 138 q 763 290 781 260 q 713 344 746 321 q 629 381 679 367 q 513 401 579 396 l 492 456 l 739 797 l 725 822 q 649 833 690 829 q 568 838 608 838 q 392 797 456 838 q 297 683 328 756 q 253 514 267 611 l 190 64 l 307 44 l 304 0 l -4 0 l 0 44 l 99 64 l 154 475 q 225 702 172 603 q 369 858 278 801 q 592 915 461 915 q 676 912 629 915 q 770 903 724 908 q 847 890 817 897 l 878 838 l 611 475 l 615 465 q 742 431 683 457 q 837 358 800 406 q 874 235 874 311 q 840 99 874 156 q 742 14 807 43 q 586 -15 678 -15 z "},"Ə":{"ha":851,"x_min":81,"x_max":803,"o":"m 371 -15 q 209 29 274 -15 q 113 154 144 74 q 81 344 81 235 q 85 423 81 385 q 96 500 89 461 l 694 500 q 694 522 694 511 q 694 543 694 532 q 669 718 694 650 q 586 819 643 786 q 433 851 529 851 q 322 833 361 851 q 274 808 282 815 l 231 682 l 181 682 l 200 857 q 295 894 231 872 q 457 917 360 917 q 715 823 626 917 q 803 563 803 729 q 777 353 803 456 q 699 167 751 250 q 565 34 647 83 q 371 -15 483 -15 m 413 51 q 562 100 504 51 q 650 233 619 149 q 689 426 681 318 l 185 426 q 183 409 183 418 q 183 390 183 400 q 202 201 183 276 q 271 88 221 125 q 413 51 321 51 z "},"T":{"ha":643,"x_min":58,"x_max":710,"o":"m 136 0 l 140 44 l 239 64 l 347 836 l 165 836 l 114 679 l 58 679 l 85 900 l 710 900 l 671 679 l 603 679 l 614 836 l 440 836 l 331 64 l 425 44 l 422 0 l 136 0 z "},"Ŧ":{"ha":643,"x_min":58,"x_max":710,"o":"m 82 414 l 94 486 l 603 486 l 590 414 l 82 414 m 136 0 l 140 44 l 239 64 l 347 836 l 165 836 l 114 679 l 58 679 l 85 900 l 710 900 l 671 679 l 603 679 l 614 836 l 440 836 l 331 64 l 425 44 l 422 0 l 136 0 z "},"Ť":{"ha":643,"x_min":58,"x_max":710,"o":"m 136 0 l 140 44 l 239 64 l 347 836 l 165 836 l 114 679 l 58 679 l 85 900 l 710 900 l 671 679 l 603 679 l 614 836 l 440 836 l 331 64 l 425 44 l 422 0 l 136 0 m 408 961 q 383 977 401 961 q 348 1010 365 993 q 325 1033 331 1028 l 258 1108 l 308 1158 l 426 1060 l 574 1164 l 606 1121 l 519 1040 q 458 987 481 1004 q 425 965 436 969 q 408 961 414 961 z "},"Ţ":{"ha":643,"x_min":58,"x_max":710,"o":"m 136 0 l 140 44 l 239 64 l 347 836 l 165 836 l 114 679 l 58 679 l 85 900 l 710 900 l 671 679 l 603 679 l 614 836 l 440 836 l 331 64 l 425 44 l 422 0 l 136 0 m 244 -257 q 169 -243 197 -257 q 125 -217 140 -229 l 151 -182 q 192 -200 167 -193 q 239 -207 217 -207 q 282 -197 264 -207 q 300 -165 300 -187 q 289 -140 300 -150 q 257 -121 278 -131 l 193 -87 l 193 -68 l 244 0 l 299 0 l 276 -46 l 313 -62 q 363 -97 344 -76 q 381 -146 381 -118 q 342 -226 381 -196 q 244 -257 304 -257 z "},"Ț":{"ha":643,"x_min":58,"x_max":710,"o":"m 136 0 l 140 44 l 239 64 l 347 836 l 165 836 l 114 679 l 58 679 l 85 900 l 710 900 l 671 679 l 603 679 l 614 836 l 440 836 l 331 64 l 425 44 l 422 0 l 136 0 m 193 -251 q 219 -210 210 -235 q 229 -162 229 -185 q 223 -128 229 -144 q 201 -97 217 -111 q 235 -75 218 -81 q 264 -69 253 -69 q 305 -87 293 -69 q 317 -126 317 -106 q 294 -196 317 -160 q 239 -251 271 -232 l 193 -251 z "},"U":{"ha":851,"x_min":99,"x_max":906,"o":"m 368 -15 q 258 1 306 -15 q 177 50 210 18 q 128 128 144 82 q 113 232 113 174 q 125 389 113 304 l 188 836 l 99 856 l 103 900 l 389 900 l 385 856 l 283 836 l 221 383 q 213 315 215 346 q 211 254 211 285 q 228 138 211 181 q 287 76 244 94 q 404 57 329 57 q 541 99 490 57 q 619 214 592 140 q 658 383 646 288 l 721 835 l 629 856 l 633 900 l 906 900 l 900 856 l 800 835 l 739 388 q 682 165 721 254 q 569 30 643 75 q 368 -15 494 -15 z "},"Ú":{"ha":851,"x_min":99,"x_max":906,"o":"m 368 -15 q 258 1 306 -15 q 177 50 210 18 q 128 128 144 82 q 113 232 113 174 q 125 389 113 304 l 188 836 l 99 856 l 103 900 l 389 900 l 385 856 l 283 836 l 221 383 q 213 315 215 346 q 211 254 211 285 q 228 138 211 181 q 287 76 244 94 q 404 57 329 57 q 541 99 490 57 q 619 214 592 140 q 658 383 646 288 l 721 835 l 629 856 l 633 900 l 906 900 l 900 856 l 800 835 l 739 388 q 682 165 721 254 q 569 30 643 75 q 368 -15 494 -15 m 457 949 l 426 993 l 654 1160 q 689 1131 678 1150 q 700 1096 700 1111 q 681 1052 700 1068 q 629 1022 661 1036 l 457 949 z "},"Ŭ":{"ha":851,"x_min":99,"x_max":906,"o":"m 368 -15 q 258 1 306 -15 q 177 50 210 18 q 128 128 144 82 q 113 232 113 174 q 125 389 113 304 l 188 836 l 99 856 l 103 900 l 389 900 l 385 856 l 283 836 l 221 383 q 213 315 215 346 q 211 254 211 285 q 228 138 211 181 q 287 76 244 94 q 404 57 329 57 q 541 99 490 57 q 619 214 592 140 q 658 383 646 288 l 721 835 l 629 856 l 633 900 l 906 900 l 900 856 l 800 835 l 739 388 q 682 165 721 254 q 569 30 643 75 q 368 -15 494 -15 m 501 971 q 410 992 444 971 q 359 1042 375 1014 q 343 1092 343 1071 q 364 1122 343 1107 q 403 1144 385 1136 q 417 1113 404 1136 q 458 1068 431 1089 q 528 1047 485 1047 q 619 1068 579 1047 q 684 1114 658 1089 q 719 1149 710 1139 l 746 1124 q 640 1012 706 1053 q 501 971 574 971 z "},"Ǔ":{"ha":851,"x_min":99,"x_max":906,"o":"m 368 -15 q 258 1 306 -15 q 177 50 210 18 q 128 128 144 82 q 113 232 113 174 q 125 389 113 304 l 188 836 l 99 856 l 103 900 l 389 900 l 385 856 l 283 836 l 221 383 q 213 315 215 346 q 211 254 211 285 q 228 138 211 181 q 287 76 244 94 q 404 57 329 57 q 541 99 490 57 q 619 214 592 140 q 658 383 646 288 l 721 835 l 629 856 l 633 900 l 906 900 l 900 856 l 800 835 l 739 388 q 682 165 721 254 q 569 30 643 75 q 368 -15 494 -15 m 515 961 q 490 977 508 961 q 455 1010 472 993 q 432 1033 438 1028 l 365 1108 l 415 1158 l 533 1060 l 681 1164 l 713 1121 l 626 1040 q 565 987 588 1004 q 532 965 543 969 q 515 961 521 961 z "},"Û":{"ha":851,"x_min":99,"x_max":906,"o":"m 368 -15 q 258 1 306 -15 q 177 50 210 18 q 128 128 144 82 q 113 232 113 174 q 125 389 113 304 l 188 836 l 99 856 l 103 900 l 389 900 l 385 856 l 283 836 l 221 383 q 213 315 215 346 q 211 254 211 285 q 228 138 211 181 q 287 76 244 94 q 404 57 329 57 q 541 99 490 57 q 619 214 592 140 q 658 383 646 288 l 721 835 l 629 856 l 633 900 l 906 900 l 900 856 l 800 835 l 739 388 q 682 165 721 254 q 569 30 643 75 q 368 -15 494 -15 m 657 961 l 517 1057 l 367 971 l 333 1015 l 432 1089 q 494 1135 475 1121 q 522 1153 514 1149 q 532 1157 529 1157 q 559 1141 539 1157 q 600 1108 579 1125 q 626 1085 621 1090 l 701 1017 l 657 961 z "},"Ȕ":{"ha":851,"x_min":99,"x_max":906,"o":"m 408 944 l 349 1013 q 312 1063 325 1040 q 304 1100 299 1085 q 314 1122 307 1111 q 336 1143 321 1133 q 381 1158 351 1153 l 453 975 l 408 944 m 610 944 l 550 1013 q 513 1063 526 1040 q 506 1100 500 1085 q 515 1122 508 1111 q 538 1143 522 1133 q 582 1158 553 1153 l 654 975 l 610 944 m 368 -15 q 258 1 306 -15 q 177 50 210 18 q 128 128 144 82 q 113 232 113 174 q 125 389 113 304 l 188 836 l 99 856 l 103 900 l 389 900 l 385 856 l 283 836 l 221 383 q 213 315 215 346 q 211 254 211 285 q 228 138 211 181 q 287 76 244 94 q 404 57 329 57 q 541 99 490 57 q 619 214 592 140 q 658 383 646 288 l 721 835 l 629 856 l 633 900 l 906 900 l 900 856 l 800 835 l 739 388 q 682 165 721 254 q 569 30 643 75 q 368 -15 494 -15 z "},"Ü":{"ha":851,"x_min":99,"x_max":906,"o":"m 368 -15 q 258 1 306 -15 q 177 50 210 18 q 128 128 144 82 q 113 232 113 174 q 125 389 113 304 l 188 836 l 99 856 l 103 900 l 389 900 l 385 856 l 283 836 l 221 383 q 213 315 215 346 q 211 254 211 285 q 228 138 211 181 q 287 76 244 94 q 404 57 329 57 q 541 99 490 57 q 619 214 592 140 q 658 383 646 288 l 721 835 l 629 856 l 633 900 l 906 900 l 900 856 l 800 835 l 739 388 q 682 165 721 254 q 569 30 643 75 q 368 -15 494 -15 m 671 982 q 622 1002 640 982 q 603 1057 603 1022 q 612 1095 603 1078 q 638 1123 621 1113 q 674 1133 654 1133 q 723 1114 706 1133 q 740 1063 740 1094 q 722 1006 740 1029 q 671 982 703 982 m 381 982 q 332 1002 350 982 q 314 1057 314 1022 q 323 1095 314 1078 q 349 1123 332 1113 q 385 1133 365 1133 q 434 1114 417 1133 q 451 1063 451 1094 q 433 1006 451 1029 q 381 982 414 982 z "},"Ǘ":{"ha":851,"x_min":99,"x_max":906,"o":"m 368 -15 q 258 1 306 -15 q 177 50 210 18 q 128 128 144 82 q 113 232 113 174 q 125 389 113 304 l 188 836 l 99 856 l 103 900 l 389 900 l 385 856 l 283 836 l 221 383 q 213 315 215 346 q 211 254 211 285 q 228 138 211 181 q 287 76 244 94 q 404 57 329 57 q 541 99 490 57 q 619 214 592 140 q 658 383 646 288 l 721 835 l 629 856 l 633 900 l 906 900 l 900 856 l 800 835 l 739 388 q 682 165 721 254 q 569 30 643 75 q 368 -15 494 -15 m 671 982 q 622 1002 640 982 q 603 1057 603 1022 q 612 1095 603 1078 q 638 1123 621 1113 q 674 1133 654 1133 q 723 1114 706 1133 q 740 1063 740 1094 q 722 1006 740 1029 q 671 982 703 982 m 381 982 q 332 1002 350 982 q 314 1057 314 1022 q 323 1095 314 1078 q 349 1123 332 1113 q 385 1133 365 1133 q 434 1114 417 1133 q 451 1063 451 1094 q 433 1006 451 1029 q 381 982 414 982 m 483 1182 l 453 1226 l 681 1393 q 715 1364 704 1383 q 726 1329 726 1344 q 707 1285 726 1301 q 656 1256 688 1269 l 483 1182 z "},"Ǚ":{"ha":851,"x_min":99,"x_max":906,"o":"m 368 -15 q 258 1 306 -15 q 177 50 210 18 q 128 128 144 82 q 113 232 113 174 q 125 389 113 304 l 188 836 l 99 856 l 103 900 l 389 900 l 385 856 l 283 836 l 221 383 q 213 315 215 346 q 211 254 211 285 q 228 138 211 181 q 287 76 244 94 q 404 57 329 57 q 541 99 490 57 q 619 214 592 140 q 658 383 646 288 l 721 835 l 629 856 l 633 900 l 906 900 l 900 856 l 800 835 l 739 388 q 682 165 721 254 q 569 30 643 75 q 368 -15 494 -15 m 671 982 q 622 1002 640 982 q 603 1057 603 1022 q 612 1095 603 1078 q 638 1123 621 1113 q 674 1133 654 1133 q 723 1114 706 1133 q 740 1063 740 1094 q 722 1006 740 1029 q 671 982 703 982 m 381 982 q 332 1002 350 982 q 314 1057 314 1022 q 323 1095 314 1078 q 349 1123 332 1113 q 385 1133 365 1133 q 434 1114 417 1133 q 451 1063 451 1094 q 433 1006 451 1029 q 381 982 414 982 m 542 1194 q 517 1210 535 1194 q 481 1244 499 1226 q 458 1267 464 1261 l 392 1342 l 442 1392 l 560 1293 l 707 1397 l 739 1354 l 653 1274 q 592 1220 614 1238 q 558 1199 569 1203 q 542 1194 547 1194 z "},"Ǜ":{"ha":851,"x_min":99,"x_max":906,"o":"m 368 -15 q 258 1 306 -15 q 177 50 210 18 q 128 128 144 82 q 113 232 113 174 q 125 389 113 304 l 188 836 l 99 856 l 103 900 l 389 900 l 385 856 l 283 836 l 221 383 q 213 315 215 346 q 211 254 211 285 q 228 138 211 181 q 287 76 244 94 q 404 57 329 57 q 541 99 490 57 q 619 214 592 140 q 658 383 646 288 l 721 835 l 629 856 l 633 900 l 906 900 l 900 856 l 800 835 l 739 388 q 682 165 721 254 q 569 30 643 75 q 368 -15 494 -15 m 671 982 q 622 1002 640 982 q 603 1057 603 1022 q 612 1095 603 1078 q 638 1123 621 1113 q 674 1133 654 1133 q 723 1114 706 1133 q 740 1063 740 1094 q 722 1006 740 1029 q 671 982 703 982 m 381 982 q 332 1002 350 982 q 314 1057 314 1022 q 323 1095 314 1078 q 349 1123 332 1113 q 385 1133 365 1133 q 434 1114 417 1133 q 451 1063 451 1094 q 433 1006 451 1029 q 381 982 414 982 m 640 1182 l 468 1256 q 417 1285 438 1269 q 397 1329 397 1301 q 409 1364 397 1344 q 443 1393 421 1383 l 671 1226 l 640 1182 z "},"Ǖ":{"ha":851,"x_min":99,"x_max":906,"o":"m 368 -15 q 258 1 306 -15 q 177 50 210 18 q 128 128 144 82 q 113 232 113 174 q 125 389 113 304 l 188 836 l 99 856 l 103 900 l 389 900 l 385 856 l 283 836 l 221 383 q 213 315 215 346 q 211 254 211 285 q 228 138 211 181 q 287 76 244 94 q 404 57 329 57 q 541 99 490 57 q 619 214 592 140 q 658 383 646 288 l 721 835 l 629 856 l 633 900 l 906 900 l 900 856 l 800 835 l 739 388 q 682 165 721 254 q 569 30 643 75 q 368 -15 494 -15 m 671 982 q 622 1002 640 982 q 603 1057 603 1022 q 612 1095 603 1078 q 638 1123 621 1113 q 674 1133 654 1133 q 723 1114 706 1133 q 740 1063 740 1094 q 722 1006 740 1029 q 671 982 703 982 m 381 982 q 332 1002 350 982 q 314 1057 314 1022 q 323 1095 314 1078 q 349 1123 332 1113 q 385 1133 365 1133 q 434 1114 417 1133 q 451 1063 451 1094 q 433 1006 451 1029 q 381 982 414 982 m 371 1233 l 382 1314 l 751 1314 l 742 1233 l 371 1233 z "},"Ụ":{"ha":851,"x_min":99,"x_max":906,"o":"m 368 -15 q 258 1 306 -15 q 177 50 210 18 q 128 128 144 82 q 113 232 113 174 q 125 389 113 304 l 188 836 l 99 856 l 103 900 l 389 900 l 385 856 l 283 836 l 221 383 q 213 315 215 346 q 211 254 211 285 q 228 138 211 181 q 287 76 244 94 q 404 57 329 57 q 541 99 490 57 q 619 214 592 140 q 658 383 646 288 l 721 835 l 629 856 l 633 900 l 906 900 l 900 856 l 800 835 l 739 388 q 682 165 721 254 q 569 30 643 75 q 368 -15 494 -15 m 371 -254 q 324 -235 342 -254 q 306 -187 306 -215 q 314 -149 306 -168 q 340 -117 322 -129 q 383 -104 357 -104 q 430 -122 411 -104 q 449 -172 449 -140 q 430 -228 449 -203 q 371 -254 411 -254 z "},"Ù":{"ha":851,"x_min":99,"x_max":906,"o":"m 368 -15 q 258 1 306 -15 q 177 50 210 18 q 128 128 144 82 q 113 232 113 174 q 125 389 113 304 l 188 836 l 99 856 l 103 900 l 389 900 l 385 856 l 283 836 l 221 383 q 213 315 215 346 q 211 254 211 285 q 228 138 211 181 q 287 76 244 94 q 404 57 329 57 q 541 99 490 57 q 619 214 592 140 q 658 383 646 288 l 721 835 l 629 856 l 633 900 l 906 900 l 900 856 l 800 835 l 739 388 q 682 165 721 254 q 569 30 643 75 q 368 -15 494 -15 m 614 949 l 442 1022 q 391 1052 411 1036 q 371 1096 371 1068 q 383 1131 371 1111 q 417 1160 394 1150 l 644 993 l 614 949 z "},"Ủ":{"ha":851,"x_min":99,"x_max":906,"o":"m 368 -15 q 258 1 306 -15 q 177 50 210 18 q 128 128 144 82 q 113 232 113 174 q 125 389 113 304 l 188 836 l 99 856 l 103 900 l 389 900 l 385 856 l 283 836 l 221 383 q 213 315 215 346 q 211 254 211 285 q 228 138 211 181 q 287 76 244 94 q 404 57 329 57 q 541 99 490 57 q 619 214 592 140 q 658 383 646 288 l 721 835 l 629 856 l 633 900 l 906 900 l 900 856 l 800 835 l 739 388 q 682 165 721 254 q 569 30 643 75 q 368 -15 494 -15 m 489 939 q 487 949 488 944 q 486 960 486 954 q 501 990 486 976 q 546 1014 515 1004 q 592 1040 579 1026 q 604 1067 604 1054 q 589 1084 604 1076 q 536 1092 574 1092 q 493 1089 518 1092 q 446 1081 468 1086 q 440 1102 442 1092 q 439 1118 439 1113 q 455 1147 439 1131 q 524 1163 471 1163 q 647 1142 601 1163 q 692 1079 692 1121 q 669 1016 692 1043 q 597 975 646 989 q 563 957 569 967 q 554 939 556 947 l 489 939 z "},"Ư":{"ha":851,"x_min":99,"x_max":978,"o":"m 368 -15 q 258 1 306 -15 q 177 50 210 18 q 128 128 144 82 q 113 232 113 174 q 125 389 113 304 l 188 836 l 99 856 l 103 900 l 389 900 l 385 856 l 283 836 l 221 383 q 213 315 215 346 q 211 254 211 285 q 228 138 211 181 q 287 76 244 94 q 404 57 329 57 q 513 81 468 57 q 585 148 557 104 q 631 251 614 192 q 658 383 649 311 l 721 835 l 629 856 l 633 900 l 810 900 q 874 912 854 900 q 894 956 894 924 q 887 985 894 975 q 864 1004 879 994 l 864 1025 l 935 1076 q 956 1060 946 1069 q 972 1035 965 1051 q 978 990 978 1019 q 964 943 978 974 q 912 882 950 913 q 800 835 874 851 l 739 388 q 682 165 721 254 q 569 30 643 75 q 368 -15 494 -15 z "},"Ứ":{"ha":851,"x_min":99,"x_max":978,"o":"m 368 -15 q 258 1 306 -15 q 177 50 210 18 q 128 128 144 82 q 113 232 113 174 q 125 389 113 304 l 188 836 l 99 856 l 103 900 l 389 900 l 385 856 l 283 836 l 221 383 q 213 315 215 346 q 211 254 211 285 q 228 138 211 181 q 287 76 244 94 q 404 57 329 57 q 513 81 468 57 q 585 148 557 104 q 631 251 614 192 q 658 383 649 311 l 721 835 l 629 856 l 633 900 l 810 900 q 874 912 854 900 q 894 956 894 924 q 887 985 894 975 q 864 1004 879 994 l 864 1025 l 935 1076 q 956 1060 946 1069 q 972 1035 965 1051 q 978 990 978 1019 q 964 943 978 974 q 912 882 950 913 q 800 835 874 851 l 739 388 q 682 165 721 254 q 569 30 643 75 q 368 -15 494 -15 m 446 949 l 415 993 l 643 1160 q 678 1131 667 1150 q 689 1096 689 1111 q 669 1052 689 1068 q 618 1022 650 1036 l 446 949 z "},"Ự":{"ha":851,"x_min":99,"x_max":978,"o":"m 368 -15 q 258 1 306 -15 q 177 50 210 18 q 128 128 144 82 q 113 232 113 174 q 125 389 113 304 l 188 836 l 99 856 l 103 900 l 389 900 l 385 856 l 283 836 l 221 383 q 213 315 215 346 q 211 254 211 285 q 228 138 211 181 q 287 76 244 94 q 404 57 329 57 q 513 81 468 57 q 585 148 557 104 q 631 251 614 192 q 658 383 649 311 l 721 835 l 629 856 l 633 900 l 810 900 q 874 912 854 900 q 894 956 894 924 q 887 985 894 975 q 864 1004 879 994 l 864 1025 l 935 1076 q 956 1060 946 1069 q 972 1035 965 1051 q 978 990 978 1019 q 964 943 978 974 q 912 882 950 913 q 800 835 874 851 l 739 388 q 682 165 721 254 q 569 30 643 75 q 368 -15 494 -15 m 361 -254 q 314 -235 332 -254 q 296 -187 296 -215 q 304 -149 296 -168 q 330 -117 313 -129 q 374 -104 347 -104 q 420 -122 401 -104 q 439 -172 439 -140 q 420 -228 439 -203 q 361 -254 401 -254 z "},"Ừ":{"ha":851,"x_min":99,"x_max":978,"o":"m 368 -15 q 258 1 306 -15 q 177 50 210 18 q 128 128 144 82 q 113 232 113 174 q 125 389 113 304 l 188 836 l 99 856 l 103 900 l 389 900 l 385 856 l 283 836 l 221 383 q 213 315 215 346 q 211 254 211 285 q 228 138 211 181 q 287 76 244 94 q 404 57 329 57 q 513 81 468 57 q 585 148 557 104 q 631 251 614 192 q 658 383 649 311 l 721 835 l 629 856 l 633 900 l 810 900 q 874 912 854 900 q 894 956 894 924 q 887 985 894 975 q 864 1004 879 994 l 864 1025 l 935 1076 q 956 1060 946 1069 q 972 1035 965 1051 q 978 990 978 1019 q 964 943 978 974 q 912 882 950 913 q 800 835 874 851 l 739 388 q 682 165 721 254 q 569 30 643 75 q 368 -15 494 -15 m 603 949 l 431 1022 q 380 1052 400 1036 q 360 1096 360 1068 q 372 1131 360 1111 q 406 1160 383 1150 l 633 993 l 603 949 z "},"Ử":{"ha":851,"x_min":99,"x_max":978,"o":"m 368 -15 q 258 1 306 -15 q 177 50 210 18 q 128 128 144 82 q 113 232 113 174 q 125 389 113 304 l 188 836 l 99 856 l 103 900 l 389 900 l 385 856 l 283 836 l 221 383 q 213 315 215 346 q 211 254 211 285 q 228 138 211 181 q 287 76 244 94 q 404 57 329 57 q 513 81 468 57 q 585 148 557 104 q 631 251 614 192 q 658 383 649 311 l 721 835 l 629 856 l 633 900 l 810 900 q 874 912 854 900 q 894 956 894 924 q 887 985 894 975 q 864 1004 879 994 l 864 1025 l 935 1076 q 956 1060 946 1069 q 972 1035 965 1051 q 978 990 978 1019 q 964 943 978 974 q 912 882 950 913 q 800 835 874 851 l 739 388 q 682 165 721 254 q 569 30 643 75 q 368 -15 494 -15 m 478 939 q 476 949 476 944 q 475 960 475 954 q 490 990 475 976 q 535 1014 504 1004 q 581 1040 568 1026 q 593 1067 593 1054 q 578 1084 593 1076 q 525 1092 563 1092 q 482 1089 507 1092 q 435 1081 457 1086 q 429 1102 431 1092 q 428 1118 428 1113 q 444 1147 428 1131 q 513 1163 460 1163 q 635 1142 590 1163 q 681 1079 681 1121 q 658 1016 681 1043 q 586 975 635 989 q 551 957 558 967 q 543 939 544 947 l 478 939 z "},"Ữ":{"ha":851,"x_min":99,"x_max":978,"o":"m 368 -15 q 258 1 306 -15 q 177 50 210 18 q 128 128 144 82 q 113 232 113 174 q 125 389 113 304 l 188 836 l 99 856 l 103 900 l 389 900 l 385 856 l 283 836 l 221 383 q 213 315 215 346 q 211 254 211 285 q 228 138 211 181 q 287 76 244 94 q 404 57 329 57 q 513 81 468 57 q 585 148 557 104 q 631 251 614 192 q 658 383 649 311 l 721 835 l 629 856 l 633 900 l 810 900 q 874 912 854 900 q 894 956 894 924 q 887 985 894 975 q 864 1004 879 994 l 864 1025 l 935 1076 q 956 1060 946 1069 q 972 1035 965 1051 q 978 990 978 1019 q 964 943 978 974 q 912 882 950 913 q 800 835 874 851 l 739 388 q 682 165 721 254 q 569 30 643 75 q 368 -15 494 -15 m 632 985 q 581 995 613 985 q 524 1014 550 1006 l 417 1049 l 333 992 l 303 1025 l 350 1089 q 383 1121 365 1108 q 424 1133 400 1133 q 474 1124 442 1133 q 532 1104 506 1114 l 636 1069 l 721 1128 l 751 1093 l 704 1029 q 673 998 690 1011 q 632 985 656 985 z "},"Ű":{"ha":851,"x_min":99,"x_max":906,"o":"m 368 -15 q 258 1 306 -15 q 177 50 210 18 q 128 128 144 82 q 113 232 113 174 q 125 389 113 304 l 188 836 l 99 856 l 103 900 l 389 900 l 385 856 l 283 836 l 221 383 q 213 315 215 346 q 211 254 211 285 q 228 138 211 181 q 287 76 244 94 q 404 57 329 57 q 541 99 490 57 q 619 214 592 140 q 658 383 646 288 l 721 835 l 629 856 l 633 900 l 906 900 l 900 856 l 800 835 l 739 388 q 682 165 721 254 q 569 30 643 75 q 368 -15 494 -15 m 607 944 l 571 975 l 694 1158 q 735 1143 722 1153 q 752 1122 749 1133 q 756 1100 756 1111 q 737 1063 756 1085 q 686 1013 718 1040 l 607 944 m 406 944 l 369 975 l 493 1158 q 534 1143 521 1153 q 551 1122 547 1133 q 554 1100 554 1111 q 535 1063 554 1085 q 485 1013 517 1040 l 406 944 z "},"Ȗ":{"ha":851,"x_min":99,"x_max":906,"o":"m 582 1149 q 674 1127 639 1149 q 724 1077 708 1106 q 740 1028 740 1049 q 719 998 740 1013 q 681 975 699 983 q 666 1008 679 985 q 626 1051 653 1031 q 556 1072 600 1072 q 465 1051 504 1072 q 399 1006 425 1031 q 364 971 374 982 l 338 996 q 444 1108 378 1067 q 582 1149 510 1149 m 368 -15 q 258 1 306 -15 q 177 50 210 18 q 128 128 144 82 q 113 232 113 174 q 125 389 113 304 l 188 836 l 99 856 l 103 900 l 389 900 l 385 856 l 283 836 l 221 383 q 213 315 215 346 q 211 254 211 285 q 228 138 211 181 q 287 76 244 94 q 404 57 329 57 q 541 99 490 57 q 619 214 592 140 q 658 383 646 288 l 721 835 l 629 856 l 633 900 l 906 900 l 900 856 l 800 835 l 739 388 q 682 165 721 254 q 569 30 643 75 q 368 -15 494 -15 z "},"Ū":{"ha":851,"x_min":99,"x_max":906,"o":"m 368 -15 q 258 1 306 -15 q 177 50 210 18 q 128 128 144 82 q 113 232 113 174 q 125 389 113 304 l 188 836 l 99 856 l 103 900 l 389 900 l 385 856 l 283 836 l 221 383 q 213 315 215 346 q 211 254 211 285 q 228 138 211 181 q 287 76 244 94 q 404 57 329 57 q 541 99 490 57 q 619 214 592 140 q 658 383 646 288 l 721 835 l 629 856 l 633 900 l 906 900 l 900 856 l 800 835 l 739 388 q 682 165 721 254 q 569 30 643 75 q 368 -15 494 -15 m 344 1000 l 356 1081 l 725 1081 l 715 1000 l 344 1000 z "},"Ų":{"ha":851,"x_min":99,"x_max":906,"o":"m 368 -15 q 258 1 306 -15 q 177 50 210 18 q 128 128 144 82 q 113 232 113 174 q 125 389 113 304 l 188 836 l 99 856 l 103 900 l 389 900 l 385 856 l 283 836 l 221 383 q 213 315 215 346 q 211 254 211 285 q 228 138 211 181 q 287 76 244 94 q 404 57 329 57 q 541 99 490 57 q 619 214 592 140 q 658 383 646 288 l 721 835 l 629 856 l 633 900 l 906 900 l 900 856 l 800 835 l 739 388 q 682 165 721 254 q 569 30 643 75 q 368 -15 494 -15 m 453 -243 q 385 -226 414 -243 q 356 -158 356 -210 q 372 -91 356 -124 q 418 -30 388 -58 q 492 18 449 -1 l 539 18 q 506 -6 524 10 q 472 -40 488 -21 q 446 -83 456 -60 q 436 -129 436 -106 q 452 -167 436 -156 q 490 -178 468 -178 q 536 -169 513 -178 q 578 -150 560 -161 l 597 -179 q 575 -198 594 -182 q 524 -228 556 -214 q 453 -243 492 -243 z "},"Ů":{"ha":851,"x_min":99,"x_max":906,"o":"m 368 -15 q 258 1 306 -15 q 177 50 210 18 q 128 128 144 82 q 113 232 113 174 q 125 389 113 304 l 188 836 l 99 856 l 103 900 l 389 900 l 385 856 l 283 836 l 221 383 q 213 315 215 346 q 211 254 211 285 q 228 138 211 181 q 287 76 244 94 q 404 57 329 57 q 541 99 490 57 q 619 214 592 140 q 658 383 646 288 l 721 835 l 629 856 l 633 900 l 906 900 l 900 856 l 800 835 l 739 388 q 682 165 721 254 q 569 30 643 75 q 368 -15 494 -15 m 517 922 q 437 951 465 922 q 408 1018 408 979 q 423 1088 408 1057 q 467 1136 438 1118 q 536 1154 496 1154 q 619 1126 592 1154 q 646 1061 646 1099 q 631 992 646 1024 q 586 941 615 960 q 517 922 557 922 m 533 974 q 578 997 565 974 q 590 1057 590 1021 q 575 1093 590 1083 q 525 1103 560 1103 q 477 1082 490 1103 q 464 1025 464 1061 q 479 985 464 997 q 533 974 494 974 z "},"Ũ":{"ha":851,"x_min":99,"x_max":906,"o":"m 368 -15 q 258 1 306 -15 q 177 50 210 18 q 128 128 144 82 q 113 232 113 174 q 125 389 113 304 l 188 836 l 99 856 l 103 900 l 389 900 l 385 856 l 283 836 l 221 383 q 213 315 215 346 q 211 254 211 285 q 228 138 211 181 q 287 76 244 94 q 404 57 329 57 q 541 99 490 57 q 619 214 592 140 q 658 383 646 288 l 721 835 l 629 856 l 633 900 l 906 900 l 900 856 l 800 835 l 739 388 q 682 165 721 254 q 569 30 643 75 q 368 -15 494 -15 m 643 985 q 592 995 624 985 q 535 1014 561 1006 l 428 1049 l 344 992 l 314 1025 l 361 1089 q 394 1121 376 1108 q 435 1133 411 1133 q 485 1124 453 1133 q 543 1104 517 1114 l 647 1069 l 732 1128 l 763 1093 l 715 1029 q 684 998 701 1011 q 643 985 667 985 z "},"V":{"ha":685,"x_min":53,"x_max":781,"o":"m 281 -12 l 122 839 l 53 856 l 58 900 l 331 900 l 325 856 l 219 832 l 332 204 l 336 157 l 342 157 l 360 204 l 635 832 l 525 856 l 531 900 l 781 900 l 775 856 l 708 835 l 325 -12 l 281 -12 z "},"W":{"ha":1026,"x_min":54,"x_max":1122,"o":"m 238 -11 l 126 836 l 54 853 l 58 900 l 331 900 l 325 853 l 226 831 l 292 199 l 294 154 l 300 154 l 317 199 l 547 701 l 522 836 l 450 853 l 456 900 l 726 900 l 721 853 l 622 831 l 713 208 l 718 154 l 724 154 l 742 208 l 976 831 l 865 853 l 872 900 l 1122 900 l 1115 853 l 1051 831 l 710 -11 l 663 -11 l 565 610 l 282 -11 l 238 -11 z "},"Ẃ":{"ha":1026,"x_min":54,"x_max":1122,"o":"m 238 -11 l 126 836 l 54 853 l 58 900 l 331 900 l 325 853 l 226 831 l 292 199 l 294 154 l 300 154 l 317 199 l 547 701 l 522 836 l 450 853 l 456 900 l 726 900 l 721 853 l 622 831 l 713 208 l 718 154 l 724 154 l 742 208 l 976 831 l 865 853 l 872 900 l 1122 900 l 1115 853 l 1051 831 l 710 -11 l 663 -11 l 565 610 l 282 -11 l 238 -11 m 542 949 l 511 993 l 739 1160 q 774 1131 763 1150 q 785 1096 785 1111 q 765 1052 785 1068 q 714 1022 746 1036 l 542 949 z "},"Ŵ":{"ha":1026,"x_min":54,"x_max":1122,"o":"m 238 -11 l 126 836 l 54 853 l 58 900 l 331 900 l 325 853 l 226 831 l 292 199 l 294 154 l 300 154 l 317 199 l 547 701 l 522 836 l 450 853 l 456 900 l 726 900 l 721 853 l 622 831 l 713 208 l 718 154 l 724 154 l 742 208 l 976 831 l 865 853 l 872 900 l 1122 900 l 1115 853 l 1051 831 l 710 -11 l 663 -11 l 565 610 l 282 -11 l 238 -11 m 742 961 l 601 1057 l 451 971 l 418 1015 l 517 1089 q 579 1135 560 1121 q 606 1153 599 1149 q 617 1157 614 1157 q 644 1141 624 1157 q 685 1108 664 1125 q 711 1085 706 1090 l 786 1017 l 742 961 z "},"Ẅ":{"ha":1026,"x_min":54,"x_max":1122,"o":"m 238 -11 l 126 836 l 54 853 l 58 900 l 331 900 l 325 853 l 226 831 l 292 199 l 294 154 l 300 154 l 317 199 l 547 701 l 522 836 l 450 853 l 456 900 l 726 900 l 721 853 l 622 831 l 713 208 l 718 154 l 724 154 l 742 208 l 976 831 l 865 853 l 872 900 l 1122 900 l 1115 853 l 1051 831 l 710 -11 l 663 -11 l 565 610 l 282 -11 l 238 -11 m 756 982 q 706 1002 725 982 q 688 1057 688 1022 q 697 1095 688 1078 q 722 1123 706 1113 q 758 1133 739 1133 q 808 1114 790 1133 q 825 1063 825 1094 q 806 1006 825 1029 q 756 982 788 982 m 465 982 q 417 1002 435 982 q 399 1057 399 1022 q 408 1095 399 1078 q 433 1123 417 1113 q 469 1133 450 1133 q 519 1114 501 1133 q 536 1063 536 1094 q 517 1006 536 1029 q 465 982 499 982 z "},"Ẁ":{"ha":1026,"x_min":54,"x_max":1122,"o":"m 238 -11 l 126 836 l 54 853 l 58 900 l 331 900 l 325 853 l 226 831 l 292 199 l 294 154 l 300 154 l 317 199 l 547 701 l 522 836 l 450 853 l 456 900 l 726 900 l 721 853 l 622 831 l 713 208 l 718 154 l 724 154 l 742 208 l 976 831 l 865 853 l 872 900 l 1122 900 l 1115 853 l 1051 831 l 710 -11 l 663 -11 l 565 610 l 282 -11 l 238 -11 m 699 949 l 526 1022 q 476 1052 496 1036 q 456 1096 456 1068 q 467 1131 456 1111 q 501 1160 479 1150 l 729 993 l 699 949 z "},"X":{"ha":707,"x_min":-57,"x_max":763,"o":"m 368 411 l 111 82 l 110 67 l 206 47 l 200 0 l -57 0 l -51 43 l 19 61 l 342 475 l 368 411 m 604 63 l 682 47 l 678 0 l 386 0 l 390 47 l 499 68 l 499 86 l 160 836 l 74 856 l 79 900 l 378 900 l 374 853 l 265 832 l 265 811 l 604 63 m 385 524 l 613 818 l 613 833 l 504 854 l 510 900 l 763 900 l 756 854 l 699 835 l 410 460 l 385 524 z "},"Y":{"ha":660,"x_min":51,"x_max":749,"o":"m 161 0 l 164 47 l 265 67 l 301 322 l 126 836 l 51 853 l 57 900 l 338 900 l 332 853 l 229 832 l 229 800 l 369 385 l 375 385 l 594 806 l 594 832 l 489 853 l 496 900 l 749 900 l 742 853 l 672 831 l 392 307 l 358 67 l 450 47 l 447 0 l 161 0 z "},"Ý":{"ha":660,"x_min":51,"x_max":749,"o":"m 161 0 l 164 47 l 265 67 l 301 322 l 126 836 l 51 853 l 57 900 l 338 900 l 332 853 l 229 832 l 229 800 l 369 385 l 375 385 l 594 806 l 594 832 l 489 853 l 496 900 l 749 900 l 742 853 l 672 831 l 392 307 l 358 67 l 450 47 l 447 0 l 161 0 m 360 949 l 329 993 l 557 1160 q 592 1131 581 1150 q 603 1096 603 1111 q 583 1052 603 1068 q 532 1022 564 1036 l 360 949 z "},"Ŷ":{"ha":660,"x_min":51,"x_max":749,"o":"m 161 0 l 164 47 l 265 67 l 301 322 l 126 836 l 51 853 l 57 900 l 338 900 l 332 853 l 229 832 l 229 800 l 369 385 l 375 385 l 594 806 l 594 832 l 489 853 l 496 900 l 749 900 l 742 853 l 672 831 l 392 307 l 358 67 l 450 47 l 447 0 l 161 0 m 560 961 l 419 1057 l 269 971 l 236 1015 l 335 1089 q 397 1135 378 1121 q 424 1153 417 1149 q 435 1157 432 1157 q 462 1141 442 1157 q 503 1108 482 1125 q 529 1085 524 1090 l 604 1017 l 560 961 z "},"Ÿ":{"ha":660,"x_min":51,"x_max":749,"o":"m 161 0 l 164 47 l 265 67 l 301 322 l 126 836 l 51 853 l 57 900 l 338 900 l 332 853 l 229 832 l 229 800 l 369 385 l 375 385 l 594 806 l 594 832 l 489 853 l 496 900 l 749 900 l 742 853 l 672 831 l 392 307 l 358 67 l 450 47 l 447 0 l 161 0 m 574 982 q 524 1002 543 982 q 506 1057 506 1022 q 515 1095 506 1078 q 540 1123 524 1113 q 576 1133 557 1133 q 626 1114 608 1133 q 643 1063 643 1094 q 624 1006 643 1029 q 574 982 606 982 m 283 982 q 235 1002 253 982 q 217 1057 217 1022 q 226 1095 217 1078 q 251 1123 235 1113 q 288 1133 268 1133 q 337 1114 319 1133 q 354 1063 354 1094 q 335 1006 354 1029 q 283 982 317 982 z "},"Ỵ":{"ha":660,"x_min":51,"x_max":749,"o":"m 161 0 l 164 47 l 265 67 l 301 322 l 126 836 l 51 853 l 57 900 l 338 900 l 332 853 l 229 832 l 229 800 l 369 385 l 375 385 l 594 806 l 594 832 l 489 853 l 496 900 l 749 900 l 742 853 l 672 831 l 392 307 l 358 67 l 450 47 l 447 0 l 161 0 m 288 -254 q 240 -235 258 -254 q 222 -187 222 -215 q 231 -149 222 -168 q 256 -117 239 -129 q 300 -104 274 -104 q 347 -122 328 -104 q 365 -172 365 -140 q 347 -228 365 -203 q 288 -254 328 -254 z "},"Ỳ":{"ha":660,"x_min":51,"x_max":749,"o":"m 161 0 l 164 47 l 265 67 l 301 322 l 126 836 l 51 853 l 57 900 l 338 900 l 332 853 l 229 832 l 229 800 l 369 385 l 375 385 l 594 806 l 594 832 l 489 853 l 496 900 l 749 900 l 742 853 l 672 831 l 392 307 l 358 67 l 450 47 l 447 0 l 161 0 m 517 949 l 344 1022 q 294 1052 314 1036 q 274 1096 274 1068 q 285 1131 274 1111 q 319 1160 297 1150 l 547 993 l 517 949 z "},"Ỷ":{"ha":660,"x_min":51,"x_max":749,"o":"m 161 0 l 164 47 l 265 67 l 301 322 l 126 836 l 51 853 l 57 900 l 338 900 l 332 853 l 229 832 l 229 800 l 369 385 l 375 385 l 594 806 l 594 832 l 489 853 l 496 900 l 749 900 l 742 853 l 672 831 l 392 307 l 358 67 l 450 47 l 447 0 l 161 0 m 392 939 q 390 949 390 944 q 389 960 389 954 q 403 990 389 976 q 449 1014 418 1004 q 494 1040 482 1026 q 507 1067 507 1054 q 492 1084 507 1076 q 439 1092 476 1092 q 396 1089 421 1092 q 349 1081 371 1086 q 343 1102 344 1092 q 342 1118 342 1113 q 358 1147 342 1131 q 426 1163 374 1163 q 549 1142 504 1163 q 594 1079 594 1121 q 572 1016 594 1043 q 500 975 549 989 q 465 957 472 967 q 457 939 458 947 l 392 939 z "},"Ȳ":{"ha":660,"x_min":51,"x_max":749,"o":"m 161 0 l 164 47 l 265 67 l 301 322 l 126 836 l 51 853 l 57 900 l 338 900 l 332 853 l 229 832 l 229 800 l 369 385 l 375 385 l 594 806 l 594 832 l 489 853 l 496 900 l 749 900 l 742 853 l 672 831 l 392 307 l 358 67 l 450 47 l 447 0 l 161 0 m 247 1000 l 258 1081 l 628 1081 l 618 1000 l 247 1000 z "},"Ỹ":{"ha":660,"x_min":51,"x_max":749,"o":"m 161 0 l 164 47 l 265 67 l 301 322 l 126 836 l 51 853 l 57 900 l 338 900 l 332 853 l 229 832 l 229 800 l 369 385 l 375 385 l 594 806 l 594 832 l 489 853 l 496 900 l 749 900 l 742 853 l 672 831 l 392 307 l 358 67 l 450 47 l 447 0 l 161 0 m 546 985 q 495 995 526 985 q 438 1014 464 1006 l 331 1049 l 247 992 l 217 1025 l 264 1089 q 297 1121 279 1108 q 338 1133 314 1133 q 388 1124 356 1133 q 446 1104 419 1114 l 550 1069 l 635 1128 l 665 1093 l 618 1029 q 587 998 604 1011 q 546 985 569 985 z "},"Z":{"ha":668,"x_min":-15,"x_max":681,"o":"m 7 0 l -15 57 l 557 826 l 550 840 l 203 840 l 147 697 l 92 697 l 121 900 l 650 900 l 681 847 l 101 69 l 108 56 l 490 56 l 547 197 l 603 197 l 576 0 l 7 0 z "},"Ź":{"ha":668,"x_min":-15,"x_max":681,"o":"m 7 0 l -15 57 l 557 826 l 550 840 l 203 840 l 147 697 l 92 697 l 121 900 l 650 900 l 681 847 l 101 69 l 108 56 l 490 56 l 547 197 l 603 197 l 576 0 l 7 0 m 340 949 l 310 993 l 538 1160 q 572 1131 561 1150 q 583 1096 583 1111 q 564 1052 583 1068 q 513 1022 544 1036 l 340 949 z "},"Ž":{"ha":668,"x_min":-15,"x_max":681,"o":"m 7 0 l -15 57 l 557 826 l 550 840 l 203 840 l 147 697 l 92 697 l 121 900 l 650 900 l 681 847 l 101 69 l 108 56 l 490 56 l 547 197 l 603 197 l 576 0 l 7 0 m 399 961 q 374 977 392 961 q 338 1010 356 993 q 315 1033 321 1028 l 249 1108 l 299 1158 l 417 1060 l 564 1164 l 596 1121 l 510 1040 q 449 987 471 1004 q 415 965 426 969 q 399 961 404 961 z "},"Ż":{"ha":668,"x_min":-15,"x_max":681,"o":"m 7 0 l -15 57 l 557 826 l 550 840 l 203 840 l 147 697 l 92 697 l 121 900 l 650 900 l 681 847 l 101 69 l 108 56 l 490 56 l 547 197 l 603 197 l 576 0 l 7 0 m 414 976 q 365 997 383 976 q 347 1044 347 1017 q 356 1085 347 1065 q 381 1117 364 1104 q 425 1131 399 1131 q 474 1111 456 1131 q 493 1060 493 1092 q 474 1003 493 1029 q 414 976 454 976 z "},"a":{"ha":678,"x_min":60,"x_max":604,"o":"m 225 -12 q 97 49 133 -12 q 60 208 60 111 q 70 308 60 246 q 103 440 81 369 q 163 572 126 510 q 253 673 200 633 q 375 713 306 713 q 444 703 410 713 q 503 683 479 693 q 531 669 528 672 l 561 718 l 601 718 l 503 85 l 604 85 l 604 38 q 582 24 601 35 q 536 4 563 14 q 482 -6 510 -6 q 422 16 433 -6 q 411 64 411 38 q 417 99 411 81 q 435 144 424 118 l 431 147 q 378 73 411 110 q 307 12 346 36 q 225 -12 268 -12 m 254 57 q 322 83 288 57 q 385 143 356 108 q 433 207 414 178 l 497 582 q 417 619 463 601 q 318 636 371 636 q 285 631 296 636 q 268 617 275 625 q 213 517 238 578 q 175 384 189 456 q 161 238 161 313 q 178 103 161 149 q 254 57 196 57 z "},"á":{"ha":678,"x_min":60,"x_max":604,"o":"m 225 -12 q 97 49 133 -12 q 60 208 60 111 q 70 308 60 246 q 103 440 81 369 q 163 572 126 510 q 253 673 200 633 q 375 713 306 713 q 444 703 410 713 q 503 683 479 693 q 531 669 528 672 l 561 718 l 601 718 l 503 85 l 604 85 l 604 38 q 582 24 601 35 q 536 4 563 14 q 482 -6 510 -6 q 422 16 433 -6 q 411 64 411 38 q 417 99 411 81 q 435 144 424 118 l 431 147 q 378 73 411 110 q 307 12 346 36 q 225 -12 268 -12 m 254 57 q 322 83 288 57 q 385 143 356 108 q 433 207 414 178 l 497 582 q 417 619 463 601 q 318 636 371 636 q 285 631 296 636 q 268 617 275 625 q 213 517 238 578 q 175 384 189 456 q 161 238 161 313 q 178 103 161 149 q 254 57 196 57 m 315 779 l 281 821 l 471 1015 q 515 981 506 1001 q 524 946 524 961 q 511 919 524 933 q 483 893 499 906 q 458 874 468 881 l 315 779 z "},"ă":{"ha":678,"x_min":60,"x_max":615,"o":"m 225 -12 q 97 49 133 -12 q 60 208 60 111 q 70 308 60 246 q 103 440 81 369 q 163 572 126 510 q 253 673 200 633 q 375 713 306 713 q 444 703 410 713 q 503 683 479 693 q 531 669 528 672 l 561 718 l 601 718 l 503 85 l 604 85 l 604 38 q 582 24 601 35 q 536 4 563 14 q 482 -6 510 -6 q 422 16 433 -6 q 411 64 411 38 q 417 99 411 81 q 435 144 424 118 l 431 147 q 378 73 411 110 q 307 12 346 36 q 225 -12 268 -12 m 254 57 q 322 83 288 57 q 385 143 356 108 q 433 207 414 178 l 497 582 q 417 619 463 601 q 318 636 371 636 q 285 631 296 636 q 268 617 275 625 q 213 517 238 578 q 175 384 189 456 q 161 238 161 313 q 178 103 161 149 q 254 57 196 57 m 404 792 q 310 815 346 792 q 257 872 274 839 q 240 929 240 904 q 242 944 240 936 q 250 958 244 953 q 272 977 260 971 q 297 985 283 983 q 322 988 310 988 q 330 935 324 964 q 357 886 336 907 q 425 865 378 865 q 491 882 461 865 q 542 922 521 899 q 577 965 564 946 q 593 989 590 985 l 615 964 q 606 940 614 958 q 583 896 599 921 q 544 847 568 871 q 485 808 519 824 q 404 792 450 792 z "},"ắ":{"ha":678,"x_min":60,"x_max":626,"o":"m 225 -12 q 97 49 133 -12 q 60 208 60 111 q 70 308 60 246 q 103 440 81 369 q 163 572 126 510 q 253 673 200 633 q 375 713 306 713 q 444 703 410 713 q 503 683 479 693 q 531 669 528 672 l 561 718 l 601 718 l 503 85 l 604 85 l 604 38 q 582 24 601 35 q 536 4 563 14 q 482 -6 510 -6 q 422 16 433 -6 q 411 64 411 38 q 417 99 411 81 q 435 144 424 118 l 431 147 q 378 73 411 110 q 307 12 346 36 q 225 -12 268 -12 m 254 57 q 322 83 288 57 q 385 143 356 108 q 433 207 414 178 l 497 582 q 417 619 463 601 q 318 636 371 636 q 285 631 296 636 q 268 617 275 625 q 213 517 238 578 q 175 384 189 456 q 161 238 161 313 q 178 103 161 149 q 254 57 196 57 m 410 985 l 375 1026 l 565 1221 q 609 1187 600 1207 q 618 1151 618 1167 q 606 1125 618 1139 q 578 1099 593 1111 q 553 1079 563 1086 l 410 985 m 415 792 q 321 815 357 792 q 268 872 285 839 q 251 929 251 904 q 253 944 251 936 q 261 958 256 953 q 283 977 271 971 q 308 985 294 983 q 333 988 321 988 q 341 935 335 964 q 368 886 347 907 q 436 865 389 865 q 502 882 472 865 q 553 922 532 899 q 588 965 575 946 q 604 989 601 985 l 626 964 q 617 940 625 958 q 594 896 610 921 q 555 847 579 871 q 496 808 531 824 q 415 792 461 792 z "},"ặ":{"ha":678,"x_min":60,"x_max":615,"o":"m 225 -12 q 97 49 133 -12 q 60 208 60 111 q 70 308 60 246 q 103 440 81 369 q 163 572 126 510 q 253 673 200 633 q 375 713 306 713 q 444 703 410 713 q 503 683 479 693 q 531 669 528 672 l 561 718 l 601 718 l 503 85 l 604 85 l 604 38 q 582 24 601 35 q 536 4 563 14 q 482 -6 510 -6 q 422 16 433 -6 q 411 64 411 38 q 417 99 411 81 q 435 144 424 118 l 431 147 q 378 73 411 110 q 307 12 346 36 q 225 -12 268 -12 m 254 57 q 322 83 288 57 q 385 143 356 108 q 433 207 414 178 l 497 582 q 417 619 463 601 q 318 636 371 636 q 285 631 296 636 q 268 617 275 625 q 213 517 238 578 q 175 384 189 456 q 161 238 161 313 q 178 103 161 149 q 254 57 196 57 m 265 -254 q 218 -235 236 -254 q 200 -187 200 -215 q 208 -149 200 -168 q 234 -117 217 -129 q 278 -104 251 -104 q 324 -122 306 -104 q 343 -172 343 -140 q 324 -228 343 -203 q 265 -254 306 -254 m 404 792 q 310 815 346 792 q 257 872 274 839 q 240 929 240 904 q 242 944 240 936 q 250 958 244 953 q 272 977 260 971 q 297 985 283 983 q 322 988 310 988 q 330 935 324 964 q 357 886 336 907 q 425 865 378 865 q 491 882 461 865 q 542 922 521 899 q 577 965 564 946 q 593 989 590 985 l 615 964 q 606 940 614 958 q 583 896 599 921 q 544 847 568 871 q 485 808 519 824 q 404 792 450 792 z "},"ằ":{"ha":678,"x_min":60,"x_max":626,"o":"m 225 -12 q 97 49 133 -12 q 60 208 60 111 q 70 308 60 246 q 103 440 81 369 q 163 572 126 510 q 253 673 200 633 q 375 713 306 713 q 444 703 410 713 q 503 683 479 693 q 531 669 528 672 l 561 718 l 601 718 l 503 85 l 604 85 l 604 38 q 582 24 601 35 q 536 4 563 14 q 482 -6 510 -6 q 422 16 433 -6 q 411 64 411 38 q 417 99 411 81 q 435 144 424 118 l 431 147 q 378 73 411 110 q 307 12 346 36 q 225 -12 268 -12 m 254 57 q 322 83 288 57 q 385 143 356 108 q 433 207 414 178 l 497 582 q 417 619 463 601 q 318 636 371 636 q 285 631 296 636 q 268 617 275 625 q 213 517 238 578 q 175 384 189 456 q 161 238 161 313 q 178 103 161 149 q 254 57 196 57 m 497 957 l 354 1051 q 329 1071 344 1058 q 301 1097 314 1083 q 289 1124 289 1111 q 298 1159 289 1139 q 342 1193 307 1179 l 531 999 l 497 957 m 415 792 q 321 815 357 792 q 268 872 285 839 q 251 929 251 904 q 253 944 251 936 q 261 958 256 953 q 283 977 271 971 q 308 985 294 983 q 333 988 321 988 q 341 935 335 964 q 368 886 347 907 q 436 865 389 865 q 502 882 472 865 q 553 922 532 899 q 588 965 575 946 q 604 989 601 985 l 626 964 q 617 940 625 958 q 594 896 610 921 q 555 847 579 871 q 496 808 531 824 q 415 792 461 792 z "},"ẳ":{"ha":678,"x_min":60,"x_max":626,"o":"m 225 -12 q 97 49 133 -12 q 60 208 60 111 q 70 308 60 246 q 103 440 81 369 q 163 572 126 510 q 253 673 200 633 q 375 713 306 713 q 444 703 410 713 q 503 683 479 693 q 531 669 528 672 l 561 718 l 601 718 l 503 85 l 604 85 l 604 38 q 582 24 601 35 q 536 4 563 14 q 482 -6 510 -6 q 422 16 433 -6 q 411 64 411 38 q 417 99 411 81 q 435 144 424 118 l 431 147 q 378 73 411 110 q 307 12 346 36 q 225 -12 268 -12 m 254 57 q 322 83 288 57 q 385 143 356 108 q 433 207 414 178 l 497 582 q 417 619 463 601 q 318 636 371 636 q 285 631 296 636 q 268 617 275 625 q 213 517 238 578 q 175 384 189 456 q 161 238 161 313 q 178 103 161 149 q 254 57 196 57 m 414 950 q 409 970 411 961 q 407 988 407 979 q 422 1023 407 1011 q 467 1049 436 1035 q 515 1075 503 1064 q 526 1104 526 1086 q 512 1128 526 1119 q 461 1136 497 1136 q 367 1125 418 1136 q 364 1140 365 1133 q 363 1153 363 1146 q 381 1196 363 1185 q 447 1207 399 1207 q 568 1182 524 1207 q 613 1107 613 1157 q 589 1049 613 1071 q 519 1008 565 1026 q 479 984 485 994 q 474 956 474 974 l 414 950 m 415 792 q 321 815 357 792 q 268 872 285 839 q 251 929 251 904 q 253 944 251 936 q 261 958 256 953 q 283 977 271 971 q 308 985 294 983 q 333 988 321 988 q 341 935 335 964 q 368 886 347 907 q 436 865 389 865 q 502 882 472 865 q 553 922 532 899 q 588 965 575 946 q 604 989 601 985 l 626 964 q 617 940 625 958 q 594 896 610 921 q 555 847 579 871 q 496 808 531 824 q 415 792 461 792 z "},"ẵ":{"ha":678,"x_min":60,"x_max":663,"o":"m 546 1021 q 509 1028 533 1021 q 464 1043 485 1036 l 375 1075 l 279 1025 l 254 1049 l 300 1110 q 334 1147 318 1133 q 369 1161 350 1161 q 411 1153 385 1161 q 460 1138 438 1146 l 543 1108 l 639 1158 l 663 1135 l 618 1079 q 583 1038 600 1056 q 546 1021 567 1021 m 225 -12 q 97 49 133 -12 q 60 208 60 111 q 70 308 60 246 q 103 440 81 369 q 163 572 126 510 q 253 673 200 633 q 375 713 306 713 q 444 703 410 713 q 503 683 479 693 q 531 669 528 672 l 561 718 l 601 718 l 503 85 l 604 85 l 604 38 q 582 24 601 35 q 536 4 563 14 q 482 -6 510 -6 q 422 16 433 -6 q 411 64 411 38 q 417 99 411 81 q 435 144 424 118 l 431 147 q 378 73 411 110 q 307 12 346 36 q 225 -12 268 -12 m 254 57 q 322 83 288 57 q 385 143 356 108 q 433 207 414 178 l 497 582 q 417 619 463 601 q 318 636 371 636 q 285 631 296 636 q 268 617 275 625 q 213 517 238 578 q 175 384 189 456 q 161 238 161 313 q 178 103 161 149 q 254 57 196 57 m 411 792 q 317 815 353 792 q 264 872 281 839 q 247 929 247 904 q 249 944 247 936 q 257 958 251 953 q 278 977 267 971 q 303 985 290 983 q 329 988 317 988 q 337 935 331 964 q 364 886 343 907 q 432 865 385 865 q 498 882 468 865 q 549 922 528 899 q 584 965 571 946 q 600 989 597 985 l 622 964 q 613 940 621 958 q 590 896 606 921 q 551 847 575 871 q 492 808 526 824 q 411 792 457 792 z "},"ǎ":{"ha":678,"x_min":60,"x_max":618,"o":"m 225 -12 q 97 49 133 -12 q 60 208 60 111 q 70 308 60 246 q 103 440 81 369 q 163 572 126 510 q 253 673 200 633 q 375 713 306 713 q 444 703 410 713 q 503 683 479 693 q 531 669 528 672 l 561 718 l 601 718 l 503 85 l 604 85 l 604 38 q 582 24 601 35 q 536 4 563 14 q 482 -6 510 -6 q 422 16 433 -6 q 411 64 411 38 q 417 99 411 81 q 435 144 424 118 l 431 147 q 378 73 411 110 q 307 12 346 36 q 225 -12 268 -12 m 254 57 q 322 83 288 57 q 385 143 356 108 q 433 207 414 178 l 497 582 q 417 619 463 601 q 318 636 371 636 q 285 631 296 636 q 268 617 275 625 q 213 517 238 578 q 175 384 189 456 q 161 238 161 313 q 178 103 161 149 q 254 57 196 57 m 410 758 q 391 769 401 758 q 364 801 381 781 l 256 939 l 293 972 l 425 854 l 593 972 l 618 939 l 478 810 q 430 768 443 778 q 410 758 417 758 z "},"â":{"ha":678,"x_min":60,"x_max":604,"o":"m 225 -12 q 97 49 133 -12 q 60 208 60 111 q 70 308 60 246 q 103 440 81 369 q 163 572 126 510 q 253 673 200 633 q 375 713 306 713 q 444 703 410 713 q 503 683 479 693 q 531 669 528 672 l 561 718 l 601 718 l 503 85 l 604 85 l 604 38 q 582 24 601 35 q 536 4 563 14 q 482 -6 510 -6 q 422 16 433 -6 q 411 64 411 38 q 417 99 411 81 q 435 144 424 118 l 431 147 q 378 73 411 110 q 307 12 346 36 q 225 -12 268 -12 m 254 57 q 322 83 288 57 q 385 143 356 108 q 433 207 414 178 l 497 582 q 417 619 463 601 q 318 636 371 636 q 285 631 296 636 q 268 617 275 625 q 213 517 238 578 q 175 384 189 456 q 161 238 161 313 q 178 103 161 149 q 254 57 196 57 m 557 756 l 419 868 l 269 760 l 231 796 l 375 933 q 418 972 404 961 q 438 982 432 982 q 453 975 444 982 q 483 942 463 968 l 596 804 l 557 756 z "},"ấ":{"ha":678,"x_min":60,"x_max":767,"o":"m 225 -12 q 97 49 133 -12 q 60 208 60 111 q 70 308 60 246 q 103 440 81 369 q 163 572 126 510 q 253 673 200 633 q 375 713 306 713 q 444 703 410 713 q 503 683 479 693 q 531 669 528 672 l 561 718 l 601 718 l 503 85 l 604 85 l 604 38 q 582 24 601 35 q 536 4 563 14 q 482 -6 510 -6 q 422 16 433 -6 q 411 64 411 38 q 417 99 411 81 q 435 144 424 118 l 431 147 q 378 73 411 110 q 307 12 346 36 q 225 -12 268 -12 m 254 57 q 322 83 288 57 q 385 143 356 108 q 433 207 414 178 l 497 582 q 417 619 463 601 q 318 636 371 636 q 285 631 296 636 q 268 617 275 625 q 213 517 238 578 q 175 384 189 456 q 161 238 161 313 q 178 103 161 149 q 254 57 196 57 m 558 906 l 524 947 l 714 1142 q 758 1108 749 1128 q 767 1072 767 1088 q 754 1046 767 1060 q 726 1019 742 1032 q 701 1000 711 1007 l 558 906 m 557 756 l 419 868 l 269 760 l 231 796 l 375 933 q 418 972 404 961 q 438 982 432 982 q 453 975 444 982 q 483 942 463 968 l 596 804 l 557 756 z "},"ậ":{"ha":678,"x_min":60,"x_max":604,"o":"m 225 -12 q 97 49 133 -12 q 60 208 60 111 q 70 308 60 246 q 103 440 81 369 q 163 572 126 510 q 253 673 200 633 q 375 713 306 713 q 444 703 410 713 q 503 683 479 693 q 531 669 528 672 l 561 718 l 601 718 l 503 85 l 604 85 l 604 38 q 582 24 601 35 q 536 4 563 14 q 482 -6 510 -6 q 422 16 433 -6 q 411 64 411 38 q 417 99 411 81 q 435 144 424 118 l 431 147 q 378 73 411 110 q 307 12 346 36 q 225 -12 268 -12 m 254 57 q 322 83 288 57 q 385 143 356 108 q 433 207 414 178 l 497 582 q 417 619 463 601 q 318 636 371 636 q 285 631 296 636 q 268 617 275 625 q 213 517 238 578 q 175 384 189 456 q 161 238 161 313 q 178 103 161 149 q 254 57 196 57 m 265 -254 q 218 -235 236 -254 q 200 -187 200 -215 q 208 -149 200 -168 q 234 -117 217 -129 q 278 -104 251 -104 q 324 -122 306 -104 q 343 -172 343 -140 q 324 -228 343 -203 q 265 -254 306 -254 m 557 756 l 419 868 l 269 760 l 231 796 l 375 933 q 418 972 404 961 q 438 982 432 982 q 453 975 444 982 q 483 942 463 968 l 596 804 l 557 756 z "},"ầ":{"ha":678,"x_min":60,"x_max":663,"o":"m 225 -12 q 97 49 133 -12 q 60 208 60 111 q 70 308 60 246 q 103 440 81 369 q 163 572 126 510 q 253 673 200 633 q 375 713 306 713 q 444 703 410 713 q 503 683 479 693 q 531 669 528 672 l 561 718 l 601 718 l 503 85 l 604 85 l 604 38 q 582 24 601 35 q 536 4 563 14 q 482 -6 510 -6 q 422 16 433 -6 q 411 64 411 38 q 417 99 411 81 q 435 144 424 118 l 431 147 q 378 73 411 110 q 307 12 346 36 q 225 -12 268 -12 m 254 57 q 322 83 288 57 q 385 143 356 108 q 433 207 414 178 l 497 582 q 417 619 463 601 q 318 636 371 636 q 285 631 296 636 q 268 617 275 625 q 213 517 238 578 q 175 384 189 456 q 161 238 161 313 q 178 103 161 149 q 254 57 196 57 m 629 908 l 486 1003 q 461 1022 476 1010 q 433 1049 446 1035 q 421 1075 421 1063 q 430 1110 421 1090 q 474 1144 439 1131 l 663 950 l 629 908 m 557 756 l 419 868 l 269 760 l 231 796 l 375 933 q 418 972 404 961 q 438 982 432 982 q 453 975 444 982 q 483 942 463 968 l 596 804 l 557 756 z "},"ẩ":{"ha":678,"x_min":60,"x_max":739,"o":"m 225 -12 q 97 49 133 -12 q 60 208 60 111 q 70 308 60 246 q 103 440 81 369 q 163 572 126 510 q 253 673 200 633 q 375 713 306 713 q 444 703 410 713 q 503 683 479 693 q 531 669 528 672 l 561 718 l 601 718 l 503 85 l 604 85 l 604 38 q 582 24 601 35 q 536 4 563 14 q 482 -6 510 -6 q 422 16 433 -6 q 411 64 411 38 q 417 99 411 81 q 435 144 424 118 l 431 147 q 378 73 411 110 q 307 12 346 36 q 225 -12 268 -12 m 254 57 q 322 83 288 57 q 385 143 356 108 q 433 207 414 178 l 497 582 q 417 619 463 601 q 318 636 371 636 q 285 631 296 636 q 268 617 275 625 q 213 517 238 578 q 175 384 189 456 q 161 238 161 313 q 178 103 161 149 q 254 57 196 57 m 540 908 q 535 928 538 919 q 533 946 533 938 q 548 981 533 969 q 593 1007 563 993 q 641 1033 629 1022 q 653 1063 653 1044 q 638 1086 653 1078 q 588 1094 624 1094 q 493 1083 544 1094 q 490 1098 492 1092 q 489 1111 489 1104 q 507 1154 489 1143 q 574 1165 525 1165 q 694 1140 650 1165 q 739 1065 739 1115 q 715 1007 739 1029 q 646 967 692 985 q 606 942 611 953 q 600 914 600 932 l 540 908 m 557 756 l 419 868 l 269 760 l 231 796 l 375 933 q 418 972 404 961 q 438 982 432 982 q 453 975 444 982 q 483 942 463 968 l 596 804 l 557 756 z "},"ẫ":{"ha":678,"x_min":60,"x_max":665,"o":"m 549 1038 q 512 1045 536 1038 q 467 1060 488 1053 l 378 1092 l 282 1042 l 257 1065 l 303 1126 q 337 1164 321 1150 q 372 1178 353 1178 q 414 1170 388 1178 q 463 1154 440 1163 l 546 1125 l 642 1175 l 665 1151 l 621 1096 q 586 1055 603 1072 q 549 1038 569 1038 m 225 -12 q 97 49 133 -12 q 60 208 60 111 q 70 308 60 246 q 103 440 81 369 q 163 572 126 510 q 253 673 200 633 q 375 713 306 713 q 444 703 410 713 q 503 683 479 693 q 531 669 528 672 l 561 718 l 601 718 l 503 85 l 604 85 l 604 38 q 582 24 601 35 q 536 4 563 14 q 482 -6 510 -6 q 422 16 433 -6 q 411 64 411 38 q 417 99 411 81 q 435 144 424 118 l 431 147 q 378 73 411 110 q 307 12 346 36 q 225 -12 268 -12 m 254 57 q 322 83 288 57 q 385 143 356 108 q 433 207 414 178 l 497 582 q 417 619 463 601 q 318 636 371 636 q 285 631 296 636 q 268 617 275 625 q 213 517 238 578 q 175 384 189 456 q 161 238 161 313 q 178 103 161 149 q 254 57 196 57 m 564 756 l 426 868 l 276 760 l 238 796 l 382 933 q 425 972 411 961 q 444 982 439 982 q 460 975 451 982 q 490 942 469 968 l 603 804 l 564 756 z "},"ȁ":{"ha":678,"x_min":60,"x_max":604,"o":"m 306 785 l 228 889 q 203 927 218 901 q 194 972 189 953 q 203 994 197 983 q 226 1014 210 1004 q 276 1035 243 1024 l 351 814 l 306 785 m 510 785 l 432 889 q 408 927 422 901 q 399 972 393 953 q 408 994 401 983 q 431 1014 414 1004 q 481 1035 447 1024 l 556 814 l 510 785 m 225 -12 q 97 49 133 -12 q 60 208 60 111 q 70 308 60 246 q 103 440 81 369 q 163 572 126 510 q 253 673 200 633 q 375 713 306 713 q 444 703 410 713 q 503 683 479 693 q 531 669 528 672 l 561 718 l 601 718 l 503 85 l 604 85 l 604 38 q 582 24 601 35 q 536 4 563 14 q 482 -6 510 -6 q 422 16 433 -6 q 411 64 411 38 q 417 99 411 81 q 435 144 424 118 l 431 147 q 378 73 411 110 q 307 12 346 36 q 225 -12 268 -12 m 254 57 q 322 83 288 57 q 385 143 356 108 q 433 207 414 178 l 497 582 q 417 619 463 601 q 318 636 371 636 q 285 631 296 636 q 268 617 275 625 q 213 517 238 578 q 175 384 189 456 q 161 238 161 313 q 178 103 161 149 q 254 57 196 57 z "},"ä":{"ha":678,"x_min":60,"x_max":618,"o":"m 225 -12 q 97 49 133 -12 q 60 208 60 111 q 70 308 60 246 q 103 440 81 369 q 163 572 126 510 q 253 673 200 633 q 375 713 306 713 q 444 703 410 713 q 503 683 479 693 q 531 669 528 672 l 561 718 l 601 718 l 503 85 l 604 85 l 604 38 q 582 24 601 35 q 536 4 563 14 q 482 -6 510 -6 q 422 16 433 -6 q 411 64 411 38 q 417 99 411 81 q 435 144 424 118 l 431 147 q 378 73 411 110 q 307 12 346 36 q 225 -12 268 -12 m 254 57 q 322 83 288 57 q 385 143 356 108 q 433 207 414 178 l 497 582 q 417 619 463 601 q 318 636 371 636 q 285 631 296 636 q 268 617 275 625 q 213 517 238 578 q 175 384 189 456 q 161 238 161 313 q 178 103 161 149 q 254 57 196 57 m 535 831 q 494 846 510 831 q 479 883 479 861 q 500 944 479 914 q 563 974 521 974 q 603 958 589 974 q 618 915 618 943 q 597 859 618 888 q 535 831 575 831 m 281 831 q 241 846 256 831 q 226 883 226 861 q 247 944 226 914 q 308 974 267 974 q 349 958 333 974 q 365 915 365 943 q 343 859 365 888 q 281 831 321 831 z "},"ạ":{"ha":678,"x_min":60,"x_max":604,"o":"m 225 -12 q 97 49 133 -12 q 60 208 60 111 q 70 308 60 246 q 103 440 81 369 q 163 572 126 510 q 253 673 200 633 q 375 713 306 713 q 444 703 410 713 q 503 683 479 693 q 531 669 528 672 l 561 718 l 601 718 l 503 85 l 604 85 l 604 38 q 582 24 601 35 q 536 4 563 14 q 482 -6 510 -6 q 422 16 433 -6 q 411 64 411 38 q 417 99 411 81 q 435 144 424 118 l 431 147 q 378 73 411 110 q 307 12 346 36 q 225 -12 268 -12 m 254 57 q 322 83 288 57 q 385 143 356 108 q 433 207 414 178 l 497 582 q 417 619 463 601 q 318 636 371 636 q 285 631 296 636 q 268 617 275 625 q 213 517 238 578 q 175 384 189 456 q 161 238 161 313 q 178 103 161 149 q 254 57 196 57 m 265 -254 q 218 -235 236 -254 q 200 -187 200 -215 q 208 -149 200 -168 q 234 -117 217 -129 q 278 -104 251 -104 q 324 -122 306 -104 q 343 -172 343 -140 q 324 -228 343 -203 q 265 -254 306 -254 z "},"à":{"ha":678,"x_min":60,"x_max":604,"o":"m 225 -12 q 97 49 133 -12 q 60 208 60 111 q 70 308 60 246 q 103 440 81 369 q 163 572 126 510 q 253 673 200 633 q 375 713 306 713 q 444 703 410 713 q 503 683 479 693 q 531 669 528 672 l 561 718 l 601 718 l 503 85 l 604 85 l 604 38 q 582 24 601 35 q 536 4 563 14 q 482 -6 510 -6 q 422 16 433 -6 q 411 64 411 38 q 417 99 411 81 q 435 144 424 118 l 431 147 q 378 73 411 110 q 307 12 346 36 q 225 -12 268 -12 m 254 57 q 322 83 288 57 q 385 143 356 108 q 433 207 414 178 l 497 582 q 417 619 463 601 q 318 636 371 636 q 285 631 296 636 q 268 617 275 625 q 213 517 238 578 q 175 384 189 456 q 161 238 161 313 q 178 103 161 149 q 254 57 196 57 m 468 779 l 325 874 q 300 893 315 881 q 272 919 285 906 q 260 946 260 933 q 269 981 260 961 q 313 1015 278 1001 l 501 821 l 468 779 z "},"ả":{"ha":678,"x_min":60,"x_max":604,"o":"m 225 -12 q 97 49 133 -12 q 60 208 60 111 q 70 308 60 246 q 103 440 81 369 q 163 572 126 510 q 253 673 200 633 q 375 713 306 713 q 444 703 410 713 q 503 683 479 693 q 531 669 528 672 l 561 718 l 601 718 l 503 85 l 604 85 l 604 38 q 582 24 601 35 q 536 4 563 14 q 482 -6 510 -6 q 422 16 433 -6 q 411 64 411 38 q 417 99 411 81 q 435 144 424 118 l 431 147 q 378 73 411 110 q 307 12 346 36 q 225 -12 268 -12 m 254 57 q 322 83 288 57 q 385 143 356 108 q 433 207 414 178 l 497 582 q 417 619 463 601 q 318 636 371 636 q 285 631 296 636 q 268 617 275 625 q 213 517 238 578 q 175 384 189 456 q 161 238 161 313 q 178 103 161 149 q 254 57 196 57 m 376 744 q 372 765 374 756 q 369 782 369 774 q 384 817 369 806 q 429 843 399 829 q 477 869 465 858 q 489 899 489 881 q 474 922 489 914 q 424 931 460 931 q 329 919 381 931 q 326 934 328 928 q 325 947 325 940 q 343 990 325 979 q 410 1001 361 1001 q 531 976 486 1001 q 575 901 575 951 q 551 843 575 865 q 482 803 528 821 q 442 778 447 789 q 436 750 436 768 l 376 744 z "},"ȃ":{"ha":678,"x_min":60,"x_max":610,"o":"m 446 989 q 541 965 506 989 q 593 910 576 942 q 610 851 610 878 q 608 837 610 844 q 600 822 606 829 q 578 804 590 811 q 554 795 567 797 q 528 793 542 793 q 521 845 526 817 q 494 894 515 874 q 425 915 472 915 q 359 899 389 915 q 308 858 329 882 q 273 815 286 835 q 257 792 260 796 l 235 817 q 244 841 236 822 q 267 885 251 860 q 306 933 282 910 q 365 973 331 957 q 446 989 400 989 m 225 -12 q 97 49 133 -12 q 60 208 60 111 q 70 308 60 246 q 103 440 81 369 q 163 572 126 510 q 253 673 200 633 q 375 713 306 713 q 444 703 410 713 q 503 683 479 693 q 531 669 528 672 l 561 718 l 601 718 l 503 85 l 604 85 l 604 38 q 582 24 601 35 q 536 4 563 14 q 482 -6 510 -6 q 422 16 433 -6 q 411 64 411 38 q 417 99 411 81 q 435 144 424 118 l 431 147 q 378 73 411 110 q 307 12 346 36 q 225 -12 268 -12 m 254 57 q 322 83 288 57 q 385 143 356 108 q 433 207 414 178 l 497 582 q 417 619 463 601 q 318 636 371 636 q 285 631 296 636 q 268 617 275 625 q 213 517 238 578 q 175 384 189 456 q 161 238 161 313 q 178 103 161 149 q 254 57 196 57 z "},"ā":{"ha":678,"x_min":60,"x_max":622,"o":"m 225 -12 q 97 49 133 -12 q 60 208 60 111 q 70 308 60 246 q 103 440 81 369 q 163 572 126 510 q 253 673 200 633 q 375 713 306 713 q 444 703 410 713 q 503 683 479 693 q 531 669 528 672 l 561 718 l 601 718 l 503 85 l 604 85 l 604 38 q 582 24 601 35 q 536 4 563 14 q 482 -6 510 -6 q 422 16 433 -6 q 411 64 411 38 q 417 99 411 81 q 435 144 424 118 l 431 147 q 378 73 411 110 q 307 12 346 36 q 225 -12 268 -12 m 254 57 q 322 83 288 57 q 385 143 356 108 q 433 207 414 178 l 497 582 q 417 619 463 601 q 318 636 371 636 q 285 631 296 636 q 268 617 275 625 q 213 517 238 578 q 175 384 189 456 q 161 238 161 313 q 178 103 161 149 q 254 57 196 57 m 235 849 l 246 918 l 622 918 l 611 849 l 235 849 z "},"ą":{"ha":678,"x_min":60,"x_max":628,"o":"m 225 -12 q 97 49 133 -12 q 60 208 60 111 q 70 308 60 246 q 103 440 81 369 q 163 572 126 510 q 253 673 200 633 q 375 713 306 713 q 444 703 410 713 q 503 683 479 693 q 531 669 528 672 l 561 718 l 601 718 l 503 85 l 604 85 l 604 38 q 582 24 601 35 q 536 4 563 14 q 482 -6 510 -6 q 422 16 433 -6 q 411 64 411 38 q 417 99 411 81 q 435 144 424 118 l 431 147 q 378 73 411 110 q 307 12 346 36 q 225 -12 268 -12 m 254 57 q 322 83 288 57 q 385 143 356 108 q 433 207 414 178 l 497 582 q 417 619 463 601 q 318 636 371 636 q 285 631 296 636 q 268 617 275 625 q 213 517 238 578 q 175 384 189 456 q 161 238 161 313 q 178 103 161 149 q 254 57 196 57 m 483 -243 q 415 -226 444 -243 q 386 -158 386 -210 q 402 -91 386 -124 q 449 -30 418 -58 q 522 18 479 -1 l 569 18 q 536 -6 554 10 q 502 -40 518 -21 q 476 -83 486 -60 q 467 -129 467 -106 q 483 -167 467 -156 q 521 -178 499 -178 q 567 -169 543 -178 q 608 -150 590 -161 l 628 -179 q 606 -198 625 -182 q 554 -228 586 -214 q 483 -243 522 -243 z "},"å":{"ha":678,"x_min":60,"x_max":604,"o":"m 225 -12 q 97 49 133 -12 q 60 208 60 111 q 70 308 60 246 q 103 440 81 369 q 163 572 126 510 q 253 673 200 633 q 375 713 306 713 q 444 703 410 713 q 503 683 479 693 q 531 669 528 672 l 561 718 l 601 718 l 503 85 l 604 85 l 604 38 q 582 24 601 35 q 536 4 563 14 q 482 -6 510 -6 q 422 16 433 -6 q 411 64 411 38 q 417 99 411 81 q 435 144 424 118 l 431 147 q 378 73 411 110 q 307 12 346 36 q 225 -12 268 -12 m 254 57 q 322 83 288 57 q 385 143 356 108 q 433 207 414 178 l 497 582 q 417 619 463 601 q 318 636 371 636 q 285 631 296 636 q 268 617 275 625 q 213 517 238 578 q 175 384 189 456 q 161 238 161 313 q 178 103 161 149 q 254 57 196 57 m 424 786 q 343 812 372 786 q 314 881 314 838 q 348 990 314 943 q 444 1038 382 1038 q 528 1011 501 1038 q 556 943 556 985 q 540 865 556 901 q 494 808 524 829 q 424 786 465 786 m 438 844 q 479 869 468 844 q 490 928 490 893 q 476 964 490 953 q 431 975 463 975 q 389 954 400 975 q 378 897 378 933 q 391 858 378 871 q 438 844 404 844 z "},"ǻ":{"ha":678,"x_min":60,"x_max":604,"o":"m 225 -12 q 97 49 133 -12 q 60 208 60 111 q 70 308 60 246 q 103 440 81 369 q 163 572 126 510 q 253 673 200 633 q 375 713 306 713 q 444 703 410 713 q 503 683 479 693 q 531 669 528 672 l 561 718 l 601 718 l 503 85 l 604 85 l 604 38 q 582 24 601 35 q 536 4 563 14 q 482 -6 510 -6 q 422 16 433 -6 q 411 64 411 38 q 417 99 411 81 q 435 144 424 118 l 431 147 q 378 73 411 110 q 307 12 346 36 q 225 -12 268 -12 m 254 57 q 322 83 288 57 q 385 143 356 108 q 433 207 414 178 l 497 582 q 417 619 463 601 q 318 636 371 636 q 285 631 296 636 q 268 617 275 625 q 213 517 238 578 q 175 384 189 456 q 161 238 161 313 q 178 103 161 149 q 254 57 196 57 m 424 786 q 343 812 372 786 q 314 881 314 838 q 348 990 314 943 q 444 1038 382 1038 q 528 1011 501 1038 q 556 943 556 985 q 540 865 556 901 q 494 808 524 829 q 424 786 465 786 m 438 844 q 479 869 468 844 q 490 928 490 893 q 476 964 490 953 q 431 975 463 975 q 389 954 400 975 q 378 897 378 933 q 391 858 378 871 q 438 844 404 844 m 360 1089 l 325 1131 l 515 1325 q 559 1291 550 1311 q 568 1256 568 1271 q 556 1229 568 1243 q 528 1203 543 1215 q 503 1183 513 1190 l 360 1089 z "},"ã":{"ha":678,"x_min":60,"x_max":622,"o":"m 225 -12 q 97 49 133 -12 q 60 208 60 111 q 70 308 60 246 q 103 440 81 369 q 163 572 126 510 q 253 673 200 633 q 375 713 306 713 q 444 703 410 713 q 503 683 479 693 q 531 669 528 672 l 561 718 l 601 718 l 503 85 l 604 85 l 604 38 q 582 24 601 35 q 536 4 563 14 q 482 -6 510 -6 q 422 16 433 -6 q 411 64 411 38 q 417 99 411 81 q 435 144 424 118 l 431 147 q 378 73 411 110 q 307 12 346 36 q 225 -12 268 -12 m 254 57 q 322 83 288 57 q 385 143 356 108 q 433 207 414 178 l 497 582 q 417 619 463 601 q 318 636 371 636 q 285 631 296 636 q 268 617 275 625 q 213 517 238 578 q 175 384 189 456 q 161 238 161 313 q 178 103 161 149 q 254 57 196 57 m 506 832 q 469 840 493 832 q 424 854 444 847 l 335 885 l 239 836 l 214 858 l 260 918 q 294 955 278 942 q 329 968 310 968 q 371 960 344 968 q 419 946 397 953 l 503 917 l 599 965 l 622 943 l 578 889 q 543 849 560 867 q 506 832 526 832 z "},"æ":{"ha":882,"x_min":56,"x_max":865,"o":"m 221 -12 q 56 208 56 -12 q 83 391 56 301 q 155 553 110 481 q 256 669 200 626 q 369 713 311 713 q 462 692 406 713 q 567 642 518 672 q 732 713 638 713 q 827 675 789 713 q 865 581 865 638 q 834 469 865 522 q 750 377 803 417 q 631 317 697 338 q 497 303 565 297 l 510 339 l 510 315 q 521 163 510 218 q 559 86 532 108 q 633 64 586 64 q 707 81 664 64 q 790 126 750 99 l 815 89 q 751 37 788 60 q 676 1 714 14 q 604 -12 638 -12 q 471 19 514 -12 q 417 124 428 50 q 333 24 386 61 q 221 -12 281 -12 m 249 57 q 323 86 286 57 q 385 160 360 115 q 413 247 411 204 q 441 417 415 333 q 504 564 467 501 q 401 618 451 600 q 313 636 351 636 q 282 631 294 636 q 263 617 269 626 q 206 517 231 578 q 169 383 182 456 q 156 238 156 311 q 176 97 156 136 q 249 57 197 57 m 511 353 q 649 387 590 360 q 742 456 708 414 q 775 551 775 499 q 751 612 775 590 q 683 633 728 633 q 627 628 649 633 q 599 613 606 624 q 567 557 581 585 q 542 499 553 529 q 524 433 532 469 q 511 353 517 397 z "},"ǽ":{"ha":882,"x_min":56,"x_max":865,"o":"m 221 -12 q 56 208 56 -12 q 83 391 56 301 q 155 553 110 481 q 256 669 200 626 q 369 713 311 713 q 462 692 406 713 q 567 642 518 672 q 732 713 638 713 q 827 675 789 713 q 865 581 865 638 q 834 469 865 522 q 750 377 803 417 q 631 317 697 338 q 497 303 565 297 l 510 339 l 510 315 q 521 163 510 218 q 559 86 532 108 q 633 64 586 64 q 707 81 664 64 q 790 126 750 99 l 815 89 q 751 37 788 60 q 676 1 714 14 q 604 -12 638 -12 q 471 19 514 -12 q 417 124 428 50 q 333 24 386 61 q 221 -12 281 -12 m 249 57 q 323 86 286 57 q 385 160 360 115 q 413 247 411 204 q 441 417 415 333 q 504 564 467 501 q 401 618 451 600 q 313 636 351 636 q 282 631 294 636 q 263 617 269 626 q 206 517 231 578 q 169 383 182 456 q 156 238 156 311 q 176 97 156 136 q 249 57 197 57 m 511 353 q 649 387 590 360 q 742 456 708 414 q 775 551 775 499 q 751 612 775 590 q 683 633 728 633 q 627 628 649 633 q 599 613 606 624 q 567 557 581 585 q 542 499 553 529 q 524 433 532 469 q 511 353 517 397 m 481 779 l 446 821 l 636 1015 q 680 981 671 1001 q 689 946 689 961 q 676 919 689 933 q 649 893 664 906 q 624 874 633 881 l 481 779 z "},"b":{"ha":654,"x_min":57,"x_max":601,"o":"m 282 -12 q 208 -5 246 -12 q 150 10 171 3 l 57 44 l 206 876 l 94 899 l 94 942 l 289 968 l 289 875 l 249 625 q 241 606 249 617 q 226 585 233 594 l 229 581 q 256 613 238 592 q 303 658 275 635 q 364 697 331 681 q 435 713 397 713 q 535 685 499 713 q 586 608 571 657 q 601 496 601 560 q 592 394 601 457 q 560 262 582 332 q 502 129 539 192 q 411 27 465 67 q 282 -12 357 -12 m 328 64 q 375 67 365 64 q 390 78 385 71 q 444 183 418 118 q 485 323 469 247 q 501 472 501 399 q 492 556 501 522 q 462 607 483 590 q 401 624 440 624 q 334 608 368 624 q 274 573 300 593 q 233 540 247 553 l 164 97 q 226 77 182 90 q 328 64 269 64 z "},"c":{"ha":510,"x_min":43,"x_max":510,"o":"m 232 -12 q 89 41 135 -12 q 43 210 43 94 q 64 389 43 300 q 126 551 85 478 q 227 669 167 625 q 367 713 288 713 q 449 700 418 713 q 495 661 481 688 q 510 593 510 635 q 499 542 510 564 q 474 508 488 521 q 449 490 460 496 l 421 490 l 410 625 q 388 631 408 626 q 319 636 368 636 q 277 632 297 636 q 242 617 257 628 q 224 592 239 618 q 189 521 208 567 q 156 415 169 475 q 142 289 142 356 q 155 153 142 200 q 197 88 168 106 q 274 69 226 69 q 333 83 303 69 q 385 113 363 97 q 410 132 407 129 l 439 86 q 409 56 435 81 q 338 10 383 32 q 232 -12 293 -12 z "},"ć":{"ha":510,"x_min":43,"x_max":510,"o":"m 232 -12 q 89 41 135 -12 q 43 210 43 94 q 64 389 43 300 q 126 551 85 478 q 227 669 167 625 q 367 713 288 713 q 449 700 418 713 q 495 661 481 688 q 510 593 510 635 q 499 542 510 564 q 474 508 488 521 q 449 490 460 496 l 421 490 l 410 625 q 388 631 408 626 q 319 636 368 636 q 277 632 297 636 q 242 617 257 628 q 224 592 239 618 q 189 521 208 567 q 156 415 169 475 q 142 289 142 356 q 155 153 142 200 q 197 88 168 106 q 274 69 226 69 q 333 83 303 69 q 385 113 363 97 q 410 132 407 129 l 439 86 q 409 56 435 81 q 338 10 383 32 q 232 -12 293 -12 m 264 779 l 229 821 l 419 1015 q 463 981 454 1001 q 472 946 472 961 q 460 919 472 933 q 432 893 447 906 q 407 874 417 881 l 264 779 z "},"č":{"ha":510,"x_min":43,"x_max":567,"o":"m 232 -12 q 89 41 135 -12 q 43 210 43 94 q 64 389 43 300 q 126 551 85 478 q 227 669 167 625 q 367 713 288 713 q 449 700 418 713 q 495 661 481 688 q 510 593 510 635 q 499 542 510 564 q 474 508 488 521 q 449 490 460 496 l 421 490 l 410 625 q 388 631 408 626 q 319 636 368 636 q 277 632 297 636 q 242 617 257 628 q 224 592 239 618 q 189 521 208 567 q 156 415 169 475 q 142 289 142 356 q 155 153 142 200 q 197 88 168 106 q 274 69 226 69 q 333 83 303 69 q 385 113 363 97 q 410 132 407 129 l 439 86 q 409 56 435 81 q 338 10 383 32 q 232 -12 293 -12 m 358 758 q 340 769 350 758 q 313 801 329 781 l 204 939 l 242 972 l 374 854 l 542 972 l 567 939 l 426 810 q 378 768 392 778 q 358 758 365 758 z "},"ç":{"ha":510,"x_min":43,"x_max":510,"o":"m 232 -12 q 89 41 135 -12 q 43 210 43 94 q 64 389 43 300 q 126 551 85 478 q 227 669 167 625 q 367 713 288 713 q 449 700 418 713 q 495 661 481 688 q 510 593 510 635 q 499 542 510 564 q 474 508 488 521 q 449 490 460 496 l 421 490 l 410 625 q 388 631 408 626 q 319 636 368 636 q 277 632 297 636 q 242 617 257 628 q 224 592 239 618 q 189 521 208 567 q 156 415 169 475 q 142 289 142 356 q 155 153 142 200 q 197 88 168 106 q 274 69 226 69 q 333 83 303 69 q 385 113 363 97 q 410 132 407 129 l 439 86 q 409 56 435 81 q 338 10 383 32 q 232 -12 293 -12 m 215 -257 q 140 -243 168 -257 q 96 -217 111 -229 l 122 -182 q 163 -200 138 -193 q 210 -207 188 -207 q 253 -197 235 -207 q 271 -165 271 -187 q 260 -140 271 -150 q 228 -121 249 -131 l 164 -87 l 164 -68 l 215 0 l 269 0 l 247 -46 l 283 -62 q 333 -97 315 -76 q 351 -146 351 -118 q 313 -226 351 -196 q 215 -257 275 -257 z "},"ĉ":{"ha":510,"x_min":43,"x_max":544,"o":"m 232 -12 q 89 41 135 -12 q 43 210 43 94 q 64 389 43 300 q 126 551 85 478 q 227 669 167 625 q 367 713 288 713 q 449 700 418 713 q 495 661 481 688 q 510 593 510 635 q 499 542 510 564 q 474 508 488 521 q 449 490 460 496 l 421 490 l 410 625 q 388 631 408 626 q 319 636 368 636 q 277 632 297 636 q 242 617 257 628 q 224 592 239 618 q 189 521 208 567 q 156 415 169 475 q 142 289 142 356 q 155 153 142 200 q 197 88 168 106 q 274 69 226 69 q 333 83 303 69 q 385 113 363 97 q 410 132 407 129 l 439 86 q 409 56 435 81 q 338 10 383 32 q 232 -12 293 -12 m 506 756 l 368 868 l 218 760 l 179 796 l 324 933 q 367 972 353 961 q 386 982 381 982 q 402 975 393 982 q 432 942 411 968 l 544 804 l 506 756 z "},"ċ":{"ha":510,"x_min":43,"x_max":510,"o":"m 232 -12 q 89 41 135 -12 q 43 210 43 94 q 64 389 43 300 q 126 551 85 478 q 227 669 167 625 q 367 713 288 713 q 449 700 418 713 q 495 661 481 688 q 510 593 510 635 q 499 542 510 564 q 474 508 488 521 q 449 490 460 496 l 421 490 l 410 625 q 388 631 408 626 q 319 636 368 636 q 277 632 297 636 q 242 617 257 628 q 224 592 239 618 q 189 521 208 567 q 156 415 169 475 q 142 289 142 356 q 155 153 142 200 q 197 88 168 106 q 274 69 226 69 q 333 83 303 69 q 385 113 363 97 q 410 132 407 129 l 439 86 q 409 56 435 81 q 338 10 383 32 q 232 -12 293 -12 m 374 829 q 326 849 344 829 q 308 896 308 868 q 317 935 308 915 q 342 967 325 954 q 386 979 360 979 q 433 961 414 979 q 451 911 451 943 q 433 855 451 881 q 374 829 414 829 z "},"d":{"ha":686,"x_min":54,"x_max":636,"o":"m 219 -12 q 92 47 131 -12 q 54 208 54 107 q 67 326 54 260 q 105 460 79 393 q 169 585 131 528 q 258 678 207 643 q 372 713 308 713 q 460 699 421 713 q 518 676 500 686 l 554 875 l 446 897 l 446 942 l 636 968 l 636 875 l 508 85 l 610 85 l 610 38 q 589 24 607 35 q 545 4 571 14 q 490 -6 519 -6 q 433 9 453 -6 q 413 58 413 24 q 419 99 413 81 q 439 147 425 117 l 435 150 q 342 36 399 85 q 219 -12 286 -12 m 251 57 q 319 81 286 57 q 381 137 353 104 q 429 200 410 169 l 500 583 q 417 621 464 606 q 314 636 369 636 q 278 627 292 636 q 261 611 265 618 q 208 506 232 567 q 169 375 183 444 q 154 238 154 306 q 163 148 154 189 q 192 82 171 107 q 251 57 213 57 z "},"ð":{"ha":640,"x_min":72,"x_max":586,"o":"m 250 -12 q 119 48 165 -12 q 72 222 72 108 q 96 421 72 331 q 164 576 119 511 q 269 677 208 642 q 401 713 329 713 q 432 709 414 713 q 467 699 450 706 q 419 788 442 758 q 360 840 396 818 l 210 744 l 175 793 l 293 868 q 203 888 249 883 q 97 892 157 892 l 97 942 q 144 949 113 946 q 214 953 176 953 q 299 945 258 953 q 375 922 340 938 l 493 1000 l 526 947 l 435 889 q 549 750 513 835 q 586 544 586 665 q 547 242 586 367 q 433 53 508 118 q 250 -12 358 -12 m 306 65 q 400 86 375 65 q 431 134 415 97 q 459 224 446 171 q 480 333 472 276 q 488 439 488 390 q 484 546 488 497 q 476 608 481 594 q 410 627 447 621 q 329 633 374 633 q 284 625 308 633 q 251 606 260 617 q 219 548 235 586 q 194 460 204 510 q 177 351 183 410 q 171 233 171 293 q 183 131 171 168 q 224 80 194 94 q 306 65 253 65 z "},"ď":{"ha":686,"x_min":54,"x_max":790,"o":"m 219 -12 q 92 47 131 -12 q 54 208 54 107 q 67 326 54 260 q 105 460 79 393 q 169 585 131 528 q 258 678 207 643 q 372 713 308 713 q 460 699 421 713 q 518 676 500 686 l 554 875 l 446 897 l 446 942 l 636 968 l 636 875 l 508 85 l 610 85 l 610 38 q 589 24 607 35 q 545 4 571 14 q 490 -6 519 -6 q 433 9 453 -6 q 413 58 413 24 q 419 99 413 81 q 439 147 425 117 l 435 150 q 342 36 399 85 q 219 -12 286 -12 m 251 57 q 319 81 286 57 q 381 137 353 104 q 429 200 410 169 l 500 583 q 417 621 464 606 q 314 636 369 636 q 278 627 292 636 q 261 611 265 618 q 208 506 232 567 q 169 375 183 444 q 154 238 154 306 q 163 148 154 189 q 192 82 171 107 q 251 57 213 57 m 658 767 q 686 822 669 785 q 703 894 703 858 q 694 938 703 918 q 669 976 685 958 q 701 1001 685 992 q 735 1010 717 1010 q 774 994 758 1010 q 790 950 790 978 q 765 863 790 914 q 699 767 739 811 l 658 767 z "},"đ":{"ha":693,"x_min":54,"x_max":722,"o":"m 219 -12 q 92 47 131 -12 q 54 208 54 107 q 67 326 54 260 q 105 460 79 393 q 169 585 131 528 q 258 678 207 643 q 372 713 308 713 q 460 699 421 713 q 518 676 500 686 l 539 792 l 321 792 l 321 850 l 550 850 l 553 867 l 481 915 l 481 946 l 636 968 l 636 875 l 632 850 l 722 850 l 722 792 l 622 792 l 508 85 l 610 85 l 610 38 q 589 24 607 35 q 545 4 571 14 q 490 -6 519 -6 q 433 9 453 -6 q 413 58 413 24 q 419 99 413 81 q 439 147 425 117 l 435 150 q 342 36 399 85 q 219 -12 286 -12 m 251 57 q 319 81 286 57 q 381 137 353 104 q 429 200 410 169 l 500 583 q 417 621 464 606 q 314 636 369 636 q 278 627 292 636 q 261 611 265 618 q 208 506 232 567 q 169 375 183 444 q 154 238 154 306 q 163 148 154 189 q 192 82 171 107 q 251 57 213 57 z "},"ǳ":{"ha":1233,"x_min":54,"x_max":1261,"o":"m 219 -12 q 92 47 131 -12 q 54 208 54 107 q 67 326 54 260 q 105 460 79 393 q 169 585 131 528 q 258 678 207 643 q 372 713 308 713 q 460 699 421 713 q 518 676 500 686 l 554 875 l 446 897 l 446 942 l 636 968 l 636 875 l 508 85 l 610 85 l 610 38 q 589 24 607 35 q 545 4 571 14 q 490 -6 519 -6 q 433 9 453 -6 q 413 58 413 24 q 419 99 413 81 q 439 147 425 117 l 435 150 q 342 36 399 85 q 219 -12 286 -12 m 251 57 q 319 81 286 57 q 381 137 353 104 q 429 200 410 169 l 500 583 q 417 621 464 606 q 314 636 369 636 q 278 627 292 636 q 261 611 265 618 q 208 506 232 567 q 169 375 183 444 q 154 238 154 306 q 163 148 154 189 q 192 82 171 107 q 251 57 213 57 m 1068 -12 q 1024 -8 1051 -12 q 971 1 996 -4 q 932 8 946 6 l 767 40 l 696 -10 l 663 22 l 1079 572 l 1079 586 l 860 654 l 822 514 l 782 514 q 767 544 779 518 q 754 619 754 571 q 785 692 754 672 q 860 713 815 713 q 929 706 896 713 q 1006 689 963 700 l 1153 654 l 1229 711 l 1261 685 l 836 121 l 836 107 l 1076 47 l 1115 188 l 1156 188 q 1172 158 1158 183 q 1185 83 1185 132 q 1169 27 1185 49 q 1126 -3 1153 6 q 1068 -12 1100 -12 z "},"ǆ":{"ha":1233,"x_min":54,"x_max":1261,"o":"m 219 -12 q 92 47 131 -12 q 54 208 54 107 q 67 326 54 260 q 105 460 79 393 q 169 585 131 528 q 258 678 207 643 q 372 713 308 713 q 460 699 421 713 q 518 676 500 686 l 554 875 l 446 897 l 446 942 l 636 968 l 636 875 l 508 85 l 610 85 l 610 38 q 589 24 607 35 q 545 4 571 14 q 490 -6 519 -6 q 433 9 453 -6 q 413 58 413 24 q 419 99 413 81 q 439 147 425 117 l 435 150 q 342 36 399 85 q 219 -12 286 -12 m 251 57 q 319 81 286 57 q 381 137 353 104 q 429 200 410 169 l 500 583 q 417 621 464 606 q 314 636 369 636 q 278 627 292 636 q 261 611 265 618 q 208 506 232 567 q 169 375 183 444 q 154 238 154 306 q 163 148 154 189 q 192 82 171 107 q 251 57 213 57 m 1068 -12 q 1024 -8 1051 -12 q 971 1 996 -4 q 932 8 946 6 l 767 40 l 696 -10 l 663 22 l 1079 572 l 1079 586 l 860 654 l 822 514 l 782 514 q 767 544 779 518 q 754 619 754 571 q 785 692 754 672 q 860 713 815 713 q 929 706 896 713 q 1006 689 963 700 l 1153 654 l 1229 711 l 1261 685 l 836 121 l 836 107 l 1076 47 l 1115 188 l 1156 188 q 1172 158 1158 183 q 1185 83 1185 132 q 1169 27 1185 49 q 1126 -3 1153 6 q 1068 -12 1100 -12 m 1032 758 q 1013 769 1024 758 q 986 801 1003 781 l 878 939 l 915 972 l 1047 854 l 1215 972 l 1240 939 l 1100 810 q 1052 768 1065 778 q 1032 758 1039 758 z "},"e":{"ha":528,"x_min":56,"x_max":513,"o":"m 258 -12 q 144 6 189 -12 q 77 72 99 25 q 56 204 56 119 q 67 335 56 265 q 103 471 79 404 q 166 592 128 538 q 256 680 204 647 q 375 713 308 713 q 454 691 424 713 q 499 639 485 669 q 513 581 513 608 q 487 447 513 499 q 414 363 461 394 q 301 315 367 332 q 157 283 236 297 l 157 271 q 167 145 157 190 q 207 82 178 100 q 289 64 236 64 q 362 83 321 64 q 438 132 403 101 l 463 94 q 406 40 440 64 q 334 1 372 15 q 258 -12 296 -12 m 161 338 q 303 379 251 357 q 381 427 356 401 q 413 484 406 453 q 421 551 421 515 q 415 585 421 567 q 390 619 410 604 q 328 633 371 633 q 274 628 297 633 q 244 613 251 624 q 204 525 221 575 q 178 426 188 475 q 161 338 168 376 z "},"é":{"ha":528,"x_min":56,"x_max":513,"o":"m 258 -12 q 144 6 189 -12 q 77 72 99 25 q 56 204 56 119 q 67 335 56 265 q 103 471 79 404 q 166 592 128 538 q 256 680 204 647 q 375 713 308 713 q 454 691 424 713 q 499 639 485 669 q 513 581 513 608 q 487 447 513 499 q 414 363 461 394 q 301 315 367 332 q 157 283 236 297 l 157 271 q 167 145 157 190 q 207 82 178 100 q 289 64 236 64 q 362 83 321 64 q 438 132 403 101 l 463 94 q 406 40 440 64 q 334 1 372 15 q 258 -12 296 -12 m 161 338 q 303 379 251 357 q 381 427 356 401 q 413 484 406 453 q 421 551 421 515 q 415 585 421 567 q 390 619 410 604 q 328 633 371 633 q 274 628 297 633 q 244 613 251 624 q 204 525 221 575 q 178 426 188 475 q 161 338 168 376 m 272 779 l 238 821 l 428 1015 q 472 981 463 1001 q 481 946 481 961 q 468 919 481 933 q 440 893 456 906 q 415 874 425 881 l 272 779 z "},"ĕ":{"ha":528,"x_min":56,"x_max":572,"o":"m 258 -12 q 144 6 189 -12 q 77 72 99 25 q 56 204 56 119 q 67 335 56 265 q 103 471 79 404 q 166 592 128 538 q 256 680 204 647 q 375 713 308 713 q 454 691 424 713 q 499 639 485 669 q 513 581 513 608 q 487 447 513 499 q 414 363 461 394 q 301 315 367 332 q 157 283 236 297 l 157 271 q 167 145 157 190 q 207 82 178 100 q 289 64 236 64 q 362 83 321 64 q 438 132 403 101 l 463 94 q 406 40 440 64 q 334 1 372 15 q 258 -12 296 -12 m 161 338 q 303 379 251 357 q 381 427 356 401 q 413 484 406 453 q 421 551 421 515 q 415 585 421 567 q 390 619 410 604 q 328 633 371 633 q 274 628 297 633 q 244 613 251 624 q 204 525 221 575 q 178 426 188 475 q 161 338 168 376 m 361 792 q 267 815 303 792 q 214 872 231 839 q 197 929 197 904 q 199 944 197 936 q 207 958 201 953 q 228 977 217 971 q 253 985 240 983 q 279 988 267 988 q 287 935 281 964 q 314 886 293 907 q 382 865 335 865 q 448 882 418 865 q 499 922 478 899 q 534 965 521 946 q 550 989 547 985 l 572 964 q 563 940 571 958 q 540 896 556 921 q 501 847 525 871 q 442 808 476 824 q 361 792 407 792 z "},"ě":{"ha":528,"x_min":56,"x_max":575,"o":"m 258 -12 q 144 6 189 -12 q 77 72 99 25 q 56 204 56 119 q 67 335 56 265 q 103 471 79 404 q 166 592 128 538 q 256 680 204 647 q 375 713 308 713 q 454 691 424 713 q 499 639 485 669 q 513 581 513 608 q 487 447 513 499 q 414 363 461 394 q 301 315 367 332 q 157 283 236 297 l 157 271 q 167 145 157 190 q 207 82 178 100 q 289 64 236 64 q 362 83 321 64 q 438 132 403 101 l 463 94 q 406 40 440 64 q 334 1 372 15 q 258 -12 296 -12 m 161 338 q 303 379 251 357 q 381 427 356 401 q 413 484 406 453 q 421 551 421 515 q 415 585 421 567 q 390 619 410 604 q 328 633 371 633 q 274 628 297 633 q 244 613 251 624 q 204 525 221 575 q 178 426 188 475 q 161 338 168 376 m 367 758 q 348 769 358 758 q 321 801 338 781 l 213 939 l 250 972 l 382 854 l 550 972 l 575 939 l 435 810 q 387 768 400 778 q 367 758 374 758 z "},"ê":{"ha":528,"x_min":56,"x_max":553,"o":"m 258 -12 q 144 6 189 -12 q 77 72 99 25 q 56 204 56 119 q 67 335 56 265 q 103 471 79 404 q 166 592 128 538 q 256 680 204 647 q 375 713 308 713 q 454 691 424 713 q 499 639 485 669 q 513 581 513 608 q 487 447 513 499 q 414 363 461 394 q 301 315 367 332 q 157 283 236 297 l 157 271 q 167 145 157 190 q 207 82 178 100 q 289 64 236 64 q 362 83 321 64 q 438 132 403 101 l 463 94 q 406 40 440 64 q 334 1 372 15 q 258 -12 296 -12 m 161 338 q 303 379 251 357 q 381 427 356 401 q 413 484 406 453 q 421 551 421 515 q 415 585 421 567 q 390 619 410 604 q 328 633 371 633 q 274 628 297 633 q 244 613 251 624 q 204 525 221 575 q 178 426 188 475 q 161 338 168 376 m 514 756 l 376 868 l 226 760 l 188 796 l 332 933 q 375 972 361 961 q 394 982 389 982 q 410 975 401 982 q 440 942 419 968 l 553 804 l 514 756 z "},"ế":{"ha":528,"x_min":56,"x_max":724,"o":"m 258 -12 q 144 6 189 -12 q 77 72 99 25 q 56 204 56 119 q 67 335 56 265 q 103 471 79 404 q 166 592 128 538 q 256 680 204 647 q 375 713 308 713 q 454 691 424 713 q 499 639 485 669 q 513 581 513 608 q 487 447 513 499 q 414 363 461 394 q 301 315 367 332 q 157 283 236 297 l 157 271 q 167 145 157 190 q 207 82 178 100 q 289 64 236 64 q 362 83 321 64 q 438 132 403 101 l 463 94 q 406 40 440 64 q 334 1 372 15 q 258 -12 296 -12 m 161 338 q 303 379 251 357 q 381 427 356 401 q 413 484 406 453 q 421 551 421 515 q 415 585 421 567 q 390 619 410 604 q 328 633 371 633 q 274 628 297 633 q 244 613 251 624 q 204 525 221 575 q 178 426 188 475 q 161 338 168 376 m 515 906 l 481 947 l 671 1142 q 715 1108 706 1128 q 724 1072 724 1088 q 711 1046 724 1060 q 683 1019 699 1032 q 658 1000 668 1007 l 515 906 m 514 756 l 376 868 l 226 760 l 188 796 l 332 933 q 375 972 361 961 q 394 982 389 982 q 410 975 401 982 q 440 942 419 968 l 553 804 l 514 756 z "},"ệ":{"ha":528,"x_min":56,"x_max":553,"o":"m 258 -12 q 144 6 189 -12 q 77 72 99 25 q 56 204 56 119 q 67 335 56 265 q 103 471 79 404 q 166 592 128 538 q 256 680 204 647 q 375 713 308 713 q 454 691 424 713 q 499 639 485 669 q 513 581 513 608 q 487 447 513 499 q 414 363 461 394 q 301 315 367 332 q 157 283 236 297 l 157 271 q 167 145 157 190 q 207 82 178 100 q 289 64 236 64 q 362 83 321 64 q 438 132 403 101 l 463 94 q 406 40 440 64 q 334 1 372 15 q 258 -12 296 -12 m 161 338 q 303 379 251 357 q 381 427 356 401 q 413 484 406 453 q 421 551 421 515 q 415 585 421 567 q 390 619 410 604 q 328 633 371 633 q 274 628 297 633 q 244 613 251 624 q 204 525 221 575 q 178 426 188 475 q 161 338 168 376 m 222 -254 q 175 -235 193 -254 q 157 -187 157 -215 q 165 -149 157 -168 q 191 -117 174 -129 q 235 -104 208 -104 q 281 -122 263 -104 q 300 -172 300 -140 q 281 -228 300 -203 q 222 -254 263 -254 m 514 756 l 376 868 l 226 760 l 188 796 l 332 933 q 375 972 361 961 q 394 982 389 982 q 410 975 401 982 q 440 942 419 968 l 553 804 l 514 756 z "},"ề":{"ha":528,"x_min":56,"x_max":619,"o":"m 258 -12 q 144 6 189 -12 q 77 72 99 25 q 56 204 56 119 q 67 335 56 265 q 103 471 79 404 q 166 592 128 538 q 256 680 204 647 q 375 713 308 713 q 454 691 424 713 q 499 639 485 669 q 513 581 513 608 q 487 447 513 499 q 414 363 461 394 q 301 315 367 332 q 157 283 236 297 l 157 271 q 167 145 157 190 q 207 82 178 100 q 289 64 236 64 q 362 83 321 64 q 438 132 403 101 l 463 94 q 406 40 440 64 q 334 1 372 15 q 258 -12 296 -12 m 161 338 q 303 379 251 357 q 381 427 356 401 q 413 484 406 453 q 421 551 421 515 q 415 585 421 567 q 390 619 410 604 q 328 633 371 633 q 274 628 297 633 q 244 613 251 624 q 204 525 221 575 q 178 426 188 475 q 161 338 168 376 m 586 908 l 443 1003 q 418 1022 433 1010 q 390 1049 403 1035 q 378 1075 378 1063 q 387 1110 378 1090 q 431 1144 396 1131 l 619 950 l 586 908 m 514 756 l 376 868 l 226 760 l 188 796 l 332 933 q 375 972 361 961 q 394 982 389 982 q 410 975 401 982 q 440 942 419 968 l 553 804 l 514 756 z "},"ể":{"ha":528,"x_min":56,"x_max":696,"o":"m 258 -12 q 144 6 189 -12 q 77 72 99 25 q 56 204 56 119 q 67 335 56 265 q 103 471 79 404 q 166 592 128 538 q 256 680 204 647 q 375 713 308 713 q 454 691 424 713 q 499 639 485 669 q 513 581 513 608 q 487 447 513 499 q 414 363 461 394 q 301 315 367 332 q 157 283 236 297 l 157 271 q 167 145 157 190 q 207 82 178 100 q 289 64 236 64 q 362 83 321 64 q 438 132 403 101 l 463 94 q 406 40 440 64 q 334 1 372 15 q 258 -12 296 -12 m 161 338 q 303 379 251 357 q 381 427 356 401 q 413 484 406 453 q 421 551 421 515 q 415 585 421 567 q 390 619 410 604 q 328 633 371 633 q 274 628 297 633 q 244 613 251 624 q 204 525 221 575 q 178 426 188 475 q 161 338 168 376 m 497 908 q 492 928 494 919 q 490 946 490 938 q 505 981 490 969 q 550 1007 519 993 q 598 1033 586 1022 q 610 1063 610 1044 q 595 1086 610 1078 q 544 1094 581 1094 q 450 1083 501 1094 q 447 1098 449 1092 q 446 1111 446 1104 q 464 1154 446 1143 q 531 1165 482 1165 q 651 1140 607 1165 q 696 1065 696 1115 q 672 1007 696 1029 q 603 967 649 985 q 563 942 568 953 q 557 914 557 932 l 497 908 m 514 756 l 376 868 l 226 760 l 188 796 l 332 933 q 375 972 361 961 q 394 982 389 982 q 410 975 401 982 q 440 942 419 968 l 553 804 l 514 756 z "},"ễ":{"ha":528,"x_min":56,"x_max":622,"o":"m 506 1038 q 469 1045 493 1038 q 424 1060 444 1053 l 335 1092 l 239 1042 l 214 1065 l 260 1126 q 294 1164 278 1150 q 329 1178 310 1178 q 371 1170 344 1178 q 419 1154 397 1163 l 503 1125 l 599 1175 l 622 1151 l 578 1096 q 543 1055 560 1072 q 506 1038 526 1038 m 258 -12 q 144 6 189 -12 q 77 72 99 25 q 56 204 56 119 q 67 335 56 265 q 103 471 79 404 q 166 592 128 538 q 256 680 204 647 q 375 713 308 713 q 454 691 424 713 q 499 639 485 669 q 513 581 513 608 q 487 447 513 499 q 414 363 461 394 q 301 315 367 332 q 157 283 236 297 l 157 271 q 167 145 157 190 q 207 82 178 100 q 289 64 236 64 q 362 83 321 64 q 438 132 403 101 l 463 94 q 406 40 440 64 q 334 1 372 15 q 258 -12 296 -12 m 161 338 q 303 379 251 357 q 381 427 356 401 q 413 484 406 453 q 421 551 421 515 q 415 585 421 567 q 390 619 410 604 q 328 633 371 633 q 274 628 297 633 q 244 613 251 624 q 204 525 221 575 q 178 426 188 475 q 161 338 168 376 m 521 756 l 383 868 l 233 760 l 194 796 l 339 933 q 382 972 368 961 q 401 982 396 982 q 417 975 408 982 q 447 942 426 968 l 560 804 l 521 756 z "},"ȅ":{"ha":528,"x_min":56,"x_max":513,"o":"m 263 785 l 185 889 q 160 927 175 901 q 151 972 146 953 q 160 994 154 983 q 183 1014 167 1004 q 233 1035 200 1024 l 308 814 l 263 785 m 467 785 l 389 889 q 365 927 379 901 q 356 972 350 953 q 365 994 358 983 q 388 1014 371 1004 q 438 1035 404 1024 l 513 814 l 467 785 m 258 -12 q 144 6 189 -12 q 77 72 99 25 q 56 204 56 119 q 67 335 56 265 q 103 471 79 404 q 166 592 128 538 q 256 680 204 647 q 375 713 308 713 q 454 691 424 713 q 499 639 485 669 q 513 581 513 608 q 487 447 513 499 q 414 363 461 394 q 301 315 367 332 q 157 283 236 297 l 157 271 q 167 145 157 190 q 207 82 178 100 q 289 64 236 64 q 362 83 321 64 q 438 132 403 101 l 463 94 q 406 40 440 64 q 334 1 372 15 q 258 -12 296 -12 m 161 338 q 303 379 251 357 q 381 427 356 401 q 413 484 406 453 q 421 551 421 515 q 415 585 421 567 q 390 619 410 604 q 328 633 371 633 q 274 628 297 633 q 244 613 251 624 q 204 525 221 575 q 178 426 188 475 q 161 338 168 376 z "},"ë":{"ha":528,"x_min":56,"x_max":575,"o":"m 258 -12 q 144 6 189 -12 q 77 72 99 25 q 56 204 56 119 q 67 335 56 265 q 103 471 79 404 q 166 592 128 538 q 256 680 204 647 q 375 713 308 713 q 454 691 424 713 q 499 639 485 669 q 513 581 513 608 q 487 447 513 499 q 414 363 461 394 q 301 315 367 332 q 157 283 236 297 l 157 271 q 167 145 157 190 q 207 82 178 100 q 289 64 236 64 q 362 83 321 64 q 438 132 403 101 l 463 94 q 406 40 440 64 q 334 1 372 15 q 258 -12 296 -12 m 161 338 q 303 379 251 357 q 381 427 356 401 q 413 484 406 453 q 421 551 421 515 q 415 585 421 567 q 390 619 410 604 q 328 633 371 633 q 274 628 297 633 q 244 613 251 624 q 204 525 221 575 q 178 426 188 475 q 161 338 168 376 m 492 831 q 451 846 467 831 q 436 883 436 861 q 457 944 436 914 q 519 974 478 974 q 560 958 546 974 q 575 915 575 943 q 553 859 575 888 q 492 831 532 831 m 238 831 q 198 846 213 831 q 183 883 183 861 q 203 944 183 914 q 265 974 224 974 q 306 958 290 974 q 322 915 322 943 q 300 859 322 888 q 238 831 278 831 z "},"ė":{"ha":528,"x_min":56,"x_max":513,"o":"m 258 -12 q 144 6 189 -12 q 77 72 99 25 q 56 204 56 119 q 67 335 56 265 q 103 471 79 404 q 166 592 128 538 q 256 680 204 647 q 375 713 308 713 q 454 691 424 713 q 499 639 485 669 q 513 581 513 608 q 487 447 513 499 q 414 363 461 394 q 301 315 367 332 q 157 283 236 297 l 157 271 q 167 145 157 190 q 207 82 178 100 q 289 64 236 64 q 362 83 321 64 q 438 132 403 101 l 463 94 q 406 40 440 64 q 334 1 372 15 q 258 -12 296 -12 m 161 338 q 303 379 251 357 q 381 427 356 401 q 413 484 406 453 q 421 551 421 515 q 415 585 421 567 q 390 619 410 604 q 328 633 371 633 q 274 628 297 633 q 244 613 251 624 q 204 525 221 575 q 178 426 188 475 q 161 338 168 376 m 382 829 q 335 849 353 829 q 317 896 317 868 q 325 935 317 915 q 351 967 333 954 q 394 979 368 979 q 441 961 422 979 q 460 911 460 943 q 441 855 460 881 q 382 829 422 829 z "},"ẹ":{"ha":528,"x_min":56,"x_max":513,"o":"m 258 -12 q 144 6 189 -12 q 77 72 99 25 q 56 204 56 119 q 67 335 56 265 q 103 471 79 404 q 166 592 128 538 q 256 680 204 647 q 375 713 308 713 q 454 691 424 713 q 499 639 485 669 q 513 581 513 608 q 487 447 513 499 q 414 363 461 394 q 301 315 367 332 q 157 283 236 297 l 157 271 q 167 145 157 190 q 207 82 178 100 q 289 64 236 64 q 362 83 321 64 q 438 132 403 101 l 463 94 q 406 40 440 64 q 334 1 372 15 q 258 -12 296 -12 m 161 338 q 303 379 251 357 q 381 427 356 401 q 413 484 406 453 q 421 551 421 515 q 415 585 421 567 q 390 619 410 604 q 328 633 371 633 q 274 628 297 633 q 244 613 251 624 q 204 525 221 575 q 178 426 188 475 q 161 338 168 376 m 222 -254 q 175 -235 193 -254 q 157 -187 157 -215 q 165 -149 157 -168 q 191 -117 174 -129 q 235 -104 208 -104 q 281 -122 263 -104 q 300 -172 300 -140 q 281 -228 300 -203 q 222 -254 263 -254 z "},"è":{"ha":528,"x_min":56,"x_max":513,"o":"m 258 -12 q 144 6 189 -12 q 77 72 99 25 q 56 204 56 119 q 67 335 56 265 q 103 471 79 404 q 166 592 128 538 q 256 680 204 647 q 375 713 308 713 q 454 691 424 713 q 499 639 485 669 q 513 581 513 608 q 487 447 513 499 q 414 363 461 394 q 301 315 367 332 q 157 283 236 297 l 157 271 q 167 145 157 190 q 207 82 178 100 q 289 64 236 64 q 362 83 321 64 q 438 132 403 101 l 463 94 q 406 40 440 64 q 334 1 372 15 q 258 -12 296 -12 m 161 338 q 303 379 251 357 q 381 427 356 401 q 413 484 406 453 q 421 551 421 515 q 415 585 421 567 q 390 619 410 604 q 328 633 371 633 q 274 628 297 633 q 244 613 251 624 q 204 525 221 575 q 178 426 188 475 q 161 338 168 376 m 425 779 l 282 874 q 257 893 272 881 q 229 919 242 906 q 217 946 217 933 q 226 981 217 961 q 269 1015 235 1001 l 458 821 l 425 779 z "},"ẻ":{"ha":528,"x_min":56,"x_max":532,"o":"m 258 -12 q 144 6 189 -12 q 77 72 99 25 q 56 204 56 119 q 67 335 56 265 q 103 471 79 404 q 166 592 128 538 q 256 680 204 647 q 375 713 308 713 q 454 691 424 713 q 499 639 485 669 q 513 581 513 608 q 487 447 513 499 q 414 363 461 394 q 301 315 367 332 q 157 283 236 297 l 157 271 q 167 145 157 190 q 207 82 178 100 q 289 64 236 64 q 362 83 321 64 q 438 132 403 101 l 463 94 q 406 40 440 64 q 334 1 372 15 q 258 -12 296 -12 m 161 338 q 303 379 251 357 q 381 427 356 401 q 413 484 406 453 q 421 551 421 515 q 415 585 421 567 q 390 619 410 604 q 328 633 371 633 q 274 628 297 633 q 244 613 251 624 q 204 525 221 575 q 178 426 188 475 q 161 338 168 376 m 333 744 q 328 765 331 756 q 326 782 326 774 q 341 817 326 806 q 386 843 356 829 q 434 869 422 858 q 446 899 446 881 q 431 922 446 914 q 381 931 417 931 q 286 919 338 931 q 283 934 285 928 q 282 947 282 940 q 300 990 282 979 q 367 1001 318 1001 q 488 976 443 1001 q 532 901 532 951 q 508 843 532 865 q 439 803 485 821 q 399 778 404 789 q 393 750 393 768 l 333 744 z "},"ȇ":{"ha":528,"x_min":56,"x_max":567,"o":"m 403 989 q 498 965 463 989 q 550 910 533 942 q 567 851 567 878 q 565 837 567 844 q 557 822 563 829 q 535 804 547 811 q 511 795 524 797 q 485 793 499 793 q 478 845 483 817 q 451 894 472 874 q 382 915 429 915 q 316 899 346 915 q 265 858 286 882 q 230 815 243 835 q 214 792 217 796 l 192 817 q 201 841 193 822 q 224 885 208 860 q 263 933 239 910 q 322 973 288 957 q 403 989 357 989 m 258 -12 q 144 6 189 -12 q 77 72 99 25 q 56 204 56 119 q 67 335 56 265 q 103 471 79 404 q 166 592 128 538 q 256 680 204 647 q 375 713 308 713 q 454 691 424 713 q 499 639 485 669 q 513 581 513 608 q 487 447 513 499 q 414 363 461 394 q 301 315 367 332 q 157 283 236 297 l 157 271 q 167 145 157 190 q 207 82 178 100 q 289 64 236 64 q 362 83 321 64 q 438 132 403 101 l 463 94 q 406 40 440 64 q 334 1 372 15 q 258 -12 296 -12 m 161 338 q 303 379 251 357 q 381 427 356 401 q 413 484 406 453 q 421 551 421 515 q 415 585 421 567 q 390 619 410 604 q 328 633 371 633 q 274 628 297 633 q 244 613 251 624 q 204 525 221 575 q 178 426 188 475 q 161 338 168 376 z "},"ē":{"ha":528,"x_min":56,"x_max":579,"o":"m 258 -12 q 144 6 189 -12 q 77 72 99 25 q 56 204 56 119 q 67 335 56 265 q 103 471 79 404 q 166 592 128 538 q 256 680 204 647 q 375 713 308 713 q 454 691 424 713 q 499 639 485 669 q 513 581 513 608 q 487 447 513 499 q 414 363 461 394 q 301 315 367 332 q 157 283 236 297 l 157 271 q 167 145 157 190 q 207 82 178 100 q 289 64 236 64 q 362 83 321 64 q 438 132 403 101 l 463 94 q 406 40 440 64 q 334 1 372 15 q 258 -12 296 -12 m 161 338 q 303 379 251 357 q 381 427 356 401 q 413 484 406 453 q 421 551 421 515 q 415 585 421 567 q 390 619 410 604 q 328 633 371 633 q 274 628 297 633 q 244 613 251 624 q 204 525 221 575 q 178 426 188 475 q 161 338 168 376 m 192 849 l 203 918 l 579 918 l 568 849 l 192 849 z "},"ę":{"ha":528,"x_min":56,"x_max":513,"o":"m 258 -12 q 144 6 189 -12 q 77 72 99 25 q 56 204 56 119 q 67 335 56 265 q 103 471 79 404 q 166 592 128 538 q 256 680 204 647 q 375 713 308 713 q 454 691 424 713 q 499 639 485 669 q 513 581 513 608 q 487 447 513 499 q 414 363 461 394 q 301 315 367 332 q 157 283 236 297 l 157 271 q 167 145 157 190 q 207 82 178 100 q 289 64 236 64 q 362 83 321 64 q 438 132 403 101 l 463 94 q 406 40 440 64 q 334 1 372 15 q 258 -12 296 -12 m 161 338 q 303 379 251 357 q 381 427 356 401 q 413 484 406 453 q 421 551 421 515 q 415 585 421 567 q 390 619 410 604 q 328 633 371 633 q 274 628 297 633 q 244 613 251 624 q 204 525 221 575 q 178 426 188 475 q 161 338 168 376 m 285 -243 q 217 -226 246 -243 q 188 -158 188 -210 q 203 -91 188 -124 q 250 -30 219 -58 q 324 18 281 -1 l 371 18 q 338 -6 356 10 q 303 -40 319 -21 q 278 -83 288 -60 q 268 -129 268 -106 q 284 -167 268 -156 q 322 -178 300 -178 q 368 -169 344 -178 q 410 -150 392 -161 l 429 -179 q 407 -198 426 -182 q 356 -228 388 -214 q 285 -243 324 -243 z "},"ẽ":{"ha":528,"x_min":56,"x_max":579,"o":"m 258 -12 q 144 6 189 -12 q 77 72 99 25 q 56 204 56 119 q 67 335 56 265 q 103 471 79 404 q 166 592 128 538 q 256 680 204 647 q 375 713 308 713 q 454 691 424 713 q 499 639 485 669 q 513 581 513 608 q 487 447 513 499 q 414 363 461 394 q 301 315 367 332 q 157 283 236 297 l 157 271 q 167 145 157 190 q 207 82 178 100 q 289 64 236 64 q 362 83 321 64 q 438 132 403 101 l 463 94 q 406 40 440 64 q 334 1 372 15 q 258 -12 296 -12 m 161 338 q 303 379 251 357 q 381 427 356 401 q 413 484 406 453 q 421 551 421 515 q 415 585 421 567 q 390 619 410 604 q 328 633 371 633 q 274 628 297 633 q 244 613 251 624 q 204 525 221 575 q 178 426 188 475 q 161 338 168 376 m 463 832 q 426 840 450 832 q 381 854 401 847 l 292 885 l 196 836 l 171 858 l 217 918 q 251 955 235 942 q 286 968 267 968 q 328 960 301 968 q 376 946 354 953 l 460 917 l 556 965 l 579 943 l 535 889 q 500 849 517 867 q 463 832 483 832 z "},"ə":{"ha":567,"x_min":53,"x_max":510,"o":"m 307 699 q 422 680 378 699 q 488 614 467 661 q 510 482 510 567 q 498 351 510 421 q 462 215 486 282 q 399 94 438 149 q 309 6 361 39 q 190 -26 257 -26 q 111 -5 142 -26 q 67 47 81 17 q 53 106 53 78 q 78 240 53 188 q 151 323 104 292 q 264 372 199 354 q 408 403 329 389 l 408 415 q 398 542 408 497 q 359 604 388 586 q 276 622 331 622 q 204 603 246 622 q 128 554 163 585 l 103 592 q 160 647 126 624 q 232 685 193 671 q 307 699 271 699 m 404 349 q 263 307 315 329 q 185 259 210 285 q 152 202 160 233 q 144 135 144 171 q 150 101 144 121 q 176 67 156 82 q 238 53 196 53 q 292 58 269 53 q 321 74 315 64 q 362 162 346 113 q 388 260 378 211 q 404 349 399 310 z "},"f":{"ha":378,"x_min":53,"x_max":525,"o":"m 53 -240 l 185 632 l 79 632 l 79 672 l 100 704 l 194 704 q 248 863 208 800 q 347 956 288 925 q 475 988 406 988 q 512 979 499 988 q 525 943 525 971 q 518 906 525 919 q 508 889 511 893 l 414 889 q 369 885 392 889 q 339 875 346 881 q 315 841 333 869 q 286 756 296 813 l 278 704 l 415 704 l 415 663 l 393 632 l 269 632 l 149 -226 l 53 -240 z "},"g":{"ha":651,"x_min":-4,"x_max":621,"o":"m 194 -229 q 47 -197 99 -229 q -4 -106 -4 -165 q 0 -73 -4 -89 q 11 -44 4 -57 q 30 -19 18 -31 q 56 3 42 -7 l 94 3 l 94 -129 q 158 -158 114 -147 q 250 -169 203 -169 q 353 -130 313 -169 q 411 -14 394 -90 q 432 80 422 35 q 451 160 442 125 q 469 213 461 196 l 465 215 q 369 93 433 142 q 240 44 306 44 q 122 101 164 44 q 81 263 81 157 q 107 422 81 342 q 176 567 133 501 q 272 673 219 633 q 379 713 325 713 q 466 701 419 713 q 549 669 513 689 l 575 718 l 621 718 l 504 17 q 403 -165 485 -101 q 194 -229 322 -229 m 271 118 q 353 152 301 118 q 453 236 406 186 l 511 578 q 415 615 469 600 q 322 629 360 629 q 295 626 303 629 q 279 614 288 624 q 244 553 261 593 q 212 463 226 513 q 188 363 197 413 q 179 272 179 313 q 205 162 179 206 q 271 118 231 118 z "},"ğ":{"ha":651,"x_min":-4,"x_max":631,"o":"m 194 -229 q 47 -197 99 -229 q -4 -106 -4 -165 q 0 -73 -4 -89 q 11 -44 4 -57 q 30 -19 18 -31 q 56 3 42 -7 l 94 3 l 94 -129 q 158 -158 114 -147 q 250 -169 203 -169 q 353 -130 313 -169 q 411 -14 394 -90 q 432 80 422 35 q 451 160 442 125 q 469 213 461 196 l 465 215 q 369 93 433 142 q 240 44 306 44 q 122 101 164 44 q 81 263 81 157 q 107 422 81 342 q 176 567 133 501 q 272 673 219 633 q 379 713 325 713 q 466 701 419 713 q 549 669 513 689 l 575 718 l 621 718 l 504 17 q 403 -165 485 -101 q 194 -229 322 -229 m 271 118 q 353 152 301 118 q 453 236 406 186 l 511 578 q 415 615 469 600 q 322 629 360 629 q 295 626 303 629 q 279 614 288 624 q 244 553 261 593 q 212 463 226 513 q 188 363 197 413 q 179 272 179 313 q 205 162 179 206 q 271 118 231 118 m 419 792 q 325 815 361 792 q 272 872 289 839 q 256 929 256 904 q 258 944 256 936 q 265 958 260 953 q 287 977 275 971 q 312 985 299 983 q 338 988 325 988 q 345 935 339 964 q 372 886 351 907 q 440 865 393 865 q 506 882 476 865 q 558 922 536 899 q 592 965 579 946 q 608 989 606 985 l 631 964 q 622 940 629 958 q 599 896 614 921 q 559 847 583 871 q 500 808 535 824 q 419 792 465 792 z "},"ǧ":{"ha":651,"x_min":-4,"x_max":633,"o":"m 194 -229 q 47 -197 99 -229 q -4 -106 -4 -165 q 0 -73 -4 -89 q 11 -44 4 -57 q 30 -19 18 -31 q 56 3 42 -7 l 94 3 l 94 -129 q 158 -158 114 -147 q 250 -169 203 -169 q 353 -130 313 -169 q 411 -14 394 -90 q 432 80 422 35 q 451 160 442 125 q 469 213 461 196 l 465 215 q 369 93 433 142 q 240 44 306 44 q 122 101 164 44 q 81 263 81 157 q 107 422 81 342 q 176 567 133 501 q 272 673 219 633 q 379 713 325 713 q 466 701 419 713 q 549 669 513 689 l 575 718 l 621 718 l 504 17 q 403 -165 485 -101 q 194 -229 322 -229 m 271 118 q 353 152 301 118 q 453 236 406 186 l 511 578 q 415 615 469 600 q 322 629 360 629 q 295 626 303 629 q 279 614 288 624 q 244 553 261 593 q 212 463 226 513 q 188 363 197 413 q 179 272 179 313 q 205 162 179 206 q 271 118 231 118 m 425 758 q 406 769 417 758 q 379 801 396 781 l 271 939 l 308 972 l 440 854 l 608 972 l 633 939 l 493 810 q 445 768 458 778 q 425 758 432 758 z "},"ĝ":{"ha":651,"x_min":-4,"x_max":621,"o":"m 194 -229 q 47 -197 99 -229 q -4 -106 -4 -165 q 0 -73 -4 -89 q 11 -44 4 -57 q 30 -19 18 -31 q 56 3 42 -7 l 94 3 l 94 -129 q 158 -158 114 -147 q 250 -169 203 -169 q 353 -130 313 -169 q 411 -14 394 -90 q 432 80 422 35 q 451 160 442 125 q 469 213 461 196 l 465 215 q 369 93 433 142 q 240 44 306 44 q 122 101 164 44 q 81 263 81 157 q 107 422 81 342 q 176 567 133 501 q 272 673 219 633 q 379 713 325 713 q 466 701 419 713 q 549 669 513 689 l 575 718 l 621 718 l 504 17 q 403 -165 485 -101 q 194 -229 322 -229 m 271 118 q 353 152 301 118 q 453 236 406 186 l 511 578 q 415 615 469 600 q 322 629 360 629 q 295 626 303 629 q 279 614 288 624 q 244 553 261 593 q 212 463 226 513 q 188 363 197 413 q 179 272 179 313 q 205 162 179 206 q 271 118 231 118 m 572 756 l 435 868 l 285 760 l 246 796 l 390 933 q 433 972 419 961 q 453 982 447 982 q 469 975 460 982 q 499 942 478 968 l 611 804 l 572 756 z "}}}
